<svg xmlns="http://www.w3.org/2000/svg" width="71" height="93" viewBox="0 0 71 93">
  <g fill="none" fill-rule="evenodd">
    <path fill="#1D2F44" d="M3,0 L55.7339131,0 L71,18.640625 L71,90 C71,91.6568542 69.6568542,93 68,93 L3,93 C1.34314575,93 2.02906125e-16,91.6568542 0,90 L0,3 C-2.02906125e-16,1.34314575 1.34314575,3.04359188e-16 3,0 Z"/>
    <path fill="#3A6291" d="M56.1679688,0.083984375 L56.1679688,15.6293945 C56.1679688,17.2862488 57.5111145,18.6293945 59.1679688,18.6293945 L71.0048828,18.6293945 L56.1679688,0.083984375 Z"/>
    <g transform="translate(4 26)">
      <rect width="63" height="59" fill="#A5C5E9" rx="4.5"/>
      <g transform="translate(9 13.615)">
        <polygon fill="#BB7334" points="11.25 0 22.5 36.308 0 36.308"/>
        <path fill="#FFF" d="M11.25,0 L15.5629578,13.6153846 C15.5629578,13.6153846 15.1130078,15.3494982 13.782074,15.3347591 C13.076436,15.3269446 11.6660558,13.3122772 10.947876,13.6153846 C10.2440359,13.91244 9.76023254,16.7117544 9.22467041,16.7117544 C8.48959351,16.7117544 7.0194397,13.6153846 7.0194397,13.6153846 L11.25,0 Z"/>
      </g>
      <path fill="#70CF47" d="M0,40.8461538 C0,40.8461538 14.0462624,46.1461545 28.930794,45.7327507 C35.716949,45.5442716 43.9904975,38.8030037 48.8700727,39.2950675 C54.2877961,39.8413989 63,47.1991696 63,47.1991696 L63,54.5049479 C63,56.9874966 60.9928922,59 58.4944782,59 L4.50552184,59 C2.01719084,59 0,56.9878587 0,54.5008739 L0,40.8461538 Z"/>
      <ellipse cx="49.5" cy="13.615" fill="#F8E71C" rx="9" ry="9.077"/>
    </g>
    <path fill="#FFF" d="M5.296,6.256 L10.048,6.256 C10.6000028,6.256 11.1549972,6.29499961 11.713,6.373 C12.2710028,6.45100039 12.7719978,6.60699883 13.216,6.841 C13.6600022,7.07500117 14.0199986,7.4019979 14.296,7.822 C14.5720014,8.2420021 14.71,8.79999652 14.71,9.496 C14.71,10.2160036 14.509002,10.8129976 14.107,11.287 C13.704998,11.7610024 13.1740033,12.099999 12.514,12.304 L12.514,12.34 C12.9340021,12.4000003 13.3149983,12.5169991 13.657,12.691 C13.9990017,12.8650009 14.2929988,13.0869986 14.539,13.357 C14.7850012,13.6270014 14.9739993,13.9419982 15.106,14.302 C15.2380007,14.6620018 15.304,15.045998 15.304,15.454 C15.304,16.1260034 15.1600014,16.6869977 14.872,17.137 C14.5839986,17.5870022 14.2120023,17.9499986 13.756,18.226 C13.2999977,18.5020014 12.7870028,18.6999994 12.217,18.82 C11.6469971,18.9400006 11.0800028,19 10.516,19 L5.296,19 L5.296,6.256 Z M8.104,11.35 L10.138,11.35 C10.3540011,11.35 10.566999,11.3260002 10.777,11.278 C10.987001,11.2299998 11.1759992,11.1520005 11.344,11.044 C11.5120008,10.9359995 11.6469995,10.7920009 11.749,10.612 C11.8510005,10.4319991 11.902,10.2160013 11.902,9.964 C11.902,9.69999868 11.8450006,9.48100087 11.731,9.307 C11.6169994,9.13299913 11.4700009,8.99800048 11.29,8.902 C11.1099991,8.80599952 10.9060011,8.73700021 10.678,8.695 C10.4499989,8.65299979 10.2280011,8.632 10.012,8.632 L8.104,8.632 L8.104,11.35 Z M8.104,16.624 L10.624,16.624 C10.8400011,16.624 11.0589989,16.6000002 11.281,16.552 C11.5030011,16.5039998 11.7039991,16.4200006 11.884,16.3 C12.0640009,16.1799994 12.2109994,16.024001 12.325,15.832 C12.4390006,15.639999 12.496,15.4060014 12.496,15.13 C12.496,14.8299985 12.4210008,14.5870009 12.271,14.401 C12.1209993,14.2149991 11.9320011,14.0740005 11.704,13.978 C11.4759989,13.8819995 11.2300013,13.8160002 10.966,13.78 C10.7019987,13.7439998 10.4560011,13.726 10.228,13.726 L8.104,13.726 L8.104,16.624 Z M16.96,6.256 L21.208,6.256 L24.142,14.572 L24.178,14.572 L27.13,6.256 L31.36,6.256 L31.36,19 L28.552,19 L28.552,9.226 L28.516,9.226 L25.168,19 L23.026,19 L19.804,9.226 L19.768,9.226 L19.768,19 L16.96,19 L16.96,6.256 Z M33.952,6.256 L38.686,6.256 C39.3460033,6.256 39.9699971,6.3159994 40.558,6.436 C41.1460029,6.5560006 41.6589978,6.76299853 42.097,7.057 C42.5350022,7.35100147 42.8829987,7.74699751 43.141,8.245 C43.3990013,8.74300249 43.528,9.36999622 43.528,10.126 C43.528,10.8700037 43.4080012,11.4939975 43.168,11.998 C42.9279988,12.5020025 42.5980021,12.9039985 42.178,13.204 C41.7579979,13.5040015 41.2600029,13.7169994 40.684,13.843 C40.1079971,13.9690006 39.4840034,14.032 38.812,14.032 L36.76,14.032 L36.76,19 L33.952,19 L33.952,6.256 Z M36.76,11.656 L38.632,11.656 C38.8840013,11.656 39.1269988,11.6320002 39.361,11.584 C39.5950012,11.5359998 39.8049991,11.4550006 39.991,11.341 C40.1770009,11.2269994 40.3269994,11.071001 40.441,10.873 C40.5550006,10.674999 40.612,10.4260015 40.612,10.126 C40.612,9.80199838 40.5370008,9.54100099 40.387,9.343 C40.2369993,9.14499901 40.0450012,8.99200054 39.811,8.884 C39.5769988,8.77599946 39.3160014,8.70700015 39.028,8.677 C38.7399986,8.64699985 38.4640013,8.632 38.2,8.632 L36.76,8.632 L36.76,11.656 Z"/>
  </g>
</svg>
