<svg xmlns="http://www.w3.org/2000/svg" width="71" height="93" viewBox="0 0 71 93">
  <g fill="none" fill-rule="evenodd">
    <path fill="#1D2F44" d="M3,0 L55.7339131,0 L71,18.640625 L71,90 C71,91.6568542 69.6568542,93 68,93 L3,93 C1.34314575,93 2.02906125e-16,91.6568542 0,90 L0,3 C-2.02906125e-16,1.34314575 1.34314575,3.04359188e-16 3,0 Z"/>
    <path fill="#3A6291" d="M56.1679688,0.083984375 L56.1679688,15.6293945 C56.1679688,17.2862488 57.5111145,18.6293945 59.1679688,18.6293945 L71.0048828,18.6293945 L56.1679688,0.083984375 Z"/>
    <path fill="#7ED321" d="M5,36 L11.786,36 C13.4293416,36 14.9904926,36.1836648 16.4695,36.551 C17.9485074,36.9183352 19.2389945,37.5128292 20.341,38.3345 C21.4430055,39.1561708 22.3178301,40.2243268 22.9655,41.539 C23.6131699,42.8536732 23.937,44.4486573 23.937,46.324 C23.937,47.986675 23.6228365,49.4511603 22.9945,50.7175 C22.3661635,51.9838397 21.5203386,53.0471624 20.457,53.9075 C19.3936614,54.7678376 18.166007,55.4203311 16.774,55.865 C15.381993,56.3096689 13.922341,56.532 12.395,56.532 L5,56.532 L5,36 Z M9.524,52.356 L11.873,52.356 C12.9170052,52.356 13.8884955,52.2496677 14.7875,52.037 C15.6865045,51.8243323 16.4646634,51.4715025 17.122,50.9785 C17.7793366,50.4854975 18.2964981,49.8378373 18.6735,49.0355 C19.0505019,48.2331627 19.239,47.2520058 19.239,46.092 C19.239,45.0866616 19.0505019,44.2118371 18.6735,43.4675 C18.2964981,42.7231629 17.7890032,42.1093357 17.151,41.626 C16.5129968,41.1426642 15.7638376,40.7801679 14.9035,40.5385 C14.0431624,40.2968321 13.1393381,40.176 12.192,40.176 L9.524,40.176 L9.524,52.356 Z M26.953,36 L31.477,36 L31.477,56.532 L26.953,56.532 L26.953,36 Z M35.769,36 L49.544,36 L49.544,40.176 L40.293,40.176 L40.293,44.352 L48.848,44.352 L48.848,48.528 L40.293,48.528 L40.293,56.532 L35.769,56.532 L35.769,36 Z M52.966,36 L66.741,36 L66.741,40.176 L57.49,40.176 L57.49,44.352 L66.045,44.352 L66.045,48.528 L57.49,48.528 L57.49,56.532 L52.966,56.532 L52.966,36 Z"/>
  </g>
</svg>
