<svg xmlns="http://www.w3.org/2000/svg" width="81" height="93" viewBox="0 0 81 93">
  <g fill="none" fill-rule="evenodd">
    <path fill="#E6F2FF" d="M13,0 L65.7339131,0 L81,18.640625 L81,90 C81,91.6568542 79.6568542,93 78,93 L13,93 C11.3431458,93 10,91.6568542 10,90 L10,3 C10,1.34314575 11.3431458,3.04359188e-16 13,0 Z"/>
    <path fill="#AEC3DA" d="M66.1679688,0.083984375 L66.1679688,15.6293945 C66.1679688,17.2862488 67.5111145,18.6293945 69.1679688,18.6293945 L81.0048828,18.6293945 L66.1679688,0.083984375 Z"/>
    <rect width="66" height="32" y="53" fill="#F5A623" rx="3"/>
    <path fill="#040404" d="M16,72.708 C16,72.5306658 16.0326663,72.3626675 16.098,72.204 C16.1633337,72.0453325 16.2543328,71.9076673 16.371,71.791 C16.4876673,71.6743328 16.6253325,71.5833337 16.784,71.518 C16.9426675,71.4526663 17.1106658,71.42 17.288,71.42 C17.4653342,71.42 17.6333325,71.4526663 17.792,71.518 C17.9506675,71.5833337 18.0883328,71.6743328 18.205,71.791 C18.3216673,71.9076673 18.4126663,72.0453325 18.478,72.204 C18.5433337,72.3626675 18.576,72.5306658 18.576,72.708 C18.576,72.8853342 18.5433337,73.0533325 18.478,73.212 C18.4126663,73.3706675 18.3216673,73.5083328 18.205,73.625 C18.0883328,73.7416673 17.9506675,73.8326663 17.792,73.898 C17.6333325,73.9633337 17.4653342,73.996 17.288,73.996 C17.1106658,73.996 16.9426675,73.9633337 16.784,73.898 C16.6253325,73.8326663 16.4876673,73.7416673 16.371,73.625 C16.2543328,73.5083328 16.1633337,73.3706675 16.098,73.212 C16.0326663,73.0533325 16,72.8853342 16,72.708 Z M20.452,64 L27.186,64 L27.186,66.016 L22.636,66.016 L22.636,67.864 L26.934,67.864 L26.934,69.88 L22.636,69.88 L22.636,71.896 L27.438,71.896 L27.438,73.912 L20.452,73.912 L20.452,64 Z M29.188,64 L32.156,64 L36.37,70.888 L36.398,70.888 L36.398,64 L38.582,64 L38.582,73.912 L35.726,73.912 L31.4,66.856 L31.372,66.856 L31.372,73.912 L29.188,73.912 L29.188,64 Z M39.618,64 L42.11,64 L44.56,70.496 L44.588,70.496 L47.08,64 L49.418,64 L45.33,73.912 L43.58,73.912 L39.618,64 Z"/>
  </g>
</svg>
