<svg xmlns="http://www.w3.org/2000/svg" width="81" height="93" viewBox="0 0 81 93">
  <g fill="none" fill-rule="evenodd">
    <path fill="#E6F2FF" d="M13,0 L65.7339131,0 L81,18.640625 L81,90 C81,91.6568542 79.6568542,93 78,93 L13,93 C11.3431458,93 10,91.6568542 10,90 L10,3 C10,1.34314575 11.3431458,3.04359188e-16 13,0 Z"/>
    <path fill="#AEC3DA" d="M66.1679688,0.083984375 L66.1679688,15.6293945 C66.1679688,17.2862488 67.5111145,18.6293945 69.1679688,18.6293945 L81.0048828,18.6293945 L66.1679688,0.083984375 Z"/>
    <rect width="71" height="32" y="53" fill="#F50032" rx="3"/>
    <path fill="#FFF" d="M33.259,75.196 C32.2929952,75.7000025 31.2850052,76.0639989 30.235,76.288 C29.1849947,76.5120011 28.1140055,76.624 27.022,76.624 C25.8599942,76.624 24.7890049,76.4420018 23.809,76.078 C22.8289951,75.7139982 21.9820036,75.1925034 21.268,74.5135 C20.5539964,73.8344966 19.997502,73.0120048 19.5985,72.046 C19.199498,71.0799952 19,70.002006 19,68.812 C19,67.6219941 19.199498,66.5440048 19.5985,65.578 C19.997502,64.6119952 20.5539964,63.7895034 21.268,63.1105 C21.9820036,62.4314966 22.8289951,61.9100018 23.809,61.546 C24.7890049,61.1819982 25.8599942,61 27.022,61 C28.2120059,61 29.307495,61.1434986 30.3085,61.4305 C31.309505,61.7175014 32.1879962,62.2109965 32.944,62.911 L30.634,65.431 C30.1859978,64.9689977 29.6820028,64.6190012 29.122,64.381 C28.5619972,64.1429988 27.8620042,64.024 27.022,64.024 C26.3219965,64.024 25.6885028,64.1429988 25.1215,64.381 C24.5544972,64.6190012 24.068002,64.9514979 23.662,65.3785 C23.255998,65.8055021 22.9445011,66.3129971 22.7275,66.901 C22.5104989,67.4890029 22.402,68.1259966 22.402,68.812 C22.402,69.5120035 22.5104989,70.1524971 22.7275,70.7335 C22.9445011,71.3145029 23.255998,71.8184979 23.662,72.2455 C24.068002,72.6725021 24.5544972,73.0049988 25.1215,73.243 C25.6885028,73.4810012 26.3219965,73.6 27.022,73.6 C27.7360036,73.6 28.3519974,73.5195008 28.87,73.3585 C29.3880026,73.1974992 29.8009985,73.0330008 30.109,72.865 L30.109,70.45 L27.442,70.45 L27.442,67.426 L33.259,67.426 L33.259,75.196 Z M36.094,61.378 L39.37,61.378 L39.37,76.246 L36.094,76.246 L36.094,61.378 Z M45.229,64.276 L40.987,64.276 L40.987,61.378 L52.747,61.378 L52.747,64.276 L48.505,64.276 L48.505,76.246 L45.229,76.246 L45.229,64.276 Z"/>
  </g>
</svg>
