<svg xmlns="http://www.w3.org/2000/svg" width="81" height="93" viewBox="0 0 81 93">
  <g fill="none" fill-rule="evenodd">
    <path fill="#E6F2FF" d="M13,0 L65.7339131,0 L81,18.640625 L81,90 C81,91.6568542 79.6568542,93 78,93 L13,93 C11.3431458,93 10,91.6568542 10,90 L10,3 C10,1.34314575 11.3431458,3.04359188e-16 13,0 Z"/>
    <path fill="#AEC3DA" d="M66.1679688,0.083984375 L66.1679688,15.6293945 C66.1679688,17.2862488 67.5111145,18.6293945 69.1679688,18.6293945 L81.0048828,18.6293945 L66.1679688,0.083984375 Z"/>
    <rect width="71" height="32" y="53" fill="#F50032" rx="3"/>
    <path fill="#FFF" d="M4,72.2753623 C4,72.0917865 4.03292148,71.9178752 4.09876543,71.7536232 C4.16460938,71.5893712 4.25631922,71.4468605 4.37389771,71.326087 C4.49147619,71.2053134 4.63021672,71.1111114 4.79012346,71.0434783 C4.95003019,70.9758451 5.11934067,70.942029 5.29805996,70.942029 C5.47677926,70.942029 5.64608974,70.9758451 5.80599647,71.0434783 C5.96590321,71.1111114 6.10464374,71.2053134 6.22222222,71.326087 C6.33980071,71.4468605 6.43151055,71.5893712 6.4973545,71.7536232 C6.56319845,71.9178752 6.59611993,72.0917865 6.59611993,72.2753623 C6.59611993,72.4589381 6.56319845,72.6328494 6.4973545,72.7971014 C6.43151055,72.9613535 6.33980071,73.1038641 6.22222222,73.2246377 C6.10464374,73.3454112 5.96590321,73.4396132 5.80599647,73.5072464 C5.64608974,73.5748796 5.47677926,73.6086957 5.29805996,73.6086957 C5.11934067,73.6086957 4.95003019,73.5748796 4.79012346,73.5072464 C4.63021672,73.4396132 4.49147619,73.3454112 4.37389771,73.2246377 C4.25631922,73.1038641 4.16460938,72.9613535 4.09876543,72.7971014 C4.03292148,72.6328494 4,72.4589381 4,72.2753623 Z M15.329806,72.9275362 C15.329806,74.2608762 15.0029427,75.2729434 14.3492063,75.9637681 C13.69547,76.6545928 12.7007709,77 11.3650794,77 C10.7536713,77 10.1516784,76.9299524 9.55908289,76.7898551 C8.96648734,76.6497578 8.42093136,76.3768136 7.92239859,75.9710145 L9.09347443,74.173913 C9.42269418,74.4541077 9.76836974,74.6763277 10.1305115,74.8405797 C10.4926532,75.0048317 10.8900625,75.0869565 11.3227513,75.0869565 C11.9717846,75.0869565 12.449146,74.9251224 12.7548501,74.6014493 C13.0605541,74.2777762 13.2134039,73.8647368 13.2134039,73.3623188 L13.2134039,72.6811594 L13.1851852,72.6811594 C12.9406219,73.0193254 12.637274,73.2584534 12.2751323,73.3985507 C11.9129905,73.538648 11.5720181,73.6086957 11.2522046,73.6086957 C10.7442655,73.6086957 10.2833648,73.5193246 9.86948854,73.3405797 C9.45561228,73.1618349 9.10053058,72.9106296 8.8042328,72.5869565 C8.50793503,72.2632834 8.27983619,71.8792293 8.11992945,71.4347826 C7.96002272,70.9903359 7.88007055,70.5024181 7.88007055,69.9710145 C7.88007055,69.5072441 7.95296811,69.0531423 8.09876543,68.6086957 C8.24456275,68.164249 8.45149778,67.7729486 8.71957672,67.4347826 C8.98765566,67.0966167 9.31451894,66.8236725 9.70017637,66.615942 C10.0858338,66.4082115 10.5232192,66.3043478 11.0123457,66.3043478 C11.3133466,66.3043478 11.5884761,66.3381639 11.8377425,66.4057971 C12.0870089,66.4734303 12.3104047,66.5603859 12.5079365,66.6666667 C12.7054684,66.7729474 12.8747788,66.8913037 13.015873,67.0217391 C13.1569672,67.1521746 13.2698408,67.2801926 13.3544974,67.4057971 L13.382716,67.4057971 L13.382716,66.4782609 L15.329806,66.4782609 L15.329806,72.9275362 Z M9.99647266,69.9565217 C9.99647266,70.188407 10.0388003,70.4082115 10.1234568,70.615942 C10.2081133,70.8236725 10.3280416,71.0072456 10.4832451,71.1666667 C10.6384487,71.3260878 10.8171654,71.4541058 11.0194004,71.5507246 C11.2216353,71.6473435 11.4450311,71.6956522 11.6895944,71.6956522 C11.9247513,71.6956522 12.1457956,71.6473435 12.3527337,71.5507246 C12.5596718,71.4541058 12.74074,71.3260878 12.8959436,71.1666667 C13.0511472,71.0072456 13.1710754,70.8236725 13.2557319,70.615942 C13.3403884,70.4082115 13.382716,70.188407 13.382716,69.9565217 C13.382716,69.7246365 13.3403884,69.504832 13.2557319,69.2971014 C13.1710754,69.0893709 13.0511472,68.9057979 12.8959436,68.7463768 C12.74074,68.5869557 12.5596718,68.4589377 12.3527337,68.3623188 C12.1457956,68.2657 11.9247513,68.2173913 11.6895944,68.2173913 C11.4450311,68.2173913 11.2216353,68.2657 11.0194004,68.3623188 C10.8171654,68.4589377 10.6384487,68.5869557 10.4832451,68.7463768 C10.3280416,68.9057979 10.2081133,69.0893709 10.1234568,69.2971014 C10.0388003,69.504832 9.99647266,69.7246365 9.99647266,69.9565217 Z M17.0511464,66.4782609 L19.1675485,66.4782609 L19.1675485,73.5217391 L17.0511464,73.5217391 L17.0511464,66.4782609 Z M16.8818342,64.2608696 C16.8818342,63.9130417 17.0017625,63.6159433 17.2416226,63.3695652 C17.4814827,63.1231872 17.7707214,63 18.1093474,63 C18.4479735,63 18.7372122,63.1231872 18.9770723,63.3695652 C19.2169324,63.6159433 19.3368607,63.9130417 19.3368607,64.2608696 C19.3368607,64.6086974 19.2169324,64.9057959 18.9770723,65.1521739 C18.7372122,65.398552 18.4479735,65.5217391 18.1093474,65.5217391 C17.7707214,65.5217391 17.4814827,65.398552 17.2416226,65.1521739 C17.0017625,64.9057959 16.8818342,64.6086974 16.8818342,64.2608696 Z M25.361552,68.2173913 L23.4991182,68.2173913 L23.4991182,70.5652174 C23.4991182,70.7584551 23.5085243,70.9347818 23.5273369,71.0942029 C23.5461494,71.253624 23.588477,71.3913038 23.654321,71.5072464 C23.7201649,71.623189 23.8212809,71.7125601 23.957672,71.7753623 C24.094063,71.8381646 24.2751311,71.8695652 24.5008818,71.8695652 C24.6137572,71.8695652 24.7619038,71.857488 24.9453263,71.8333333 C25.1287487,71.8091786 25.2674892,71.7536236 25.361552,71.6666667 L25.361552,73.4782609 C25.1263951,73.5652178 24.8818355,73.6231883 24.627866,73.6521739 C24.3738964,73.6811596 24.1246338,73.6956522 23.8800705,73.6956522 C23.522632,73.6956522 23.1934171,73.6570052 22.8924162,73.5797101 C22.5914153,73.5024151 22.3280435,73.3792279 22.1022928,73.2101449 C21.8765421,73.041062 21.700177,72.8212574 21.5731922,72.5507246 C21.4462075,72.2801919 21.382716,71.9516928 21.382716,71.5652174 L21.382716,68.2173913 L20.0282187,68.2173913 L20.0282187,66.4782609 L21.382716,66.4782609 L21.382716,64.3913043 L23.4991182,64.3913043 L23.4991182,66.4782609 L25.361552,66.4782609 L25.361552,68.2173913 Z M26.4620811,66.4782609 L28.5784832,66.4782609 L28.5784832,73.5217391 L26.4620811,73.5217391 L26.4620811,66.4782609 Z M26.292769,64.2608696 C26.292769,63.9130417 26.4126972,63.6159433 26.6525573,63.3695652 C26.8924174,63.1231872 27.1816562,63 27.5202822,63 C27.8589082,63 28.1481469,63.1231872 28.3880071,63.3695652 C28.6278672,63.6159433 28.7477954,63.9130417 28.7477954,64.2608696 C28.7477954,64.6086974 28.6278672,64.9057959 28.3880071,65.1521739 C28.1481469,65.398552 27.8589082,65.5217391 27.5202822,65.5217391 C27.1816562,65.5217391 26.8924174,65.398552 26.6525573,65.1521739 C26.4126972,64.9057959 26.292769,64.6086974 26.292769,64.2608696 Z M37.29806,72.9275362 C37.29806,74.2608762 36.9711967,75.2729434 36.3174603,75.9637681 C35.663724,76.6545928 34.6690249,77 33.3333333,77 C32.7219252,77 32.1199324,76.9299524 31.5273369,76.7898551 C30.9347413,76.6497578 30.3891853,76.3768136 29.8906526,75.9710145 L31.0617284,74.173913 C31.3909481,74.4541077 31.7366237,74.6763277 32.0987654,74.8405797 C32.4609072,75.0048317 32.8583165,75.0869565 33.2910053,75.0869565 C33.9400385,75.0869565 34.4174,74.9251224 34.7231041,74.6014493 C35.0288081,74.2777762 35.1816578,73.8647368 35.1816578,73.3623188 L35.1816578,72.6811594 L35.1534392,72.6811594 C34.9088759,73.0193254 34.605528,73.2584534 34.2433862,73.3985507 C33.8812445,73.538648 33.540272,73.6086957 33.2204586,73.6086957 C32.7125195,73.6086957 32.2516188,73.5193246 31.8377425,73.3405797 C31.4238662,73.1618349 31.0687846,72.9106296 30.7724868,72.5869565 C30.476189,72.2632834 30.2480902,71.8792293 30.0881834,71.4347826 C29.9282767,70.9903359 29.8483245,70.5024181 29.8483245,69.9710145 C29.8483245,69.5072441 29.9212221,69.0531423 30.0670194,68.6086957 C30.2128167,68.164249 30.4197517,67.7729486 30.6878307,67.4347826 C30.9559096,67.0966167 31.2827729,66.8236725 31.6684303,66.615942 C32.0540878,66.4082115 32.4914732,66.3043478 32.9805996,66.3043478 C33.2816006,66.3043478 33.5567301,66.3381639 33.8059965,66.4057971 C34.0552629,66.4734303 34.2786586,66.5603859 34.4761905,66.6666667 C34.6737223,66.7729474 34.8430328,66.8913037 34.984127,67.0217391 C35.1252212,67.1521746 35.2380948,67.2801926 35.3227513,67.4057971 L35.35097,67.4057971 L35.35097,66.4782609 L37.29806,66.4782609 L37.29806,72.9275362 Z M31.9647266,69.9565217 C31.9647266,70.188407 32.0070543,70.4082115 32.0917108,70.615942 C32.1763673,70.8236725 32.2962955,71.0072456 32.4514991,71.1666667 C32.6067027,71.3260878 32.7854193,71.4541058 32.9876543,71.5507246 C33.1898893,71.6473435 33.4132851,71.6956522 33.6578483,71.6956522 C33.8930053,71.6956522 34.1140495,71.6473435 34.3209877,71.5507246 C34.5279258,71.4541058 34.7089939,71.3260878 34.8641975,71.1666667 C35.0194011,71.0072456 35.1393294,70.8236725 35.2239859,70.615942 C35.3086424,70.4082115 35.35097,70.188407 35.35097,69.9565217 C35.35097,69.7246365 35.3086424,69.504832 35.2239859,69.2971014 C35.1393294,69.0893709 35.0194011,68.9057979 34.8641975,68.7463768 C34.7089939,68.5869557 34.5279258,68.4589377 34.3209877,68.3623188 C34.1140495,68.2657 33.8930053,68.2173913 33.6578483,68.2173913 C33.4132851,68.2173913 33.1898893,68.2657 32.9876543,68.3623188 C32.7854193,68.4589377 32.6067027,68.5869557 32.4514991,68.7463768 C32.2962955,68.9057979 32.1763673,69.0893709 32.0917108,69.2971014 C32.0070543,69.504832 31.9647266,69.7246365 31.9647266,69.9565217 Z M38.9911817,66.4782609 L41.0229277,66.4782609 L41.0229277,67.4347826 L41.0511464,67.4347826 C41.1169903,67.2995162 41.2110517,67.1642519 41.3333333,67.0289855 C41.455615,66.8937191 41.6014101,66.7729474 41.7707231,66.6666667 C41.9400361,66.5603859 42.1328619,66.4734303 42.3492063,66.4057971 C42.5655508,66.3381639 42.8007042,66.3043478 43.0546737,66.3043478 C43.5908316,66.3043478 44.0235139,66.388888 44.3527337,66.557971 C44.6819534,66.727054 44.9382707,66.9613512 45.1216931,67.2608696 C45.3051156,67.560388 45.4297469,67.9130414 45.4955908,68.3188406 C45.5614348,68.7246397 45.5943563,69.1642488 45.5943563,69.6376812 L45.5943563,73.5217391 L43.4779541,73.5217391 L43.4779541,70.0724638 C43.4779541,69.8695642 43.4708995,69.6594214 43.4567901,69.442029 C43.4426807,69.2246366 43.4003531,69.0241555 43.329806,68.8405797 C43.2592589,68.6570039 43.1510883,68.507247 43.005291,68.3913043 C42.8594937,68.2753617 42.6502071,68.2173913 42.377425,68.2173913 C42.104643,68.2173913 41.8835987,68.2681154 41.7142857,68.3695652 C41.5449727,68.471015 41.4156383,68.6062793 41.3262787,68.7753623 C41.236919,68.9444453 41.1781307,69.1352646 41.1499118,69.3478261 C41.121693,69.5603875 41.1075838,69.7826075 41.1075838,70.0144928 L41.1075838,73.5217391 L38.9911817,73.5217391 L38.9911817,66.4782609 Z M46.8359788,70 C46.8359788,69.4396107 46.9347433,68.9323694 47.1322751,68.4782609 C47.329807,68.0241523 47.6002334,67.6352673 47.9435626,67.3115942 C48.2868918,66.9879211 48.6913557,66.7391313 49.1569665,66.5652174 C49.6225773,66.3913035 50.118751,66.3043478 50.6455026,66.3043478 C51.1722543,66.3043478 51.668428,66.3913035 52.1340388,66.5652174 C52.5996496,66.7391313 53.0041135,66.9879211 53.3474427,67.3115942 C53.6907719,67.6352673 53.9611983,68.0241523 54.1587302,68.4782609 C54.356262,68.9323694 54.4550265,69.4396107 54.4550265,70 C54.4550265,70.5603893 54.356262,71.0676306 54.1587302,71.5217391 C53.9611983,71.9758477 53.6907719,72.3647327 53.3474427,72.6884058 C53.0041135,73.0120789 52.5996496,73.2608687 52.1340388,73.4347826 C51.668428,73.6086965 51.1722543,73.6956522 50.6455026,73.6956522 C50.118751,73.6956522 49.6225773,73.6086965 49.1569665,73.4347826 C48.6913557,73.2608687 48.2868918,73.0120789 47.9435626,72.6884058 C47.6002334,72.3647327 47.329807,71.9758477 47.1322751,71.5217391 C46.9347433,71.0676306 46.8359788,70.5603893 46.8359788,70 Z M48.952381,70 C48.952381,70.5314036 49.1005276,70.961351 49.3968254,71.2898551 C49.6931232,71.6183591 50.1093448,71.7826087 50.6455026,71.7826087 C51.1816605,71.7826087 51.5978821,71.6183591 51.8941799,71.2898551 C52.1904777,70.961351 52.3386243,70.5314036 52.3386243,70 C52.3386243,69.4685964 52.1904777,69.038649 51.8941799,68.7101449 C51.5978821,68.3816409 51.1816605,68.2173913 50.6455026,68.2173913 C50.1093448,68.2173913 49.6931232,68.3816409 49.3968254,68.7101449 C49.1005276,69.038649 48.952381,69.4685964 48.952381,70 Z M55.696649,66.4782609 L57.8130511,66.4782609 L57.8130511,67.6086957 L57.8412698,67.6086957 C58.0670205,67.1739109 58.3350954,66.8478272 58.6455026,66.6304348 C58.9559098,66.4130424 59.3462646,66.3043478 59.8165785,66.3043478 C59.9388601,66.3043478 60.0611399,66.3091787 60.1834215,66.3188406 C60.3057031,66.3285025 60.4185768,66.3478259 60.5220459,66.3768116 L60.5220459,68.3623188 C60.3715454,68.3140094 60.2233987,68.2777779 60.0776014,68.2536232 C59.9318041,68.2294685 59.7789544,68.2173913 59.6190476,68.2173913 C59.2145776,68.2173913 58.894769,68.2753617 58.659612,68.3913043 C58.424455,68.507247 58.2433869,68.6690811 58.1164021,68.8768116 C57.9894174,69.0845421 57.9071137,69.3333319 57.8694885,69.6231884 C57.8318634,69.9130449 57.8130511,70.2318823 57.8130511,70.5797101 L57.8130511,73.5217391 L55.696649,73.5217391 L55.696649,66.4782609 Z M67.675485,72.3043478 C67.336859,72.7487945 66.9088797,73.0917862 66.3915344,73.3333333 C65.8741891,73.5748804 65.3380392,73.6956522 64.7830688,73.6956522 C64.2563172,73.6956522 63.7601434,73.6086965 63.2945326,73.4347826 C62.8289218,73.2608687 62.4244579,73.0120789 62.0811287,72.6884058 C61.7377996,72.3647327 61.4673731,71.9758477 61.2698413,71.5217391 C61.0723094,71.0676306 60.973545,70.5603893 60.973545,70 C60.973545,69.4396107 61.0723094,68.9323694 61.2698413,68.4782609 C61.4673731,68.0241523 61.7377996,67.6352673 62.0811287,67.3115942 C62.4244579,66.9879211 62.8289218,66.7391313 63.2945326,66.5652174 C63.7601434,66.3913035 64.2563172,66.3043478 64.7830688,66.3043478 C65.2721953,66.3043478 65.7166353,66.3913035 66.1164021,66.5652174 C66.516169,66.7391313 66.8547899,66.9879211 67.1322751,67.3115942 C67.4097604,67.6352673 67.62375,68.0241523 67.7742504,68.4782609 C67.9247509,68.9323694 68,69.4396107 68,70 L68,70.6811594 L63.0899471,70.6811594 C63.1746036,71.0966204 63.3580233,71.427535 63.6402116,71.673913 C63.9224,71.9202911 64.2704271,72.0434783 64.6843034,72.0434783 C65.0323357,72.0434783 65.3262775,71.9637689 65.5661376,71.8043478 C65.8059977,71.6449267 66.0152842,71.4396148 66.1940035,71.1884058 L67.675485,72.3043478 Z M65.8835979,69.2028986 C65.8930042,68.835747 65.7754274,68.5217404 65.5308642,68.2608696 C65.286301,67.9999987 64.9711953,67.8695652 64.5855379,67.8695652 C64.350381,67.8695652 64.1434459,67.9082122 63.9647266,67.9855072 C63.7860073,68.0628023 63.6331576,68.1618351 63.5061728,68.2826087 C63.3791881,68.4033822 63.2804236,68.5434775 63.2098765,68.7028986 C63.1393295,68.8623196 63.0993534,69.0289846 63.0899471,69.2028986 L65.8835979,69.2028986 Z"/>
  </g>
</svg>
