<svg xmlns="http://www.w3.org/2000/svg" width="81" height="93" viewBox="0 0 81 93">
  <g fill="none" fill-rule="evenodd">
    <path fill="#E6F2FF" d="M13,0 L65.7339131,0 L81,18.640625 L81,90 C81,91.6568542 79.6568542,93 78,93 L13,93 C11.3431458,93 10,91.6568542 10,90 L10,3 C10,1.34314575 11.3431458,3.04359188e-16 13,0 Z"/>
    <path fill="#AEC3DA" d="M66.1679688,0.083984375 L66.1679688,15.6293945 C66.1679688,17.2862488 67.5111145,18.6293945 69.1679688,18.6293945 L81.0048828,18.6293945 L66.1679688,0.083984375 Z"/>
    <rect width="66" height="32" y="53" fill="#33D5E0" rx="3"/>
    <path fill="#FFF" d="M25,74.4 C25,74.1466654 25.0466662,73.9066678 25.14,73.68 C25.2333338,73.4533322 25.3633325,73.2566675 25.53,73.09 C25.6966675,72.9233325 25.8933322,72.7933338 26.12,72.7 C26.3466678,72.6066662 26.5866654,72.56 26.84,72.56 C27.0933346,72.56 27.3333322,72.6066662 27.56,72.7 C27.7866678,72.7933338 27.9833325,72.9233325 28.15,73.09 C28.3166675,73.2566675 28.4466662,73.4533322 28.54,73.68 C28.6333338,73.9066678 28.68,74.1466654 28.68,74.4 C28.68,74.6533346 28.6333338,74.8933322 28.54,75.12 C28.4466662,75.3466678 28.3166675,75.5433325 28.15,75.71 C27.9833325,75.8766675 27.7866678,76.0066662 27.56,76.1 C27.3333322,76.1933338 27.0933346,76.24 26.84,76.24 C26.5866654,76.24 26.3466678,76.1933338 26.12,76.1 C25.8933322,76.0066662 25.6966675,75.8766675 25.53,75.71 C25.3633325,75.5433325 25.2333338,75.3466678 25.14,75.12 C25.0466662,74.8933322 25,74.6533346 25,74.4 Z M33.86,61 L33.86,67.72 L33.9,67.72 C33.966667,67.5333324 34.0799992,67.3466676 34.24,67.16 C34.4000008,66.9733324 34.5933322,66.8066674 34.82,66.66 C35.0466678,66.5133326 35.3133318,66.3933338 35.62,66.3 C35.9266682,66.2066662 36.2599982,66.16 36.62,66.16 C37.3800038,66.16 37.993331,66.2766655 38.46,66.51 C38.926669,66.7433345 39.2899987,67.0666646 39.55,67.48 C39.8100013,67.8933354 39.9866662,68.3799972 40.08,68.94 C40.1733338,69.5000028 40.22,70.1066634 40.22,70.76 L40.22,76.12 L37.22,76.12 L37.22,71.36 C37.22,71.0799986 37.2100001,70.7900015 37.19,70.49 C37.1699999,70.1899985 37.1100005,69.9133346 37.01,69.66 C36.9099995,69.4066654 36.7566677,69.2000008 36.55,69.04 C36.3433323,68.8799992 36.0466686,68.8 35.66,68.8 C35.2733314,68.8 34.9600012,68.8699993 34.72,69.01 C34.4799988,69.1500007 34.2966673,69.3366655 34.17,69.57 C34.0433327,69.8033345 33.9600002,70.0666652 33.92,70.36 C33.8799998,70.6533348 33.86,70.9599984 33.86,71.28 L33.86,76.12 L30.86,76.12 L30.86,61 L33.86,61 Z"/>
  </g>
</svg>
