<svg xmlns="http://www.w3.org/2000/svg" width="71" height="93" viewBox="0 0 71 93">
  <g fill="none" fill-rule="evenodd">
    <path fill="#1D2F44" d="M3,0 L55.7339131,0 L71,18.640625 L71,90 C71,91.6568542 69.6568542,93 68,93 L3,93 C1.34314575,93 2.02906125e-16,91.6568542 0,90 L0,3 C-2.02906125e-16,1.34314575 1.34314575,3.04359188e-16 3,0 Z"/>
    <path fill="#3A6291" d="M56.1679688,0.083984375 L56.1679688,15.6293945 C56.1679688,17.2862488 57.5111145,18.6293945 59.1679688,18.6293945 L71.0048828,18.6293945 L56.1679688,0.083984375 Z"/>
    <path fill="#42C0A4" d="M8,35.576 L12.992,35.576 L12.992,58.232 L8,58.232 L8,35.576 Z M32.352,41.464 C31.8613309,40.8666637 31.2586702,40.4080016 30.544,40.088 C29.8293298,39.7679984 29.0026714,39.608 28.064,39.608 C27.1253286,39.608 26.256004,39.7893315 25.456,40.152 C24.655996,40.5146685 23.9626696,41.0213301 23.376,41.672 C22.7893304,42.3226699 22.3306683,43.0959955 22,43.992 C21.6693317,44.8880045 21.504,45.8586614 21.504,46.904 C21.504,47.970672 21.6693317,48.9466622 22,49.832 C22.3306683,50.7173378 22.7839971,51.4853301 23.36,52.136 C23.9360029,52.7866699 24.6133294,53.2933315 25.392,53.656 C26.1706706,54.0186685 27.0079955,54.2 27.904,54.2 C28.9280051,54.2 29.8346627,53.9866688 30.624,53.56 C31.4133373,53.1333312 32.0639974,52.5360038 32.576,51.768 L36.736,54.872 C35.7759952,56.2160067 34.5600074,57.2079968 33.088,57.848 C31.6159926,58.4880032 30.1013411,58.808 28.544,58.808 C26.7733245,58.808 25.1413408,58.5306694 23.648,57.976 C22.1546592,57.4213306 20.8640054,56.6266718 19.776,55.592 C18.6879946,54.5573282 17.840003,53.3040074 17.232,51.832 C16.623997,50.3599926 16.32,48.7173424 16.32,46.904 C16.32,45.0906576 16.623997,43.4480074 17.232,41.976 C17.840003,40.5039926 18.6879946,39.2506718 19.776,38.216 C20.8640054,37.1813282 22.1546592,36.3866694 23.648,35.832 C25.1413408,35.2773306 26.7733245,35 28.544,35 C29.1840032,35 29.8506632,35.0586661 30.544,35.176 C31.2373368,35.2933339 31.9199966,35.4799987 32.592,35.736 C33.2640034,35.9920013 33.9093302,36.3333312 34.528,36.76 C35.1466698,37.1866688 35.7013309,37.7093302 36.192,38.328 L32.352,41.464 Z M38.24,46.904 C38.24,45.0906576 38.543997,43.4480074 39.152,41.976 C39.760003,40.5039926 40.6079946,39.2506718 41.696,38.216 C42.7840054,37.1813282 44.0746592,36.3866694 45.568,35.832 C47.0613408,35.2773306 48.6933245,35 50.464,35 C52.2346755,35 53.8666592,35.2773306 55.36,35.832 C56.8533408,36.3866694 58.1439946,37.1813282 59.232,38.216 C60.3200054,39.2506718 61.167997,40.5039926 61.776,41.976 C62.384003,43.4480074 62.688,45.0906576 62.688,46.904 C62.688,48.7173424 62.384003,50.3599926 61.776,51.832 C61.167997,53.3040074 60.3200054,54.5573282 59.232,55.592 C58.1439946,56.6266718 56.8533408,57.4213306 55.36,57.976 C53.8666592,58.5306694 52.2346755,58.808 50.464,58.808 C48.6933245,58.808 47.0613408,58.5306694 45.568,57.976 C44.0746592,57.4213306 42.7840054,56.6266718 41.696,55.592 C40.6079946,54.5573282 39.760003,53.3040074 39.152,51.832 C38.543997,50.3599926 38.24,48.7173424 38.24,46.904 Z M43.424,46.904 C43.424,47.970672 43.5893317,48.9466622 43.92,49.832 C44.2506683,50.7173378 44.7253302,51.4853301 45.344,52.136 C45.9626698,52.7866699 46.7039957,53.2933315 47.568,53.656 C48.4320043,54.0186685 49.397328,54.2 50.464,54.2 C51.530672,54.2 52.4959957,54.0186685 53.36,53.656 C54.2240043,53.2933315 54.9653302,52.7866699 55.584,52.136 C56.2026698,51.4853301 56.6773317,50.7173378 57.008,49.832 C57.3386683,48.9466622 57.504,47.970672 57.504,46.904 C57.504,45.8586614 57.3386683,44.8880045 57.008,43.992 C56.6773317,43.0959955 56.2026698,42.3226699 55.584,41.672 C54.9653302,41.0213301 54.2240043,40.5146685 53.36,40.152 C52.4959957,39.7893315 51.530672,39.608 50.464,39.608 C49.397328,39.608 48.4320043,39.7893315 47.568,40.152 C46.7039957,40.5146685 45.9626698,41.0213301 45.344,41.672 C44.7253302,42.3226699 44.2506683,43.0959955 43.92,43.992 C43.5893317,44.8880045 43.424,45.8586614 43.424,46.904 Z"/>
  </g>
</svg>
