<svg xmlns="http://www.w3.org/2000/svg" width="81" height="93" viewBox="0 0 81 93">
  <g fill="none" fill-rule="evenodd">
    <path fill="#E6F2FF" d="M13,0 L65.7339131,0 L81,18.640625 L81,90 C81,91.6568542 79.6568542,93 78,93 L13,93 C11.3431458,93 10,91.6568542 10,90 L10,3 C10,1.34314575 11.3431458,3.04359188e-16 13,0 Z"/>
    <path fill="#AEC3DA" d="M66.1679688,0.083984375 L66.1679688,15.6293945 C66.1679688,17.2862488 67.5111145,18.6293945 69.1679688,18.6293945 L81.0048828,18.6293945 L66.1679688,0.083984375 Z"/>
    <rect width="71" height="32" y="53" fill="#D4D4D4" rx="3"/>
    <path fill="#656565" d="M7.092,64.088 L9.276,64.088 L9.276,71.984 L13.322,71.984 L13.322,74 L7.092,74 L7.092,64.088 Z M14.498,64.088 L16.682,64.088 L16.682,74 L14.498,74 L14.498,64.088 Z M25.152,66.664 C24.9373323,66.4026654 24.6736682,66.2020007 24.361,66.062 C24.0483318,65.9219993 23.6866687,65.852 23.276,65.852 C22.8653313,65.852 22.4850018,65.9313325 22.135,66.09 C21.7849983,66.2486675 21.481668,66.4703319 21.225,66.755 C20.9683321,67.0396681 20.7676674,67.377998 20.623,67.77 C20.4783326,68.162002 20.406,68.5866644 20.406,69.044 C20.406,69.510669 20.4783326,69.9376647 20.623,70.325 C20.7676674,70.7123353 20.9659987,71.0483319 21.218,71.333 C21.4700013,71.6176681 21.7663316,71.8393325 22.107,71.998 C22.4476684,72.1566675 22.813998,72.236 23.206,72.236 C23.6540022,72.236 24.0506649,72.1426676 24.396,71.956 C24.7413351,71.7693324 25.0259989,71.5080017 25.25,71.172 L27.07,72.53 C26.6499979,73.1180029 26.1180032,73.5519986 25.474,73.832 C24.8299968,74.1120014 24.1673367,74.252 23.486,74.252 C22.7113295,74.252 21.9973366,74.1306679 21.344,73.888 C20.6906634,73.6453321 20.1260024,73.2976689 19.65,72.845 C19.1739976,72.3923311 18.8030013,71.8440032 18.537,71.2 C18.2709987,70.5559968 18.138,69.8373373 18.138,69.044 C18.138,68.2506627 18.2709987,67.5320032 18.537,66.888 C18.8030013,66.2439968 19.1739976,65.6956689 19.65,65.243 C20.1260024,64.7903311 20.6906634,64.4426679 21.344,64.2 C21.9973366,63.9573321 22.7113295,63.836 23.486,63.836 C23.7660014,63.836 24.0576652,63.8616664 24.361,63.913 C24.6643349,63.9643336 24.9629985,64.0459994 25.257,64.158 C25.5510015,64.2700006 25.833332,64.4193324 26.104,64.606 C26.374668,64.7926676 26.6173323,65.021332 26.832,65.292 L25.152,66.664 Z M28.344,64.088 L35.078,64.088 L35.078,66.104 L30.528,66.104 L30.528,67.952 L34.826,67.952 L34.826,69.968 L30.528,69.968 L30.528,71.984 L35.33,71.984 L35.33,74 L28.344,74 L28.344,64.088 Z M37.08,64.088 L40.048,64.088 L44.262,70.976 L44.29,70.976 L44.29,64.088 L46.474,64.088 L46.474,74 L43.618,74 L39.292,66.944 L39.264,66.944 L39.264,74 L37.08,74 L37.08,64.088 Z M53.39,66.51 C53.2126658,66.2859989 52.9723349,66.1203339 52.669,66.013 C52.3656652,65.9056661 52.078668,65.852 51.808,65.852 C51.6493325,65.852 51.4860008,65.8706665 51.318,65.908 C51.1499992,65.9453335 50.9913341,66.0036663 50.842,66.083 C50.6926659,66.1623337 50.5713338,66.2673327 50.478,66.398 C50.3846662,66.5286673 50.338,66.6873324 50.338,66.874 C50.338,67.1726682 50.4499989,67.4013325 50.674,67.56 C50.8980011,67.7186675 51.1803316,67.8539994 51.521,67.966 C51.8616684,68.0780006 52.227998,68.1899994 52.62,68.302 C53.012002,68.4140006 53.3783316,68.5726656 53.719,68.778 C54.0596684,68.9833344 54.3419989,69.2586649 54.566,69.604 C54.7900011,69.9493351 54.902,70.4113304 54.902,70.99 C54.902,71.5406694 54.7993344,72.0213313 54.594,72.432 C54.3886656,72.8426687 54.1110018,73.183332 53.761,73.454 C53.4109983,73.724668 53.0050023,73.9253327 52.543,74.056 C52.0809977,74.1866673 51.5933359,74.252 51.08,74.252 C50.4359968,74.252 49.8386694,74.154001 49.288,73.958 C48.7373306,73.761999 48.2240024,73.4446689 47.748,73.006 L49.302,71.298 C49.5260011,71.5966682 49.8083316,71.8276658 50.149,71.991 C50.4896684,72.1543342 50.8419982,72.236 51.206,72.236 C51.3833342,72.236 51.5629991,72.2150002 51.745,72.173 C51.9270009,72.1309998 52.0903326,72.0680004 52.235,71.984 C52.3796674,71.8999996 52.4963329,71.7926673 52.585,71.662 C52.6736671,71.5313327 52.718,71.3773342 52.718,71.2 C52.718,70.9013318 52.6036678,70.6656675 52.375,70.493 C52.1463322,70.3203325 51.8593351,70.1733339 51.514,70.052 C51.1686649,69.9306661 50.7953353,69.8093339 50.394,69.688 C49.9926647,69.5666661 49.6193351,69.4033344 49.274,69.198 C48.9286649,68.9926656 48.6416678,68.7220017 48.413,68.386 C48.1843322,68.0499983 48.07,67.6066694 48.07,67.056 C48.07,66.5239973 48.174999,66.0573353 48.385,65.656 C48.5950011,65.2546647 48.8749983,64.918668 49.225,64.648 C49.5750018,64.377332 49.9786644,64.174334 50.436,64.039 C50.8933356,63.903666 51.3646642,63.836 51.85,63.836 C52.4100028,63.836 52.9513307,63.9153325 53.474,64.074 C53.9966693,64.2326675 54.4679979,64.4986648 54.888,64.872 L53.39,66.51 Z M56.61,64.088 L63.344,64.088 L63.344,66.104 L58.794,66.104 L58.794,67.952 L63.092,67.952 L63.092,69.968 L58.794,69.968 L58.794,71.984 L63.596,71.984 L63.596,74 L56.61,74 L56.61,64.088 Z"/>
  </g>
</svg>
