<svg xmlns="http://www.w3.org/2000/svg" width="81" height="93" viewBox="0 0 81 93">
  <g fill="none" fill-rule="evenodd">
    <path fill="#E6F2FF" d="M13,0 L65.7339131,0 L81,18.640625 L81,90 C81,91.6568542 79.6568542,93 78,93 L13,93 C11.3431458,93 10,91.6568542 10,90 L10,3 C10,1.34314575 11.3431458,3.04359188e-16 13,0 Z"/>
    <path fill="#AEC3DA" d="M66.1679688,0.083984375 L66.1679688,15.6293945 C66.1679688,17.2862488 67.5111145,18.6293945 69.1679688,18.6293945 L81.0048828,18.6293945 L66.1679688,0.083984375 Z"/>
    <rect width="71" height="32" y="53" fill="#0084DC" rx="3"/>
    <path fill="#2E2E2E" d="M8,72.96 C8,72.7826658 8.03266634,72.6146675 8.098,72.456 C8.16333366,72.2973325 8.25433275,72.1596672 8.371,72.043 C8.48766725,71.9263328 8.62533254,71.8353337 8.784,71.77 C8.94266746,71.7046663 9.11066578,71.672 9.288,71.672 C9.46533422,71.672 9.63333254,71.7046663 9.792,71.77 C9.95066746,71.8353337 10.0883327,71.9263328 10.205,72.043 C10.3216673,72.1596672 10.4126663,72.2973325 10.478,72.456 C10.5433337,72.6146675 10.576,72.7826658 10.576,72.96 C10.576,73.1373342 10.5433337,73.3053325 10.478,73.464 C10.4126663,73.6226675 10.3216673,73.7603328 10.205,73.877 C10.0883327,73.9936673 9.95066746,74.0846663 9.792,74.15 C9.63333254,74.2153337 9.46533422,74.248 9.288,74.248 C9.11066578,74.248 8.94266746,74.2153337 8.784,74.15 C8.62533254,74.0846663 8.48766725,73.9936673 8.371,73.877 C8.25433275,73.7603328 8.16333366,73.6226675 8.098,73.464 C8.03266634,73.3053325 8,73.1373342 8,72.96 Z M12.452,64.252 L14.636,64.252 L14.636,72.148 L18.682,72.148 L18.682,74.164 L12.452,74.164 L12.452,64.252 Z M19.354,69.208 C19.354,68.4146627 19.4869987,67.6960032 19.753,67.052 C20.0190013,66.4079968 20.3899976,65.8596689 20.866,65.407 C21.3420024,64.9543311 21.9066634,64.6066679 22.56,64.364 C23.2133366,64.1213321 23.9273295,64 24.702,64 C25.4766705,64 26.1906634,64.1213321 26.844,64.364 C27.4973366,64.6066679 28.0619976,64.9543311 28.538,65.407 C29.0140024,65.8596689 29.3849987,66.4079968 29.651,67.052 C29.9170013,67.6960032 30.05,68.4146627 30.05,69.208 C30.05,70.0013373 29.9170013,70.7199968 29.651,71.364 C29.3849987,72.0080032 29.0140024,72.5563311 28.538,73.009 C28.0619976,73.4616689 27.4973366,73.8093321 26.844,74.052 C26.1906634,74.2946679 25.4766705,74.416 24.702,74.416 C23.9273295,74.416 23.2133366,74.2946679 22.56,74.052 C21.9066634,73.8093321 21.3420024,73.4616689 20.866,73.009 C20.3899976,72.5563311 20.0190013,72.0080032 19.753,71.364 C19.4869987,70.7199968 19.354,70.0013373 19.354,69.208 Z M21.622,69.208 C21.622,69.674669 21.6943326,70.1016647 21.839,70.489 C21.9836674,70.8763353 22.191332,71.2123319 22.462,71.497 C22.732668,71.7816681 23.0569981,72.0033325 23.435,72.162 C23.8130019,72.3206675 24.235331,72.4 24.702,72.4 C25.168669,72.4 25.5909981,72.3206675 25.969,72.162 C26.3470019,72.0033325 26.671332,71.7816681 26.942,71.497 C27.212668,71.2123319 27.4203326,70.8763353 27.565,70.489 C27.7096674,70.1016647 27.782,69.674669 27.782,69.208 C27.782,68.7506644 27.7096674,68.326002 27.565,67.934 C27.4203326,67.541998 27.212668,67.2036681 26.942,66.919 C26.671332,66.6343319 26.3470019,66.4126675 25.969,66.254 C25.5909981,66.0953325 25.168669,66.016 24.702,66.016 C24.235331,66.016 23.8130019,66.0953325 23.435,66.254 C23.0569981,66.4126675 22.732668,66.6343319 22.462,66.919 C22.191332,67.2036681 21.9836674,67.541998 21.839,67.934 C21.6943326,68.326002 21.622,68.7506644 21.622,69.208 Z M38.016,66.828 C37.8013323,66.5666654 37.5376682,66.3660007 37.225,66.226 C36.9123318,66.0859993 36.5506687,66.016 36.14,66.016 C35.7293313,66.016 35.3490017,66.0953325 34.999,66.254 C34.6489983,66.4126675 34.345668,66.6343319 34.089,66.919 C33.8323321,67.2036681 33.6316674,67.541998 33.487,67.934 C33.3423326,68.326002 33.27,68.7506644 33.27,69.208 C33.27,69.674669 33.3423326,70.1016647 33.487,70.489 C33.6316674,70.8763353 33.8299987,71.2123319 34.082,71.497 C34.3340013,71.7816681 34.6303316,72.0033325 34.971,72.162 C35.3116684,72.3206675 35.677998,72.4 36.07,72.4 C36.5180022,72.4 36.9146649,72.3066676 37.26,72.12 C37.6053351,71.9333324 37.8899989,71.6720017 38.114,71.336 L39.934,72.694 C39.5139979,73.2820029 38.9820032,73.7159986 38.338,73.996 C37.6939968,74.2760014 37.0313367,74.416 36.35,74.416 C35.5753295,74.416 34.8613366,74.2946679 34.208,74.052 C33.5546634,73.8093321 32.9900024,73.4616689 32.514,73.009 C32.0379976,72.5563311 31.6670013,72.0080032 31.401,71.364 C31.1349987,70.7199968 31.002,70.0013373 31.002,69.208 C31.002,68.4146627 31.1349987,67.6960032 31.401,67.052 C31.6670013,66.4079968 32.0379976,65.8596689 32.514,65.407 C32.9900024,64.9543311 33.5546634,64.6066679 34.208,64.364 C34.8613366,64.1213321 35.5753295,64 36.35,64 C36.6300014,64 36.9216652,64.0256664 37.225,64.077 C37.5283349,64.1283336 37.8269985,64.2099994 38.121,64.322 C38.4150015,64.4340006 38.697332,64.5833324 38.968,64.77 C39.238668,64.9566676 39.4813323,65.185332 39.696,65.456 L38.016,66.828 Z M41.208,64.252 L43.392,64.252 L43.392,68.368 L47.242,64.252 L50.098,64.252 L45.688,68.858 L50.476,74.164 L47.424,74.164 L43.392,69.46 L43.392,74.164 L41.208,74.164 L41.208,64.252 Z"/>
    <path fill="#2E2E2E" fill-rule="nonzero" d="M8.86154192,4.44225684 L8.63338198,4.44225684 L8.63338198,3.43910316 C8.63338198,1.58369373 7.0660214,0.0337638911 5.1070071,0.000677989781 C5.0534795,-0.000225996594 4.9465205,-0.000225996594 4.89301695,0.000677989781 C2.93395455,0.0337638911 1.36661802,1.58369373 1.36661802,3.43910316 L1.36661802,4.44225684 L1.13843403,4.44225684 C0.786811759,4.44225684 0.5,4.78310491 0.5,5.20406876 L0.5,10.2354761 C0.5,10.6559654 0.786811759,11 1.13845808,11 L8.86154192,11 C9.21316418,11 9.5,10.6559654 9.5,10.2354761 L9.5,5.20406876 C9.5,4.78312751 9.21318824,4.44225684 8.86154192,4.44225684 Z M5.72354894,7.71466492 L5.72354894,9.2349666 C5.72354894,9.40905178 5.56840307,9.55637896 5.38294494,9.55637896 L4.61710317,9.55637896 C4.43162098,9.55637896 4.27647512,9.40905178 4.27647512,9.2349666 L4.27647512,7.71466492 C4.09659829,7.54833143 3.99187663,7.31833469 3.99187663,7.06390773 C3.99187663,6.58176659 4.38860644,6.16746964 4.89304101,6.14832773 C4.94649645,6.14629376 5.05357572,6.14629376 5.10703116,6.14832773 C5.61146573,6.16746964 6.00819554,6.58176659 6.00819554,7.06390773 C6.00814742,7.31833469 5.90342577,7.54833143 5.72354894,7.71466492 Z M7.12958092,4.44225684 L5.1070071,4.44225684 L4.89301695,4.44225684 L2.87046719,4.44225684 L2.87046719,3.43910316 C2.87046719,2.33386682 3.82660262,1.4200044 5,1.4200044 C6.17339738,1.4200044 7.12958092,2.33386682 7.12958092,3.43910316 L7.12958092,4.44225684 Z" transform="translate(54 64)"/>
  </g>
</svg>
