<svg xmlns="http://www.w3.org/2000/svg" width="71" height="93" viewBox="0 0 71 93">
  <g fill="none" fill-rule="evenodd">
    <path fill="#1D2F44" d="M3,0 L55.7339131,0 L71,18.640625 L71,90 C71,91.6568542 69.6568542,93 68,93 L3,93 C1.34314575,93 2.02906125e-16,91.6568542 0,90 L0,3 C-2.02906125e-16,1.34314575 1.34314575,3.04359188e-16 3,0 Z"/>
    <path fill="#1D2F44" d="M3,0 L55.7339131,0 L71,18.640625 L71,90 C71,91.6568542 69.6568542,93 68,93 L3,93 C1.34314575,93 2.02906125e-16,91.6568542 0,90 L0,3 C-2.02906125e-16,1.34314575 1.34314575,3.04359188e-16 3,0 Z"/>
    <path fill="#3A6291" d="M56.1679688,0.083984375 L56.1679688,15.6293945 C56.1679688,17.2862488 57.5111145,18.6293945 59.1679688,18.6293945 L71.0048828,18.6293945 L56.1679688,0.083984375 Z"/>
    <g transform="translate(4 26)">
      <rect width="63" height="59" fill="#A5C5E9" rx="4.5"/>
      <g transform="translate(9 13.615)">
        <polygon fill="#BB7334" points="11.25 0 22.5 36.308 0 36.308"/>
        <path fill="#FFF" d="M11.25,0 L15.5629578,13.6153846 C15.5629578,13.6153846 15.1130078,15.3494982 13.782074,15.3347591 C13.076436,15.3269446 11.6660558,13.3122772 10.947876,13.6153846 C10.2440359,13.91244 9.76023254,16.7117544 9.22467041,16.7117544 C8.48959351,16.7117544 7.0194397,13.6153846 7.0194397,13.6153846 L11.25,0 Z"/>
      </g>
      <path fill="#70CF47" d="M0,40.8461538 C0,40.8461538 14.0462624,46.1461545 28.930794,45.7327507 C35.716949,45.5442716 43.9904975,38.8030037 48.8700727,39.2950675 C54.2877961,39.8413989 63,47.1991696 63,47.1991696 L63,54.5049479 C63,56.9874966 60.9928922,59 58.4944782,59 L4.50552184,59 C2.01719084,59 0,56.9878587 0,54.5008739 L0,40.8461538 Z"/>
      <ellipse cx="49.5" cy="13.615" fill="#F8E71C" rx="9" ry="9.077"/>
    </g>
    <path fill="#FFF" d="M5.296,6.256 L10.03,6.256 C10.6900033,6.256 11.3139971,6.3159994 11.902,6.436 C12.4900029,6.5560006 13.0029978,6.76299853 13.441,7.057 C13.8790022,7.35100147 14.2269987,7.74699751 14.485,8.245 C14.7430013,8.74300249 14.872,9.36999622 14.872,10.126 C14.872,10.8700037 14.7520012,11.4939975 14.512,11.998 C14.2719988,12.5020025 13.9420021,12.9039985 13.522,13.204 C13.1019979,13.5040015 12.6040029,13.7169994 12.028,13.843 C11.4519971,13.9690006 10.8280034,14.032 10.156,14.032 L8.104,14.032 L8.104,19 L5.296,19 L5.296,6.256 Z M8.104,11.656 L9.976,11.656 C10.2280013,11.656 10.4709988,11.6320002 10.705,11.584 C10.9390012,11.5359998 11.1489991,11.4550006 11.335,11.341 C11.5210009,11.2269994 11.6709994,11.071001 11.785,10.873 C11.8990006,10.674999 11.956,10.4260015 11.956,10.126 C11.956,9.80199838 11.8810008,9.54100099 11.731,9.343 C11.5809993,9.14499901 11.3890012,8.99200054 11.155,8.884 C10.9209988,8.77599946 10.6600014,8.70700015 10.372,8.677 C10.0839986,8.64699985 9.80800132,8.632 9.544,8.632 L8.104,8.632 L8.104,11.656 Z M16.636,6.256 L20.452,6.256 L25.87,15.112 L25.906,15.112 L25.906,6.256 L28.714,6.256 L28.714,19 L25.042,19 L19.48,9.928 L19.444,9.928 L19.444,19 L16.636,19 L16.636,6.256 Z M42.844,18.1 C42.0159959,18.5320022 41.1520045,18.843999 40.252,19.036 C39.3519955,19.228001 38.4340047,19.324 37.498,19.324 C36.501995,19.324 35.5840042,19.1680016 34.744,18.856 C33.9039958,18.5439984 33.1780031,18.0970029 32.566,17.515 C31.9539969,16.9329971 31.4770017,16.2280041 31.135,15.4 C30.7929983,14.5719959 30.622,13.6480051 30.622,12.628 C30.622,11.6079949 30.7929983,10.6840041 31.135,9.856 C31.4770017,9.02799586 31.9539969,8.32300291 32.566,7.741 C33.1780031,7.15899709 33.9039958,6.71200156 34.744,6.4 C35.5840042,6.08799844 36.501995,5.932 37.498,5.932 C38.5180051,5.932 39.4569957,6.05499877 40.315,6.301 C41.1730043,6.54700123 41.9259968,6.969997 42.574,7.57 L40.594,9.73 C40.2099981,9.33399802 39.7780024,9.03400102 39.298,8.83 C38.8179976,8.62599898 38.2180036,8.524 37.498,8.524 C36.897997,8.524 36.3550024,8.62599898 35.869,8.83 C35.3829976,9.03400102 34.9660017,9.31899817 34.618,9.685 C34.2699983,10.0510018 34.0030009,10.4859975 33.817,10.99 C33.6309991,11.4940025 33.538,12.0399971 33.538,12.628 C33.538,13.228003 33.6309991,13.7769975 33.817,14.275 C34.0030009,14.7730025 34.2699983,15.2049982 34.618,15.571 C34.9660017,15.9370018 35.3829976,16.221999 35.869,16.426 C36.3550024,16.630001 36.897997,16.732 37.498,16.732 C38.1100031,16.732 38.6379978,16.6630007 39.082,16.525 C39.5260022,16.3869993 39.8799987,16.2460007 40.144,16.102 L40.144,14.032 L37.858,14.032 L37.858,11.44 L42.844,11.44 L42.844,18.1 Z"/>
  </g>
</svg>
