<svg xmlns="http://www.w3.org/2000/svg" width="81" height="93" viewBox="0 0 81 93">
  <g fill="none" fill-rule="evenodd">
    <path fill="#E6F2FF" d="M13,0 L65.7339131,0 L81,18.640625 L81,90 C81,91.6568542 79.6568542,93 78,93 L13,93 C11.3431458,93 10,91.6568542 10,90 L10,3 C10,1.34314575 11.3431458,3.04359188e-16 13,0 Z"/>
    <path fill="#AEC3DA" d="M66.1679688,0.083984375 L66.1679688,15.6293945 C66.1679688,17.2862488 67.5111145,18.6293945 69.1679688,18.6293945 L81.0048828,18.6293945 L66.1679688,0.083984375 Z"/>
    <rect width="66" height="32" y="53" fill="#F5A623" rx="3"/>
    <path fill="#FFF" d="M7,61.396 L12.786,61.396 C13.5926707,61.396 14.3553297,61.4693326 15.074,61.616 C15.7926703,61.7626674 16.419664,62.0156649 16.955,62.375 C17.490336,62.7343351 17.9156651,63.2183303 18.231,63.827 C18.5463349,64.4356697 18.704,65.2019954 18.704,66.126 C18.704,67.0353379 18.5573348,67.7979969 18.264,68.414 C17.9706652,69.0300031 17.5673359,69.5213315 17.054,69.888 C16.5406641,70.2546685 15.9320035,70.5149992 15.228,70.669 C14.5239965,70.8230008 13.7613374,70.9 12.94,70.9 L10.432,70.9 L10.432,76.972 L7,76.972 L7,61.396 Z M10.432,67.996 L12.72,67.996 C13.0280015,67.996 13.3249986,67.966667 13.611,67.908 C13.8970014,67.849333 14.1536655,67.750334 14.381,67.611 C14.6083345,67.471666 14.791666,67.2810012 14.931,67.039 C15.070334,66.7969988 15.14,66.4926685 15.14,66.126 C15.14,65.729998 15.0483342,65.4110012 14.865,65.169 C14.6816658,64.9269988 14.4470014,64.7400007 14.161,64.608 C13.8749986,64.4759993 13.5560018,64.3916669 13.204,64.355 C12.8519982,64.3183332 12.5146683,64.3 12.192,64.3 L10.432,64.3 L10.432,67.996 Z M20.86,61.396 L26.888,61.396 C27.680004,61.396 28.4316631,61.4729992 29.143,61.627 C29.8543369,61.7810008 30.477664,62.0376649 31.013,62.397 C31.548336,62.7563351 31.9736651,63.2403303 32.289,63.849 C32.6043349,64.4576697 32.762,65.2166621 32.762,66.126 C32.762,67.2260055 32.4760029,68.1609962 31.904,68.931 C31.3319971,69.7010039 30.4960055,70.1886656 29.396,70.394 L33.356,76.972 L29.242,76.972 L25.986,70.746 L24.292,70.746 L24.292,76.972 L20.86,76.972 L20.86,61.396 Z M24.292,67.842 L26.316,67.842 C26.6240015,67.842 26.9503316,67.8310001 27.295,67.809 C27.6396684,67.7869999 27.9513319,67.7210006 28.23,67.611 C28.5086681,67.5009994 28.7396658,67.3286678 28.923,67.094 C29.1063342,66.8593322 29.198,66.5293355 29.198,66.104 C29.198,65.707998 29.1173341,65.3926678 28.956,65.158 C28.7946659,64.9233322 28.5893346,64.7436673 28.34,64.619 C28.0906654,64.4943327 27.8046683,64.4100002 27.482,64.366 C27.1593317,64.3219998 26.8440015,64.3 26.536,64.3 L24.292,64.3 L24.292,67.842 Z M35.248,61.396 L45.83,61.396 L45.83,64.564 L38.68,64.564 L38.68,67.468 L45.434,67.468 L45.434,70.636 L38.68,70.636 L38.68,73.804 L46.226,73.804 L46.226,76.972 L35.248,76.972 L35.248,61.396 Z M56.676,65.202 C56.3973319,64.8499982 56.019669,64.5896675 55.543,64.421 C55.0663309,64.2523325 54.6153355,64.168 54.19,64.168 C53.9406654,64.168 53.6840013,64.197333 53.42,64.256 C53.1559987,64.314667 52.9066678,64.4063327 52.672,64.531 C52.4373322,64.6556673 52.2466674,64.8206656 52.1,65.026 C51.9533326,65.2313344 51.88,65.4806652 51.88,65.774 C51.88,66.2433357 52.0559982,66.6026654 52.408,66.852 C52.7600018,67.1013346 53.203664,67.3139991 53.739,67.49 C54.274336,67.6660009 54.8499969,67.8419991 55.466,68.018 C56.0820031,68.1940009 56.657664,68.4433317 57.193,68.766 C57.728336,69.0886683 58.1719982,69.5213306 58.524,70.064 C58.8760018,70.6066694 59.052,71.3326621 59.052,72.242 C59.052,73.1073377 58.8906683,73.8626634 58.568,74.508 C58.2453317,75.1533366 57.8090027,75.6886645 57.259,76.114 C56.7089972,76.5393355 56.0710036,76.8546656 55.345,77.06 C54.6189964,77.2653344 53.8526707,77.368 53.046,77.368 C52.0339949,77.368 51.0953377,77.2140015 50.23,76.906 C49.3646623,76.5979985 48.5580037,76.0993368 47.81,75.41 L50.252,72.726 C50.6040018,73.1953357 51.047664,73.558332 51.583,73.815 C52.118336,74.0716679 52.6719971,74.2 53.244,74.2 C53.5226681,74.2 53.8049986,74.1670003 54.091,74.101 C54.3770014,74.0349997 54.6336655,73.9360007 54.861,73.804 C55.0883345,73.6719993 55.271666,73.5033344 55.411,73.298 C55.550334,73.0926656 55.62,72.8506681 55.62,72.572 C55.62,72.1026643 55.4403351,71.7323347 55.081,71.461 C54.7216649,71.1896653 54.2706694,70.9586676 53.728,70.768 C53.1853306,70.5773324 52.5986698,70.3866676 51.968,70.196 C51.3373302,70.0053324 50.7506694,69.7486683 50.208,69.426 C49.6653306,69.1033317 49.2143351,68.6780026 48.855,68.15 C48.4956649,67.6219974 48.316,66.9253377 48.316,66.06 C48.316,65.2239958 48.4809983,64.4906698 48.811,63.86 C49.1410016,63.2293302 49.5809972,62.7013355 50.131,62.276 C50.6810027,61.8506645 51.3153297,61.5316677 52.034,61.319 C52.7526703,61.1063323 53.4933295,61 54.256,61 C55.1360044,61 55.9866626,61.1246654 56.808,61.374 C57.6293374,61.6233346 58.3699967,62.0413304 59.03,62.628 L56.676,65.202 Z"/>
  </g>
</svg>
