<svg xmlns="http://www.w3.org/2000/svg" width="71" height="93" viewBox="0 0 71 93">
  <g fill="none" fill-rule="evenodd">
    <path fill="#1D2F44" d="M3,0 L55.7339131,0 L71,18.640625 L71,90 C71,91.6568542 69.6568542,93 68,93 L3,93 C1.34314575,93 2.02906125e-16,91.6568542 0,90 L0,3 C-2.02906125e-16,1.34314575 1.34314575,3.04359188e-16 3,0 Z"/>
    <path fill="#3A6291" d="M56.1679688,0.083984375 L56.1679688,15.6293945 C56.1679688,17.2862488 57.5111145,18.6293945 59.1679688,18.6293945 L71.0048828,18.6293945 L56.1679688,0.083984375 Z"/>
    <path fill="#4A90E2" d="M10,38 L17.4154135,38 C18.4492533,38 19.4266871,38.089453 20.3477444,38.2683616 C21.2688016,38.4472702 22.072365,38.7558829 22.7584586,39.194209 C23.4445523,39.6325351 23.9896596,40.2229247 24.393797,40.9653955 C24.7979344,41.7078662 25,42.6426497 25,43.769774 C25,44.8790074 24.812032,45.8093183 24.4360902,46.5607345 C24.0601485,47.3121506 23.5432364,47.9114855 22.8853383,48.3587571 C22.2274403,48.8060286 21.4473729,49.1235866 20.5451128,49.3114407 C19.6428526,49.4992947 18.6654188,49.5932203 17.612782,49.5932203 L14.3984962,49.5932203 L14.3984962,57 L10,57 L10,38 Z M14,46 L16.9158879,46 C17.3084132,46 17.6869141,45.9603179 18.0514019,45.8809524 C18.4158897,45.8015869 18.7429892,45.6676597 19.0327103,45.4791667 C19.3224314,45.2906737 19.5560739,45.0327397 19.7336449,44.7053571 C19.9112158,44.3779746 20,43.9662723 20,43.4702381 C20,42.9345211 19.8831787,42.5029778 19.6495327,42.1755952 C19.4158867,41.8482126 19.1168243,41.595239 18.7523364,41.4166667 C18.3878486,41.2380943 17.9813107,41.1240082 17.5327103,41.0744048 C17.0841099,41.0248013 16.6542077,41 16.2429907,41 L14,41 L14,46 Z M37.0410959,42.1344086 C36.6940622,41.7042989 36.2237473,41.3862017 35.630137,41.1801075 C35.0365267,40.9740133 34.4748885,40.8709677 33.9452055,40.8709677 C33.6347016,40.8709677 33.3150701,40.9068097 32.9863014,40.9784946 C32.6575326,41.0501796 32.3470334,41.1621856 32.0547945,41.3145161 C31.7625556,41.4668466 31.5251151,41.6684575 31.3424658,41.9193548 C31.1598164,42.1702522 31.0684932,42.4749086 31.0684932,42.8333333 C31.0684932,43.4068129 31.287669,43.8458766 31.7260274,44.1505376 C32.1643858,44.4551987 32.7168916,44.7150527 33.3835616,44.9301075 C34.0502316,45.1451624 34.7671195,45.360214 35.5342466,45.5752688 C36.3013737,45.7903237 37.0182615,46.0949801 37.6849315,46.4892473 C38.3516015,46.8835145 38.9041074,47.4121831 39.3424658,48.0752688 C39.7808241,48.7383546 40,49.6254425 40,50.7365591 C40,51.7939121 39.7990888,52.7168419 39.3972603,53.5053763 C38.9954318,54.2939108 38.4520582,54.9480261 37.7671233,55.4677419 C37.0821884,55.9874578 36.2876758,56.3727586 35.3835616,56.6236559 C34.4794475,56.8745532 33.5251192,57 32.5205479,57 C31.2602677,57 30.0913296,56.8118298 29.0136986,56.4354839 C27.9360677,56.0591379 26.9315115,55.449825 26,54.6075269 L29.0410959,51.327957 C29.4794542,51.9014366 30.0319601,52.3449805 30.6986301,52.6586022 C31.3653001,52.9722238 32.054791,53.1290323 32.7671233,53.1290323 C33.114157,53.1290323 33.4657516,53.0887101 33.8219178,53.0080645 C34.178084,52.927419 34.4977155,52.8064524 34.7808219,52.6451613 C35.0639284,52.4838702 35.2922366,52.277779 35.4657534,52.0268817 C35.6392703,51.7759844 35.7260274,51.4802884 35.7260274,51.1397849 C35.7260274,50.5663054 35.5022853,50.1138009 35.0547945,49.7822581 C34.6073037,49.4507152 34.0456655,49.1684599 33.369863,48.9354839 C32.6940605,48.7025078 31.9634742,48.4695352 31.1780822,48.2365591 C30.3926901,48.0035831 29.6621038,47.6899661 28.9863014,47.2956989 C28.3104989,46.9014317 27.7488607,46.3817237 27.3013699,45.7365591 C26.853879,45.0913946 26.630137,44.2401487 26.630137,43.1827957 C26.630137,42.1612852 26.8356144,41.2652368 27.2465753,40.4946237 C27.6575363,39.7240105 28.205476,39.0788556 28.890411,38.5591398 C29.5753459,38.0394239 30.3652923,37.6496429 31.260274,37.3897849 C32.1552556,37.129927 33.0776208,37 34.0273973,37 C35.1232932,37 36.1826433,37.1523282 37.2054795,37.4569892 C38.2283156,37.7616503 39.1506808,38.2723978 39.9726027,38.9892473 L37.0410959,42.1344086 Z M44,38 L50.4502297,38 C52.012259,38 53.4961645,38.1699606 54.9019908,38.509887 C56.3078171,38.8498134 57.5344511,39.3999491 58.5819296,40.1603107 C59.629408,40.9206724 60.4609464,41.9091276 61.0765697,43.1257062 C61.692193,44.3422848 62,45.8182587 62,47.5536723 C62,49.0922864 61.7013812,50.4474988 61.1041348,51.6193503 C60.5068883,52.7912017 59.7029147,53.7751843 58.6921899,54.5713277 C57.6814651,55.367471 56.5145549,55.9712785 55.1914242,56.3827684 C53.8682935,56.7942582 52.4808648,57 51.0290965,57 L44,57 L44,38 Z M48,53 L50.1761194,53 C51.1432884,53 52.0432794,52.9039692 52.8761194,52.7119048 C53.7089594,52.5198403 54.4298477,52.2011927 55.038806,51.7559524 C55.6477642,51.3107121 56.1268639,50.7257973 56.4761194,50.0011905 C56.8253749,49.2765837 57,48.3904814 57,47.3428571 C57,46.4349161 56.8253749,45.6448446 56.4761194,44.972619 C56.1268639,44.3003935 55.6567194,43.7460339 55.0656716,43.3095238 C54.4746239,42.8730137 53.780601,42.545636 52.9835821,42.327381 C52.1865632,42.1091259 51.3492581,42 50.4716418,42 L48,42 L48,53 Z"/>
  </g>
</svg>
