<svg xmlns="http://www.w3.org/2000/svg" width="71" height="93" viewBox="0 0 71 93">
  <g fill="none" fill-rule="evenodd">
    <path fill="#1D2F44" d="M3,0 L55.7339131,0 L71,18.640625 L71,90 C71,91.6568542 69.6568542,93 68,93 L3,93 C1.34314575,93 2.02906125e-16,91.6568542 0,90 L0,3 C-2.02906125e-16,1.34314575 1.34314575,3.04359188e-16 3,0 Z"/>
    <path fill="#3A6291" d="M56.1679688,0.083984375 L56.1679688,15.6293945 C56.1679688,17.2862488 57.5111145,18.6293945 59.1679688,18.6293945 L71.0048828,18.6293945 L56.1679688,0.083984375 Z"/>
    <g transform="translate(4 26)">
      <rect width="63" height="59" fill="#A5C5E9" rx="4.5"/>
      <g transform="translate(9 13.615)">
        <polygon fill="#BB7334" points="11.25 0 22.5 36.308 0 36.308"/>
        <path fill="#FFF" d="M11.25,0 L15.5629578,13.6153846 C15.5629578,13.6153846 15.1130078,15.3494982 13.782074,15.3347591 C13.076436,15.3269446 11.6660558,13.3122772 10.947876,13.6153846 C10.2440359,13.91244 9.76023254,16.7117544 9.22467041,16.7117544 C8.48959351,16.7117544 7.0194397,13.6153846 7.0194397,13.6153846 L11.25,0 Z"/>
      </g>
      <path fill="#70CF47" d="M0,40.8461538 C0,40.8461538 14.0462624,46.1461545 28.930794,45.7327507 C35.716949,45.5442716 43.9904975,38.8030037 48.8700727,39.2950675 C54.2877961,39.8413989 63,47.1991696 63,47.1991696 L63,54.5049479 C63,56.9874966 60.9928922,59 58.4944782,59 L4.50552184,59 C2.01719084,59 0,56.9878587 0,54.5008739 L0,40.8461538 Z"/>
      <ellipse cx="49.5" cy="13.615" fill="#F8E71C" rx="9" ry="9.077"/>
    </g>
    <path fill="#FFF" d="M8.762,8.74 L5.126,8.74 L5.126,6.256 L15.206,6.256 L15.206,8.74 L11.57,8.74 L11.57,19 L8.762,19 L8.762,8.74 Z M16.592,6.256 L19.4,6.256 L19.4,19 L16.592,19 L16.592,6.256 Z M22.064,6.256 L30.614,6.256 L30.614,8.848 L24.872,8.848 L24.872,11.44 L30.182,11.44 L30.182,14.032 L24.872,14.032 L24.872,19 L22.064,19 L22.064,6.256 Z M32.738,6.256 L41.288,6.256 L41.288,8.848 L35.546,8.848 L35.546,11.44 L40.856,11.44 L40.856,14.032 L35.546,14.032 L35.546,19 L32.738,19 L32.738,6.256 Z"/>
  </g>
</svg>
