<svg xmlns="http://www.w3.org/2000/svg" width="81" height="93" viewBox="0 0 81 93">
  <g fill="none" fill-rule="evenodd">
    <path fill="#E6F2FF" d="M13,0 L65.7339131,0 L81,18.640625 L81,90 C81,91.6568542 79.6568542,93 78,93 L13,93 C11.3431458,93 10,91.6568542 10,90 L10,3 C10,1.34314575 11.3431458,3.04359188e-16 13,0 Z"/>
    <path fill="#AEC3DA" d="M66.1679688,0.083984375 L66.1679688,15.6293945 C66.1679688,17.2862488 67.5111145,18.6293945 69.1679688,18.6293945 L81.0048828,18.6293945 L66.1679688,0.083984375 Z"/>
    <rect width="66" height="32" y="53" fill="#D0021B" rx="3"/>
    <path fill="#730715" d="M4,61.396 L7.916,61.396 L11.766,71.604 L11.81,71.604 L15.726,61.396 L19.4,61.396 L12.976,76.972 L10.226,76.972 L4,61.396 Z M31.214,65.444 C30.876665,65.0333313 30.4623358,64.7180011 29.971,64.498 C29.4796642,64.2779989 28.9113366,64.168 28.266,64.168 C27.6206634,64.168 27.0230027,64.2926654 26.473,64.542 C25.9229972,64.7913346 25.4463354,65.1396644 25.043,65.587 C24.6396646,66.0343356 24.3243345,66.5659969 24.097,67.182 C23.8696655,67.7980031 23.756,68.4653297 23.756,69.184 C23.756,69.917337 23.8696655,70.5883303 24.097,71.197 C24.3243345,71.8056697 24.635998,72.3336644 25.032,72.781 C25.428002,73.2283356 25.893664,73.5766654 26.429,73.826 C26.964336,74.0753346 27.5399969,74.2 28.156,74.2 C28.8600035,74.2 29.4833306,74.0533348 30.026,73.76 C30.5686694,73.4666652 31.0159982,73.0560026 31.368,72.528 L34.228,74.662 C33.5679967,75.5860046 32.7320051,76.2679978 31.72,76.708 C30.7079949,77.1480022 29.666672,77.368 28.596,77.368 C27.3786606,77.368 26.2566718,77.1773352 25.23,76.796 C24.2033282,76.4146648 23.3160037,75.8683369 22.568,75.157 C21.8199963,74.4456631 21.2370021,73.5840051 20.819,72.572 C20.4009979,71.5599949 20.192,70.4306729 20.192,69.184 C20.192,67.9373271 20.4009979,66.8080051 20.819,65.796 C21.2370021,64.7839949 21.8199963,63.9223369 22.568,63.211 C23.3160037,62.4996631 24.2033282,61.9533352 25.23,61.572 C26.2566718,61.1906648 27.3786606,61 28.596,61 C29.0360022,61 29.4943309,61.0403329 29.971,61.121 C30.4476691,61.2016671 30.9169977,61.3299991 31.379,61.506 C31.8410023,61.6820009 32.2846645,61.9166652 32.71,62.21 C33.1353355,62.5033348 33.516665,62.8626645 33.854,63.288 L31.214,65.444 Z M41.224,61.396 L44.062,61.396 L50.838,76.972 L46.966,76.972 L45.624,73.672 L39.574,73.672 L38.276,76.972 L34.492,76.972 L41.224,61.396 Z M42.544,65.928 L40.652,70.768 L44.458,70.768 L42.544,65.928 Z M52.532,61.396 L55.964,61.396 L55.964,73.804 L62.322,73.804 L62.322,76.972 L52.532,76.972 L52.532,61.396 Z"/>
  </g>
</svg>
