<?xml version="1.0" encoding="UTF-8"?>
<svg width="180px" height="58px" viewBox="0 0 180 58" version="1.1" xmlns="http://www.w3.org/2000/svg" xmlns:xlink="http://www.w3.org/1999/xlink">
    <!-- Generator: Sketch 40.3 (33839) - http://www.bohemiancoding.com/sketch -->
    <title>Artboard</title>
    <desc>Created with Sketch.</desc>
    <defs>
        <radialGradient cx="50%" cy="33.8289222%" fx="50%" fy="33.8289222%" r="66.1710778%" id="radialGradient-1">
            <stop stop-color="#E02074" offset="0%"></stop>
            <stop stop-color="#D41A62" offset="36.3494975%"></stop>
            <stop stop-color="#BD0E40" offset="100%"></stop>
        </radialGradient>
    </defs>
    <g id="Page-1" stroke="none" stroke-width="1" fill="none" fill-rule="evenodd">
        <g id="Artboard">
            <g id="Group-3" transform="translate(1.000000, 1.000000)">
                <path d="M7.64730986,24.7437622 L5.88512746,33.8252645 L9.42216984,33.8252645 L7.64730986,24.7437622 Z M5.36534703,20.7306598 L9.94195027,20.7306598 L15.0510115,42.9216301 L11.311128,42.9216301 L10.1447914,37.4370567 L5.13715075,37.4370567 L3.99616933,42.9216301 L0.256285804,42.9216301 L5.36534703,20.7306598 Z M21.2630214,24.4167687 L21.2630214,30.9269127 L22.7970076,30.9269127 C24.0225122,30.9269127 24.8824656,30.6841472 25.3768933,30.1986089 C25.8713211,29.7130707 26.1185312,28.870823 26.1185312,27.6718407 C26.1185312,26.4728584 25.8713211,25.6306108 25.3768933,25.1450725 C24.8824656,24.6595342 24.0225122,24.4167687 22.7970076,24.4167687 L21.2630214,24.4167687 Z M17.5231379,20.7306598 L22.6575543,20.7306598 C25.269147,20.7306598 27.1475217,21.2756436 28.2927347,22.3656274 C29.4379477,23.4556113 30.0105456,25.2243314 30.0105456,27.6718407 C30.0105456,30.11935 29.4379477,31.8880701 28.2927347,32.978054 C27.1475217,34.0680379 25.269147,34.6130216 22.6575543,34.6130216 L21.2630214,34.6130216 L21.2630214,42.9216301 L17.5231379,42.9216301 L17.5231379,20.7306598 Z M38.9102007,24.7437622 L37.1480182,33.8252645 L40.6850606,33.8252645 L38.9102007,24.7437622 Z M36.6282378,20.7306598 L41.2048411,20.7306598 L46.3139023,42.9216301 L42.5740188,42.9216301 L41.4076822,37.4370567 L36.4000415,37.4370567 L35.2590601,42.9216301 L31.5191766,42.9216301 L36.6282378,20.7306598 Z M62.0214131,42.9216301 L58.1547539,42.9216301 L54.5416461,35.5791389 L50.9412158,42.9216301 L47.0745566,42.9216301 L52.6273328,31.6552165 L47.2266874,20.7306598 L51.0933467,20.7306598 L54.5416461,27.7907475 L58.002623,20.7306598 L61.8692823,20.7306598 L56.493992,31.6552165 L62.0214131,42.9216301 Z M101.435982,39.2652478 L104.770183,20.7306598 L108.535422,20.7306598 L104.034884,42.9216301 L98.8497577,42.9216301 L94.3492199,20.7306598 L98.1144586,20.7306598 L101.435982,39.2652478 Z M122.334959,41.0108041 L126.747793,27.5172414 L126.216557,43.8182285 L130.072041,36.9161687 L130.072041,47.354676 L133.06645,35.5812706 L132.29234,48.2231105 L133.963227,43.8182285 L136.322063,50.4349236 L138.808284,50.2509468 L142.662131,49.7276148 C142.662131,49.7276148 143.406736,50.1018678 143.097414,50.1901603 C142.809671,50.2722933 141.52928,50.613458 141.52928,50.613458 L136.322063,52.0413546 L133.963227,45.4671348 C133.963227,45.4671348 131.784476,52.145952 131.767257,52.0413546 C131.354625,49.5348465 131.767257,41.9872068 131.767257,41.9872068 L129.530644,51.1316737 L129.24209,40.5861277 L125.108888,47.071838 L125.631095,34.5421653 L122.334959,42.9216301 L120.991136,42.9216301 L110.715964,42.9216301 L110.715964,39.1760678 L112.744376,36.6492996 C115.153126,33.6468894 116.615258,31.7988989 117.130815,31.1052728 C117.764697,30.2531036 118.221085,29.4975579 118.499993,28.8386131 C118.778901,28.1796683 118.918353,27.528165 118.918353,26.8840836 C118.918353,25.8931891 118.662691,25.1277346 118.15136,24.5876971 C117.640029,24.0476597 116.915301,23.777645 115.977157,23.777645 C115.309468,23.777645 114.559386,23.9337085 113.726888,24.2458403 C112.89439,24.557972 112.025985,25.0112994 111.121647,25.6058361 L111.121647,21.5184169 C112.025985,21.1319681 112.911293,20.8371814 113.777598,20.6340481 C114.643903,20.4309147 115.474276,20.3293495 116.268741,20.3293495 C118.271807,20.3293495 119.845923,20.8768105 120.991136,21.9717489 C122.136349,23.0666872 122.708947,24.5604382 122.708947,26.4530466 C122.708947,27.3250337 122.584285,28.1425094 122.334959,28.9054981 C122.085632,29.6684869 121.656711,30.5156889 121.048185,31.4471297 C120.600242,32.1209379 119.37053,33.6369837 117.359012,35.9953125 C116.268735,37.2735663 115.402443,38.2941723 114.76011,39.0571611 L120.991136,39.0571611 L122.334959,41.0108041 Z" id="APAXY-V2" fill="#434343"></path>
                <polygon id="Path" fill="#C31148" points="62.4651281 20.7306598 66.4965958 20.7306598 70.1730915 29.6486653 73.8622647 20.7306598 77.8937324 20.7306598 72.049372 34.1819847 72.049372 42.9216301 68.3094885 42.9216301 68.3094885 34.1819847"></polygon>
                <g id="Group-5" transform="translate(158.060109, 28.000000) rotate(-360.000000) translate(-158.060109, -28.000000) translate(138.120219, 0.000000)">
                    <g id="Group-2" transform="translate(19.972309, 28.040952) rotate(-330.000000) translate(-19.972309, -28.040952) translate(13.649905, -0.441807)">
                        <path d="M5.37348143,45.534948 C5.37348143,45.534948 5.79308383,46.3149021 6.11779613,46.4532596 C6.44250842,46.5916171 7.14672568,46.5916171 7.14672568,46.5916171 L4.56975795,48.0006829 L5.37348143,45.534948 Z M4.66997849,45.4696407 C4.66997849,45.4696407 4.10866841,46.2065865 3.72709182,46.4335345 C3.4285086,46.6111211 2.62949906,46.6832444 2.62949906,46.6832444 L3.83253099,47.1790499 L4.54204541,47.4714621 L4.66997849,45.4696407 Z" id="Triangle" fill="#A9BBCE"></path>
                        <g id="Group" transform="translate(0.000000, 0.000000)">
                            <path d="M4.55673017,0.0168189226 C4.55673017,0.0168189226 10.2175888,0.679118285 11.979499,12.4809883 C13.7414092,24.2828583 10.713555,45.7358367 4.92705201,45.7358367 C-0.674038723,45.7358367 0.113791686,13.9586697 0.113791686,13.9586697 C0.113791686,13.9586697 1.80353466,13.1529445 3.30591986,9.19626834 C4.80830507,5.23959216 4.55673017,0.0168189226 4.55673017,0.0168189226 Z" id="Triangle-2" fill="url(#radialGradient-1)"></path>
                            <path d="M6.25445774,17.5375517 L10.9271935,7.52387362 C10.9271935,7.52387362 11.6287994,10.4694345 11.6410603,10.5283758 C11.7847556,11.2191555 11.979499,12.5825699 11.979499,12.5825699 L6.59666623,18.0074716 L6.25445774,17.5375517 Z" id="Triangle-2-Copy" fill="#F6A623"></path>
                            <path d="M6.5908808,18.5318081 L12.0926996,13.2761108 C12.0926996,13.2761108 12.275919,15.0107784 12.3383185,15.8807274 C12.3967939,16.6959671 12.4553244,18.3316767 12.4553244,18.3316767 L6.5908808,19.1480781 L6.5908808,18.5318081 Z" id="Triangle-2-Copy" fill="#F6A623"></path>
                        </g>
                        <path d="M5.72013445,4.23689113 C5.8831525,4.23689113 7.46138321,21.1691122 7.27956707,25.7184177 C6.89018005,35.4614496 4.46935774,55.1125497 4.46935774,55.1125497 L3.26685117,56.3238883 C3.26685117,56.3238883 5.67227193,35.5874596 6.12946432,25.7184177 C6.35308299,20.8913426 5.49671705,4.23689113 5.72013445,4.23689113 Z" id="Rectangle" fill="#211E1E"></path>
                    </g>
                </g>
            </g>
        </g>
    </g>
</svg>