<?xml version="1.0" encoding="UTF-8"?>
<svg width="16px" height="16px" viewBox="0 0 16 16" version="1.1" xmlns="http://www.w3.org/2000/svg" xmlns:xlink="http://www.w3.org/1999/xlink">
    <!-- Generator: Sketch 40.3 (33839) - http://www.bohemiancoding.com/sketch -->
    <title>audio</title>
    <desc>Created with Sketch.</desc>
    <defs></defs>
    <g id="Page-1" stroke="none" stroke-width="1" fill="none" fill-rule="evenodd">
        <g id="audio">
            <g id="Group" transform="translate(1.000000, 1.000000)">
                <g id="Group-2">
                    <circle id="Oval" fill="#E455AF" cx="7" cy="7" r="7"></circle>
                    <path d="M7,14 L7,7.13135518 L7,0.0267944336 C7,0.0267944336 5.97545737,-0.0125864639 4.7822876,0.377624512 C4.05273875,0.61621417 3.29251384,1.08181549 2.57025146,1.62103271 C1.00761853,2.78764282 0,5.25710612 0,7 C0,8.78616906 0.860578731,10.8773533 2.49239689,12.3307534 C3.12213377,12.8916368 3.925663,13.3483119 4.68914795,13.5993042 C5.90405847,13.9987007 7,14 7,14 Z" id="Oval" fill="#E4556C"></path>
                    <path d="M6.99118033,4.85699765 C7.28198262,4.38608654 7.75264506,4.38475669 8.04426857,4.85699765 L10.4090003,8.68632949 C10.6998026,9.15724061 10.487039,9.5389895 9.92692221,9.5389895 L5.10852668,9.5389895 C4.55148001,9.5389895 4.33482507,9.15857046 4.62644859,8.68632949 L6.99118033,4.85699765 Z" id="Triangle-3" fill="#FFFAFA" transform="translate(7.517837, 7.021152) rotate(-270.000000) translate(-7.517837, -7.021152) "></path>
                </g>
            </g>
        </g>
    </g>
</svg>