<?xml version="1.0" encoding="UTF-8"?>
<svg width="16px" height="16px" viewBox="0 0 16 16" version="1.1" xmlns="http://www.w3.org/2000/svg" xmlns:xlink="http://www.w3.org/1999/xlink">
    <!-- Generator: Sketch 40.3 (33839) - http://www.bohemiancoding.com/sketch -->
    <title>bin</title>
    <desc>Created with Sketch.</desc>
    <defs></defs>
    <g id="Page-1" stroke="none" stroke-width="1" fill="none" fill-rule="evenodd">
        <g id="bin">
            <g id="Group" transform="translate(1.000000, 1.000000)" fill="#2F363E">
                <rect id="Rectangle" x="0" y="0" width="14" height="14" rx="1"></rect>
            </g>
            <path d="M6.20117188,5.18115234 C6.20117188,5.09488889 6.23046846,5.02246123 6.2890625,4.96386719 C6.34765654,4.90527314 6.41927041,4.87597656 6.50390625,4.87597656 C6.5901697,4.87597656 6.66259736,4.90527314 6.72119141,4.96386719 C6.77978545,5.02246123 6.80908203,5.09488889 6.80908203,5.18115234 C6.80908203,5.26578818 6.77978545,5.33740205 6.72119141,5.39599609 C6.66259736,5.45459014 6.5901697,5.48388672 6.50390625,5.48388672 C6.41927041,5.48388672 6.34765654,5.45499703 6.2890625,5.3972168 C6.23046846,5.33943656 6.20117188,5.2674158 6.20117188,5.18115234 L6.20117188,5.18115234 Z M6.50390625,3.89941406 C6.33788979,3.89941406 6.2166345,4.00113831 6.14013672,4.20458984 C6.06363894,4.40804138 6.02539062,4.73355896 6.02539062,5.18115234 C6.02539062,5.62711812 6.06363894,5.9518219 6.14013672,6.15527344 C6.2166345,6.35872498 6.33788979,6.46044922 6.50390625,6.46044922 C6.67155032,6.46044922 6.79361941,6.35872498 6.87011719,6.15527344 C6.94661497,5.9518219 6.98486328,5.62711812 6.98486328,5.18115234 C6.98486328,4.73355896 6.94661497,4.40804138 6.87011719,4.20458984 C6.79361941,4.00113831 6.67155032,3.89941406 6.50390625,3.89941406 L6.50390625,3.89941406 Z M5.30029297,5.18115234 C5.30029297,4.54963877 5.40038962,4.07641759 5.60058594,3.76147461 C5.80078225,3.44653163 6.10188601,3.2890625 6.50390625,3.2890625 C6.9075541,3.2890625 7.20947166,3.44612473 7.40966797,3.76025391 C7.60986428,4.07438308 7.70996094,4.54801116 7.70996094,5.18115234 C7.70996094,5.81266592 7.60986428,6.2854802 7.40966797,6.59960938 C7.20947166,6.91373855 6.9075541,7.07080078 6.50390625,7.07080078 C6.10188601,7.07080078 5.80078225,6.91333165 5.60058594,6.59838867 C5.40038962,6.28344569 5.30029297,5.81103831 5.30029297,5.18115234 L5.30029297,5.18115234 Z M8.46923828,6.36523438 L9.27490234,6.36523438 L9.27490234,3.99951172 L8.52539062,4.18505859 L8.52539062,3.53564453 L9.27978516,3.35498047 L9.97558594,3.35498047 L9.97558594,6.36523438 L10.78125,6.36523438 L10.78125,7 L8.46923828,7 L8.46923828,6.36523438 Z M5.45898438,12.3652344 L6.26464844,12.3652344 L6.26464844,9.99951172 L5.51513672,10.1850586 L5.51513672,9.53564453 L6.26953125,9.35498047 L6.96533203,9.35498047 L6.96533203,12.3652344 L7.77099609,12.3652344 L7.77099609,13 L5.45898438,13 L5.45898438,12.3652344 Z M9.21142578,11.1811523 C9.21142578,11.0948889 9.24072236,11.0224612 9.29931641,10.9638672 C9.35791045,10.9052731 9.42952432,10.8759766 9.51416016,10.8759766 C9.60042361,10.8759766 9.67285127,10.9052731 9.73144531,10.9638672 C9.79003936,11.0224612 9.81933594,11.0948889 9.81933594,11.1811523 C9.81933594,11.2657882 9.79003936,11.3374021 9.73144531,11.3959961 C9.67285127,11.4545901 9.60042361,11.4838867 9.51416016,11.4838867 C9.42952432,11.4838867 9.35791045,11.454997 9.29931641,11.3972168 C9.24072236,11.3394366 9.21142578,11.2674158 9.21142578,11.1811523 L9.21142578,11.1811523 Z M9.51416016,9.89941406 C9.3481437,9.89941406 9.2268884,10.0011383 9.15039062,10.2045898 C9.07389285,10.4080414 9.03564453,10.733559 9.03564453,11.1811523 C9.03564453,11.6271181 9.07389285,11.9518219 9.15039062,12.1552734 C9.2268884,12.358725 9.3481437,12.4604492 9.51416016,12.4604492 C9.68180422,12.4604492 9.80387332,12.358725 9.88037109,12.1552734 C9.95686887,11.9518219 9.99511719,11.6271181 9.99511719,11.1811523 C9.99511719,10.733559 9.95686887,10.4080414 9.88037109,10.2045898 C9.80387332,10.0011383 9.68180422,9.89941406 9.51416016,9.89941406 L9.51416016,9.89941406 Z M8.31054688,11.1811523 C8.31054688,10.5496388 8.41064353,10.0764176 8.61083984,9.76147461 C8.81103616,9.44653163 9.11213992,9.2890625 9.51416016,9.2890625 C9.91780801,9.2890625 10.2197256,9.44612473 10.4199219,9.76025391 C10.6201182,10.0743831 10.7202148,10.5480112 10.7202148,11.1811523 C10.7202148,11.8126659 10.6201182,12.2854802 10.4199219,12.5996094 C10.2197256,12.9137385 9.91780801,13.0708008 9.51416016,13.0708008 C9.11213992,13.0708008 8.81103616,12.9133317 8.61083984,12.5983887 C8.41064353,12.2834457 8.31054688,11.8110383 8.31054688,11.1811523 L8.31054688,11.1811523 Z" id="01-10" fill="#7ED321"></path>
        </g>
    </g>
</svg>