<?xml version="1.0" encoding="UTF-8"?>
<svg width="16px" height="16px" viewBox="0 0 16 16" version="1.1" xmlns="http://www.w3.org/2000/svg" xmlns:xlink="http://www.w3.org/1999/xlink">
    <!-- Generator: Sketch 40.3 (33839) - http://www.bohemiancoding.com/sketch -->
    <title>blank</title>
    <desc>Created with Sketch.</desc>
    <defs>
        <radialGradient cx="50%" cy="33.8289222%" fx="50%" fy="33.8289222%" r="66.1710778%" id="radialGradient-1">
            <stop stop-color="#E02074" offset="0%"></stop>
            <stop stop-color="#D41A62" offset="36.3494975%"></stop>
            <stop stop-color="#BD0E40" offset="100%"></stop>
        </radialGradient>
    </defs>
    <g id="Page-1" stroke="none" stroke-width="1" fill="none" fill-rule="evenodd">
        <g id="blank">
            <g id="Group-4" transform="translate(2.000000, 0.000000)">
                <g id="Group-2" transform="translate(6.585040, 7.810157) rotate(-327.000000) translate(-6.585040, -7.810157) translate(4.585040, 0.310157)">
                    <path d="M1.6890156,11.4528233 C1.6890156,11.4528233 1.82090681,11.6489952 1.92297177,11.6837945 C2.02503672,11.7185938 2.24638929,11.7185938 2.24638929,11.7185938 L1.43638581,12.0729981 L1.6890156,11.4528233 Z M1.44184525,11.4444447 C1.44184525,11.4444447 1.28943683,11.624563 1.17923805,11.6750107 C1.09300763,11.7144861 0.852557655,11.714214 0.852557655,11.714214 L1.22913184,11.8734202 L1.45122471,11.9673155 L1.44184525,11.4444447 Z" id="Triangle" fill="#A9BBCE"></path>
                    <g id="Group" transform="translate(0.000000, -0.000000)">
                        <path d="M1.43229086,0.00423024856 C1.43229086,0.00423024856 3.21163607,0.17080994 3.76544721,3.13918342 C4.31925834,6.10755689 3.36753028,11.5033503 1.548692,11.5033503 C-0.211866726,11.5033503 0.035767488,3.51084573 0.035767488,3.51084573 C0.035767488,3.51084573 0.566894704,3.30819197 1.03913083,2.3130198 C1.51136695,1.31784763 1.43229086,0.00423024856 1.43229086,0.00423024856 Z" id="Triangle-2" fill="url(#radialGradient-1)"></path>
                        <path d="M1.96592783,4.41099616 L3.43468207,1.89238374 C3.43468207,1.89238374 3.6552138,2.633243 3.65906771,2.64806776 C3.70423465,2.82181073 3.76544721,3.16473293 3.76544721,3.16473293 L2.07349226,4.52918911 L1.96592783,4.41099616 Z" id="Triangle-2-Copy" fill="#F6A623"></path>
                        <path d="M2.07167376,4.66106876 L3.80102892,3.33917042 C3.80102892,3.33917042 3.85861921,3.77546918 3.8782329,3.99427633 C3.89661313,4.19932313 3.91501068,4.61073227 3.91501068,4.61073227 L2.07167376,4.81607126 L2.07167376,4.66106876 Z" id="Triangle-2-Copy" fill="#F6A623"></path>
                    </g>
                    <path d="M1.79797705,1.06565106 C1.84921758,1.06565106 2.34529379,5.32439614 2.28814456,6.4686248 C2.16575077,8.91916505 1.40482758,13.861755 1.40482758,13.861755 L1.02685059,14.1664275 C1.02685059,14.1664275 1.7829327,8.95085872 1.92663936,6.4686248 C1.99692814,5.25453231 1.72775154,1.06565106 1.79797705,1.06565106 Z" id="Rectangle" fill="#211E1E"></path>
                </g>
            </g>
        </g>
    </g>
</svg>