<?xml version="1.0" encoding="UTF-8"?>
<svg width="16px" height="16px" viewBox="0 0 16 16" version="1.1" xmlns="http://www.w3.org/2000/svg" xmlns:xlink="http://www.w3.org/1999/xlink">
    <!-- Generator: Sketch 40.3 (33839) - http://www.bohemiancoding.com/sketch -->
    <title>c</title>
    <desc>Created with Sketch.</desc>
    <defs></defs>
    <g id="Page-1" stroke="none" stroke-width="1" fill="none" fill-rule="evenodd">
        <g id="c">
            <g id="Group" transform="translate(2.000000, 1.000000)">
                <polygon id="Rectangle" fill="#7F8B99" points="0 0 9.85464471 0 12 2.23245162 12 14 0 14"></polygon>
                <polygon id="Triangle" fill="#485564" points="9.85040245 0.0338631498 11.9769074 2.21134718 9.85040245 2.21134718"></polygon>
            </g>
            <path d="M9.3984375,8.66015625 L10.9492188,9.12890625 C10.8450516,9.56380426 10.6809907,9.92708187 10.4570312,10.21875 C10.2330718,10.5104181 9.95507979,10.730468 9.62304688,10.8789062 C9.29101396,11.0273445 8.86849215,11.1015625 8.35546875,11.1015625 C7.7330698,11.1015625 7.22461135,11.0110686 6.83007812,10.8300781 C6.4355449,10.6490876 6.09505352,10.3307314 5.80859375,9.875 C5.52213398,9.41926855 5.37890625,8.83594105 5.37890625,8.125 C5.37890625,7.17707859 5.63085686,6.44857025 6.13476562,5.93945312 C6.63867439,5.430336 7.35155789,5.17578125 8.2734375,5.17578125 C8.99479527,5.17578125 9.56184689,5.32161313 9.97460938,5.61328125 C10.3873719,5.90494937 10.6940094,6.35286156 10.8945312,6.95703125 L9.33203125,7.3046875 C9.27734348,7.13020746 9.22005238,7.00260457 9.16015625,6.921875 C9.06119742,6.78645766 8.94010488,6.68229203 8.796875,6.609375 C8.65364512,6.53645797 8.49349047,6.5 8.31640625,6.5 C7.91536258,6.5 7.60807398,6.66145672 7.39453125,6.984375 C7.23307211,7.22395953 7.15234375,7.60025785 7.15234375,8.11328125 C7.15234375,8.74870109 7.24869695,9.18424361 7.44140625,9.41992188 C7.63411555,9.65560014 7.90494617,9.7734375 8.25390625,9.7734375 C8.59244961,9.7734375 8.84830643,9.67838637 9.02148438,9.48828125 C9.19466232,9.29817613 9.32031211,9.02213723 9.3984375,8.66015625 L9.3984375,8.66015625 Z" id="C" fill="#FFFFFF"></path>
        </g>
    </g>
</svg>