<?xml version="1.0" encoding="UTF-8"?>
<svg width="16px" height="16px" viewBox="0 0 16 16" version="1.1" xmlns="http://www.w3.org/2000/svg" xmlns:xlink="http://www.w3.org/1999/xlink">
    <!-- Generator: Sketch 40.3 (33839) - http://www.bohemiancoding.com/sketch -->
    <title>calc</title>
    <desc>Created with Sketch.</desc>
    <defs></defs>
    <g id="Page-1" stroke="none" stroke-width="1" fill="none" fill-rule="evenodd">
        <g id="calc">
            <g id="Group" transform="translate(2.000000, 1.000000)">
                <polygon id="Rectangle" fill="#E0E0E0" points="0 0 9.85464471 0 12 2.23245162 12 14 0 14"></polygon>
                <polygon id="Rectangle" fill="#7ED321" points="0 0 3.12086561 0 9.8935158 0 11.9679667 2.20361328 11.9679667 3.92063846 0 3.92063846"></polygon>
                <polygon id="Triangle" fill="#5BA10F" points="9.85040245 0.0338631498 11.9769074 2.21134718 9.85040245 2.21134718"></polygon>
            </g>
            <g id="Group" transform="translate(4.000000, 6.000000)" fill="#737373">
                <rect id="Rectangle" x="0" y="-1.26882631e-16" width="8" height="0.888888889" rx="0.444444444"></rect>
                <rect id="Rectangle" x="0" y="1.77777778" width="8" height="0.888888889" rx="0.444444444"></rect>
                <rect id="Rectangle" x="0" y="3.55555556" width="8" height="0.888888889" rx="0.444444444"></rect>
                <rect id="Rectangle" x="0" y="5.33333333" width="8" height="0.888888889" rx="0.444444444"></rect>
                <rect id="Rectangle" x="0" y="7.11111111" width="8" height="0.888888889" rx="0.444444444"></rect>
                <rect id="Rectangle" transform="translate(6.656087, 4.398739) rotate(-90.000000) translate(-6.656087, -4.398739) " x="3.14623659" y="3.89873887" width="7.01969995" height="0.888888889" rx="0.444444444"></rect>
                <rect id="Rectangle" transform="translate(4.878309, 4.398739) rotate(-90.000000) translate(-4.878309, -4.398739) " x="1.36845881" y="3.89873887" width="7.01969995" height="0.888888889" rx="0.444444444"></rect>
                <rect id="Rectangle" transform="translate(3.100531, 4.398739) rotate(-90.000000) translate(-3.100531, -4.398739) " x="-0.409318969" y="3.89873887" width="7.01969995" height="0.888888889" rx="0.444444444"></rect>
                <rect id="Rectangle" transform="translate(1.322753, 4.398739) rotate(-90.000000) translate(-1.322753, -4.398739) " x="-2.18709675" y="3.89873887" width="7.01969995" height="0.888888889" rx="0.444444444"></rect>
            </g>
        </g>
    </g>
</svg>