<?xml version="1.0" encoding="UTF-8"?>
<svg width="16px" height="16px" viewBox="0 0 16 16" version="1.1" xmlns="http://www.w3.org/2000/svg" xmlns:xlink="http://www.w3.org/1999/xlink">
    <!-- Generator: Sketch 40.3 (33839) - http://www.bohemiancoding.com/sketch -->
    <title>cpp</title>
    <desc>Created with Sketch.</desc>
    <defs></defs>
    <g id="Page-1" stroke="none" stroke-width="1" fill="none" fill-rule="evenodd">
        <g id="cpp">
            <g id="Group" transform="translate(2.000000, 1.000000)">
                <polygon id="Rectangle" fill="#094273" points="0 0 9.85464471 0 12 2.23245162 12 14 0 14"></polygon>
                <polygon id="Triangle" fill="#092736" points="9.85040245 0.0338631498 11.9769074 2.21134718 9.85040245 2.21134718"></polygon>
            </g>
            <g id="Group-2" transform="translate(3.000000, 5.000000)" fill="#FFFFFF">
                <g id="Group">
                    <polyline id="Shape" points="9.659125 4.71039236 9.20340625 4.71039236 9.20340625 5.14932292 8.74759375 5.14932292 8.74759375 4.71039236 8.29192187 4.71039236 8.29192187 4.27159722 8.74759375 4.27159722 8.74759375 3.83275694 9.20340625 3.83275694 9.20340625 4.27159722 9.659125 4.27159722 9.659125 4.71039236"></polyline>
                    <polyline id="Shape" points="7.99623437 4.71039236 7.5405625 4.71039236 7.5405625 5.14932292 7.08484375 5.14932292 7.08484375 4.71039236 6.629125 4.71039236 6.629125 4.27159722 7.08484375 4.27159722 7.08484375 3.83275694 7.5405625 3.83275694 7.5405625 4.27159722 7.99623437 4.27159722 7.99623437 4.71039236"></polyline>
                    <path d="M5.71651563,5.43058333 C5.37676563,6.01079861 4.73115625,6.40292014 3.99020312,6.40292014 C3.25379688,6.40292014 2.61184375,6.01571875 2.27035938,5.44164236 C2.10446875,5.16268403 2.00907813,4.83971528 2.00907813,4.49517014 C2.00907813,3.44158333 2.89609375,2.58746528 3.99020312,2.58746528 C4.721875,2.58746528 5.36045312,2.96983681 5.703625,3.53804514 L7.43523437,2.57785069 C6.74696875,1.43376042 5.46198438,0.664052083 3.99020312,0.664052083 C1.79289063,0.664052083 0.0116875,2.37932986 0.0116875,4.49517014 C0.0116875,5.18931597 0.203453125,5.84026389 0.538609375,6.40174653 C1.22514063,7.55188542 2.51378125,8.32633333 3.99020312,8.32633333 C5.46934375,8.32633333 6.76,7.54877083 7.44554687,6.39524653 L5.71651563,5.43058333" id="Shape"></path>
                </g>
            </g>
        </g>
    </g>
</svg>