<?xml version="1.0" encoding="UTF-8"?>
<svg width="16px" height="16px" viewBox="0 0 16 16" version="1.1" xmlns="http://www.w3.org/2000/svg" xmlns:xlink="http://www.w3.org/1999/xlink">
    <!-- Generator: Sketch 40.3 (33839) - http://www.bohemiancoding.com/sketch -->
    <title>css</title>
    <desc>Created with Sketch.</desc>
    <defs></defs>
    <g id="Page-1" stroke="none" stroke-width="1" fill="none" fill-rule="evenodd">
        <g id="css">
            <g id="Group" transform="translate(2.000000, 1.000000)">
                <polygon id="Rectangle" fill="#1572B6" points="0 0 9.85464471 0 12 2.23245162 12 14 0 14"></polygon>
                <polygon id="Triangle" fill="#2C4652" points="9.85040245 0.0338631498 11.9769074 2.21134718 9.85040245 2.21134718"></polygon>
            </g>
            <path d="M12.9422399,11.5355703 L11.4960107,11.5355703 L13,13.152827 L13,13.9226479 L9.90215927,13.9226479 L9.90215927,13.0213403 L11.4058557,13.0213403 L9.90215927,11.4040256 L9.90215927,10.6331018 L12.9422399,10.6331018 L12.9422399,11.5355703 L12.9422399,11.5355703 L12.9422399,11.5355703 Z M9.2881211,11.5355703 L7.84189191,11.5355703 L9.34582264,13.152827 L9.34582264,13.9226479 L6.24798191,13.9226479 L6.24798191,13.0213403 L7.75185406,13.0213403 L6.24798191,11.4040256 L6.24798191,10.6331018 L9.2881211,10.6331018 L9.2881211,11.5355703 L9.2881211,11.5355703 L9.2881211,11.5355703 Z M5.66973627,11.5722008 L4.10915844,11.5722008 L4.10915844,12.9836068 L5.66973627,12.9836068 L5.66973627,13.9226479 L3,13.9226479 L3,10.6331018 L5.66973627,10.6331018 L5.66973627,11.5722008 L5.66973627,11.5722008 L5.66973627,11.5722008 Z" id="Shape" fill="#FFFFFF"></path>
        </g>
    </g>
</svg>