<?xml version="1.0" encoding="UTF-8"?>
<svg width="16px" height="16px" viewBox="0 0 16 16" version="1.1" xmlns="http://www.w3.org/2000/svg" xmlns:xlink="http://www.w3.org/1999/xlink">
    <!-- Generator: Sketch 40.3 (33839) - http://www.bohemiancoding.com/sketch -->
    <title>deb</title>
    <desc>Created with Sketch.</desc>
    <defs></defs>
    <g id="Page-1" stroke="none" stroke-width="1" fill="none" fill-rule="evenodd">
        <g id="deb">
            <g id="1477352506_debian" transform="translate(1.000000, 1.000000)">
                <g id="Layer_1">
                    <g id="g7966" transform="translate(0.005877, 0.026492)">
                        <path d="M13.7173712,6.84850827 C13.7173712,10.6306919 10.6513057,13.6967574 6.86912128,13.6967574 C3.08693907,13.6967574 0.0208733717,10.6306919 0.0208733717,6.84850827 C0.0208733717,3.06632469 3.08693907,0.000259176516 6.86912128,0.000259176516 C10.6513057,0.000259176516 13.7173712,3.06632469 13.7173712,6.84850827 L13.7173712,6.84850827 Z" id="path4894" fill="#D70751"></path>
                        <path d="M9.71487257,6.18405932 C9.72414713,6.43309322 9.64220088,6.55410472 9.56808463,6.76809271 L9.43481396,6.83437118 C9.32585992,7.04609122 9.4456267,6.96878332 9.36760749,7.1371082 C9.19731882,7.28832182 8.8516053,7.61012719 8.7408964,7.63960757 C8.65997738,7.63785538 8.79563157,7.54415769 8.81336211,7.50756557 C8.58565783,7.6638303 8.63060214,7.74216919 8.28230715,7.83730902 L8.27220598,7.81452843 C7.41358001,8.21858981 6.22077018,7.41799207 6.23643823,6.32578998 C6.22736697,6.39505815 6.21035871,6.37774091 6.19139494,6.40557101 C6.14706858,5.8437 6.45094625,5.279354 6.96343604,5.04856533 C7.46469844,4.80056241 8.05234241,4.90219631 8.41116124,5.23709254 C8.21407344,4.97878193 7.82145477,4.70490708 7.35647738,4.73026379 C6.90077456,4.73768531 6.47433463,5.02722795 6.33209971,5.34171587 C6.0987269,5.48860011 6.07151581,5.90822549 5.96987816,5.98512116 C5.83289446,6.99115141 6.227268,7.42561985 6.89448541,7.93698422 C6.99920477,8.0076945 6.92396766,8.01851768 6.93798249,8.07232378 C6.71636406,7.96862845 6.51350608,7.81195151 6.34652918,7.62012563 C6.43517923,7.7496929 6.53071766,7.87565333 6.6543125,7.97460703 C6.44517339,7.90399893 6.16593604,7.46819054 6.08460238,7.45046107 C6.44486308,8.09551554 7.54602675,8.58172972 8.12294893,8.34042605 C7.85598492,8.35032177 7.51695914,8.34588913 7.21721449,8.23508259 C7.09094188,8.17024679 6.91994431,8.03614416 6.95054742,8.01109616 C7.73764932,8.3049679 8.55050973,8.23353638 9.23143969,7.68774434 C9.40481809,7.55271318 9.59405982,7.32316148 9.64879767,7.32006907 C9.56643677,7.4439678 9.66291683,7.3796475 9.5996267,7.48901243 C9.77197519,7.21060115 9.52448322,7.37562763 9.77795404,7.00826134 L9.87155034,7.1371082 C9.83650122,6.90580297 10.1586124,6.62522807 10.1258344,6.25971749 C10.199742,6.14798295 10.2081953,6.38011158 10.1298551,6.63718548 C10.2386031,6.35197196 10.1586124,6.3061018 10.1864467,6.07067452 C10.2164399,6.14983813 10.2563337,6.23384555 10.2766403,6.31744047 C10.2057208,6.04171044 10.3491034,5.85328621 10.3847704,5.69300161 C10.3495153,5.67753981 10.2754018,5.81483784 10.2582918,5.48932158 C10.2608599,5.34790042 10.2977709,5.41520908 10.3118928,5.38036915 C10.284267,5.36439213 10.2113893,5.25595599 10.16717,5.04804984 C10.1990197,4.9990886 10.2529309,5.17473094 10.2966367,5.18184323 C10.2684946,5.01661076 10.2201503,4.8905484 10.2180905,4.76366131 C10.0902716,4.49669195 10.1728385,4.79932571 10.069347,4.64903928 C9.93328356,4.22498098 10.1821158,4.55060105 10.1990224,4.3580537 C10.4049754,4.65646107 10.5223721,5.11927538 10.5764866,5.31089607 C10.5352554,5.07722017 10.4687685,4.85076087 10.3874509,4.6317223 C10.450214,4.65821352 10.2865355,4.15107527 10.4689745,4.48689949 C10.2742675,3.77103142 9.63632636,3.10206236 9.04929767,2.78829618 C9.12093945,2.85395645 9.21154499,2.93641739 9.17918166,2.94940552 C8.88706104,2.77572135 8.93839883,2.76201202 8.89654426,2.68862072 C8.65895015,2.59183166 8.64307879,2.696558 8.48587938,2.68883473 C8.03749562,2.45093349 7.95111673,2.47618801 7.5385017,2.3273448 L7.55726216,2.4151661 C7.26030496,2.31621238 7.21123565,2.45247969 6.89036308,2.41538011 C6.87088035,2.40022755 6.99322592,2.36013106 7.09403696,2.34559672 C6.80687062,2.38352986 6.82026751,2.28890445 6.53927529,2.35600793 C6.60844261,2.30745839 6.6818339,2.27519591 6.75563983,2.23396544 C6.52154742,2.2481892 6.19654985,2.37023276 6.2968446,2.25911564 C5.91494771,2.4296052 5.23659387,2.66884614 4.85593288,3.02580149 L4.84397787,2.94581313 C4.66956688,3.1551625 4.08336746,3.5710778 4.03667364,3.84247846 L3.98997714,3.8533019 C3.89937962,4.00698945 3.84052481,4.18108585 3.76857539,4.33910277 C3.64992947,4.54144259 3.59457636,4.41702943 3.61148298,4.44877668 C3.37801921,4.92210518 3.26185044,5.31977552 3.161759,5.64611705 C3.23309047,5.7528018 3.16352456,6.2884919 3.19041464,6.71718801 C3.07331761,8.83479793 4.67657563,10.8906656 6.42909606,11.365231 C6.6859589,11.4572795 7.06785579,11.4539809 7.39275973,11.463051 C7.00951459,11.3533779 6.96003332,11.4050194 6.58648541,11.2748328 C6.31715126,11.1478427 6.25818677,11.0030199 6.06728915,10.8373752 L6.1428446,10.9708591 C5.76867875,10.8384057 5.92525486,10.8069679 5.62075924,10.7105911 L5.7014696,10.6053493 C5.58014591,10.5960723 5.38018507,10.4010511 5.32555423,10.2927171 L5.19278648,10.297974 C5.03342558,10.1015097 4.94839494,9.95957308 4.9546841,9.84958966 L4.91180229,9.92607364 C4.86325195,9.84268363 4.3251909,9.18824864 4.60431858,9.34059623 C4.55246984,9.29338718 4.48351119,9.26359837 4.40878769,9.1276403 L4.46558536,9.06280477 C4.33148006,8.88994426 4.21840102,8.66843283 4.22706031,8.5946293 C4.29869942,8.69131535 4.34838132,8.70945705 4.39765394,8.72605282 C4.05842218,7.88453385 4.03935409,8.67977123 3.7825929,7.86948429 L3.83681177,7.86515491 C3.79527286,7.80217456 3.76981128,7.73424769 3.73641269,7.66735046 L3.76012208,7.43182019 C3.51603283,7.14980127 3.69188303,6.2314904 3.72723979,5.72796005 C3.75146279,5.52324931 3.93102602,5.30524225 4.06738911,4.96333672 L3.98431931,4.94911163 C4.14325754,4.67204083 4.89159995,3.83598466 5.23834874,3.87886459 C5.40626459,3.66796982 5.20495015,3.87804066 5.17206785,3.82505822 C5.54097714,3.44336518 5.65693993,3.55541002 5.90587646,3.48665708 C6.17418069,3.32740453 5.67549441,3.54891596 5.80269528,3.42594575 C6.26684874,3.30751009 6.13150754,3.15650246 6.73687938,3.09640854 C6.80078745,3.13269142 6.58875389,3.15248232 6.53556493,3.19958865 C6.92211114,3.01033969 7.75898857,3.05352887 8.30282515,3.30452067 C8.93334557,3.5994234 9.64220088,4.47073147 9.67023857,5.29050193 L9.70209095,5.2990577 C9.68600827,5.62498592 9.75197884,6.00193843 9.63745793,6.3480706 L9.71487257,6.1840751" id="path14-1" fill="#FFFFFF"></path>
                    </g>
                </g>
            </g>
        </g>
    </g>
</svg>