<?xml version="1.0" encoding="UTF-8"?>
<svg width="16px" height="16px" viewBox="0 0 16 16" version="1.1" xmlns="http://www.w3.org/2000/svg" xmlns:xlink="http://www.w3.org/1999/xlink">
    <!-- Generator: Sketch 40.3 (33839) - http://www.bohemiancoding.com/sketch -->
    <title>exe</title>
    <desc>Created with Sketch.</desc>
    <defs></defs>
    <g id="Page-1" stroke="none" stroke-width="1" fill="none" fill-rule="evenodd">
        <g id="exe">
            <g id="Group" transform="translate(2.000000, 1.000000)">
                <polygon id="Rectangle" fill="#200E33" points="0 0 9.85464471 0 12 2.23245162 12 14 0 14"></polygon>
                <polygon id="Triangle" fill="#4A088C" points="9.85040245 0.0338631498 11.9769074 2.21134718 9.85040245 2.21134718"></polygon>
            </g>
            <path d="M3.09619141,12.1040039 L3.90917969,12.1040039 L3.90917969,13 L3.09619141,13 L3.09619141,12.1040039 Z M7.69091797,13 L5.42041016,13 L5.42041016,9.35498047 L7.69091797,9.35498047 L7.69091797,9.98974609 L6.140625,9.98974609 L6.140625,10.7758789 L7.54443359,10.7758789 L7.54443359,11.4106445 L6.140625,11.4106445 L6.140625,12.3652344 L7.69091797,12.3652344 L7.69091797,13 Z M10.9648438,13 L10.2202148,13 L9.52441406,11.7939453 L8.83105469,13 L8.08642578,13 L9.15576172,11.1494141 L8.11572266,9.35498047 L8.86035156,9.35498047 L9.52441406,10.5146484 L10.190918,9.35498047 L10.9355469,9.35498047 L9.90039062,11.1494141 L10.9648438,13 Z M13.7114258,13 L11.440918,13 L11.440918,9.35498047 L13.7114258,9.35498047 L13.7114258,9.98974609 L12.1611328,9.98974609 L12.1611328,10.7758789 L13.5649414,10.7758789 L13.5649414,11.4106445 L12.1611328,11.4106445 L12.1611328,12.3652344 L13.7114258,12.3652344 L13.7114258,13 Z" id=".EXE" fill="#FFFFFF"></path>
        </g>
    </g>
</svg>