<?xml version="1.0" encoding="UTF-8"?>
<svg width="16px" height="16px" viewBox="0 0 16 16" version="1.1" xmlns="http://www.w3.org/2000/svg" xmlns:xlink="http://www.w3.org/1999/xlink">
    <!-- Generator: Sketch 40.3 (33839) - http://www.bohemiancoding.com/sketch -->
    <title>gif</title>
    <desc>Created with Sketch.</desc>
    <defs></defs>
    <g id="Page-1" stroke="none" stroke-width="1" fill="none" fill-rule="evenodd">
        <g id="gif">
            <g id="Group" transform="translate(1.000000, 2.000000)" fill="#4990E2">
                <rect id="Rectangle" x="0" y="0" width="14" height="13" rx="1"></rect>
            </g>
            <path d="M4.43678733,12.099672 C4.43678733,11.906509 4.4000869,11.7516589 4.32668493,11.6351172 C4.25328297,11.5185755 4.15670288,11.4603055 4.03694178,11.4603055 C3.91846844,11.4603055 3.82285415,11.5182535 3.75009607,11.6341514 C3.67733798,11.7500492 3.64095948,11.9052212 3.64095948,12.099672 C3.64095948,12.2954106 3.67733798,12.4512265 3.75009607,12.5671243 C3.82285415,12.6830221 3.91846844,12.7409702 4.03694178,12.7409702 C4.15670288,12.7409702 4.25328297,12.6827002 4.32668493,12.5661585 C4.4000869,12.4496168 4.43678733,12.2941228 4.43678733,12.099672 L4.43678733,12.099672 Z M5.00275228,13.0538928 C5.00275228,13.4002985 4.92452241,13.650441 4.76806033,13.8043275 C4.61159825,13.9582141 4.35759263,14.0351563 4.00603585,14.0351563 C3.8875625,14.0351563 3.77037867,14.026464 3.65448083,14.0090794 C3.53858299,13.9916947 3.42075529,13.9649742 3.30099419,13.9289171 L3.30099419,13.409311 C3.40787775,13.4685477 3.51669131,13.5123307 3.62743813,13.5406613 C3.73818496,13.5689919 3.85214946,13.5831569 3.96933505,13.5831569 C4.12901652,13.5831569 4.24684422,13.5454907 4.32282169,13.4701571 C4.39879916,13.3948235 4.43678733,13.2773177 4.43678733,13.1176363 L4.43678733,12.8839101 C4.38141392,12.9869304 4.30801305,13.0635506 4.21658254,13.113773 C4.12515202,13.1639954 4.01376299,13.1891063 3.8824121,13.1891063 C3.63516338,13.1891063 3.43878388,13.0925262 3.2932677,12.8993631 C3.14775153,12.7062 3.07499453,12.4441461 3.07499453,12.1131934 C3.07499453,11.7706509 3.14775153,11.4989389 3.2932677,11.2980493 C3.43878388,11.0971597 3.63387565,10.9967164 3.87854886,10.9967164 C4.00217322,10.9967164 4.11227452,11.0256905 4.20885605,11.0836394 C4.30543758,11.1415883 4.38141392,11.2233594 4.43678733,11.3289552 L4.43678733,11.0527334 L5.00275228,11.0527334 L5.00275228,13.0538928 Z M5.69427259,11.0527334 L6.81461277,11.0527334 L6.81461277,12.7815342 L7.51772281,12.7815342 L7.51772281,13.2161489 L5.54360616,13.2161489 L5.54360616,12.7815342 L6.24864782,12.7815342 L6.24864782,11.4873482 L5.69427259,11.4873482 L5.69427259,11.0527334 Z M6.24864782,10 L6.81461277,10 L6.81461277,10.6606144 L6.24864782,10.6606144 L6.24864782,10 Z M9.07654095,10.8634346 L9.07654095,11.0527334 L9.74101857,11.0527334 L9.74101857,11.4873482 L9.07654095,11.4873482 L9.07654095,13.2161489 L8.510576,13.2161489 L8.510576,11.4873482 L7.98517509,11.4873482 L7.98517509,11.0527334 L8.510576,11.0527334 L8.510576,10.902067 C8.510576,10.6419407 8.56466085,10.4616579 8.67283216,10.3612131 C8.78100348,10.2607683 8.98189005,10.2105467 9.27549791,10.2105467 L9.74101857,10.2105467 L9.74101857,10.6451614 L9.29867736,10.6451614 C9.21368561,10.6451614 9.1560595,10.6606142 9.12579728,10.6915203 C9.09553507,10.7224264 9.07911646,10.7797306 9.07654095,10.8634346 L9.07654095,10.8634346 Z" fill="#FFFFFF"></path>
            <g id="Group-3" transform="translate(8.000000, 3.000000)">
                <g id="Group" fill="#A6C5E9">
                    <rect id="Rectangle" x="0" y="0" width="6" height="6" rx="1"></rect>
                </g>
                <g id="Group-2" transform="translate(0.857143, 1.384615)">
                    <polygon id="Triangle-4" fill="#BB7334" points="1.07142857 0 2.14285714 3.69230769 0 3.69230769"></polygon>
                    <path d="M1.07142857,0 L1.48218645,1.38461538 C1.48218645,1.38461538 1.43933407,1.56096592 1.31257847,1.55946702 C1.24537486,1.55867233 1.11105293,1.3537909 1.04265485,1.38461538 C0.975622471,1.4148244 0.929545956,1.69950045 0.878540039,1.69950045 C0.808532715,1.69950045 0.668518066,1.38461538 0.668518066,1.38461538 L1.07142857,0 Z" id="Triangle-4" fill="#FFFFFF"></path>
                </g>
                <path d="M0,4.15384615 C0,4.15384615 1.33773927,4.69282927 2.75531371,4.6507882 C3.40161419,4.63162084 4.18957119,3.94606817 4.65429264,3.99610855 C5.17026629,4.05166769 6,4.79991555 6,4.79991555 L6,5.00895431 C6,5.55629373 5.54902482,6 5.00922203,6 L0.990777969,6 C0.443586406,6 0,5.55309765 0,4.9904973 L0,4.15384615 Z" id="Rectangle" fill="#70CF47"></path>
                <ellipse id="Oval-2" fill="#F8E81C" cx="4.71428571" cy="1.38461538" rx="0.857142857" ry="0.923076923"></ellipse>
            </g>
        </g>
    </g>
</svg>