<?xml version="1.0" encoding="UTF-8"?>
<svg width="16px" height="16px" viewBox="0 0 16 16" version="1.1" xmlns="http://www.w3.org/2000/svg" xmlns:xlink="http://www.w3.org/1999/xlink">
    <!-- Generator: Sketch 40.3 (33839) - http://www.bohemiancoding.com/sketch -->
    <title>h</title>
    <desc>Created with Sketch.</desc>
    <defs></defs>
    <g id="Page-1" stroke="none" stroke-width="1" fill="none" fill-rule="evenodd">
        <g id="h">
            <g id="Group" transform="translate(2.000000, 1.000000)">
                <polygon id="Rectangle" fill="#E0E0E0" points="0 0 9.85464471 0 12 2.23245162 12 14 0 14"></polygon>
                <polygon id="Triangle" fill="#A0A0A0" points="9.85040245 0.0338631498 11.9769074 2.21134718 9.85040245 2.21134718"></polygon>
            </g>
            <path d="M4.75390625,10.5664062 L6.0546875,10.5664062 L6.0546875,12 L4.75390625,12 L4.75390625,10.5664062 Z M12,9.16015625 L12,12 L10.8632812,12 L10.8632812,9.3359375 C10.8632812,9.02083176 10.8183598,8.79557359 10.7285156,8.66015625 C10.6386714,8.52473891 10.4921885,8.45703125 10.2890625,8.45703125 C10.0807281,8.45703125 9.91796934,8.54882721 9.80078125,8.73242188 C9.68359316,8.91601654 9.625,9.17057129 9.625,9.49609375 L9.625,12 L8.48828125,12 L8.48828125,5.921875 L9.625,5.921875 L9.625,8.28125 C9.70572957,8.03906129 9.84374902,7.85156316 10.0390625,7.71875 C10.234376,7.58593684 10.4700507,7.51953125 10.7460938,7.51953125 C11.1601583,7.51953125 11.4726552,7.65689967 11.6835938,7.93164062 C11.8945323,8.20638158 12,8.6158827 12,9.16015625 L12,9.16015625 Z" id=".h" fill="#E03333"></path>
        </g>
    </g>
</svg>