<?xml version="1.0" encoding="UTF-8"?>
<svg width="16px" height="16px" viewBox="0 0 16 16" version="1.1" xmlns="http://www.w3.org/2000/svg" xmlns:xlink="http://www.w3.org/1999/xlink">
    <!-- Generator: Sketch 40.3 (33839) - http://www.bohemiancoding.com/sketch -->
    <title>hpp</title>
    <desc>Created with Sketch.</desc>
    <defs></defs>
    <g id="Page-1" stroke="none" stroke-width="1" fill="none" fill-rule="evenodd">
        <g id="hpp">
            <g id="Group" transform="translate(2.000000, 1.000000)">
                <polygon id="Rectangle" fill="#E0E0E0" points="0 0 9.85464471 0 12 2.23245162 12 14 0 14"></polygon>
                <polygon id="Triangle" fill="#A0A0A0" points="9.85040245 0.0338631498 11.9769074 2.21134718 9.85040245 2.21134718"></polygon>
            </g>
            <path d="M3.75390625,11.5664062 L5.0546875,11.5664062 L5.0546875,13 L3.75390625,13 L3.75390625,11.5664062 Z M9,10.1601562 L9,13 L7.86328125,13 L7.86328125,10.3359375 C7.86328125,10.0208318 7.81835982,9.79557359 7.72851562,9.66015625 C7.63867143,9.52473891 7.49218852,9.45703125 7.2890625,9.45703125 C7.08072813,9.45703125 6.91796934,9.54882721 6.80078125,9.73242188 C6.68359316,9.91601654 6.625,10.1705713 6.625,10.4960938 L6.625,13 L5.48828125,13 L5.48828125,6.921875 L6.625,6.921875 L6.625,9.28125 C6.70572957,9.03906129 6.84374902,8.85156316 7.0390625,8.71875 C7.23437598,8.58593684 7.4700507,8.51953125 7.74609375,8.51953125 C8.16015832,8.51953125 8.4726552,8.65689967 8.68359375,8.93164062 C8.8945323,9.20638158 9,9.6158827 9,10.1601562 L9,10.1601562 Z" id=".h" fill="#E03333"></path>
            <path d="M8.79443359,5.08984375 L8.79443359,6.13964844 L9.84423828,6.13964844 L9.84423828,6.72070312 L8.79443359,6.72070312 L8.79443359,7.77539062 L8.21582031,7.77539062 L8.21582031,6.72070312 L7.16113281,6.72070312 L7.16113281,6.13964844 L8.21582031,6.13964844 L8.21582031,5.08984375 L8.79443359,5.08984375 Z M11.8046875,5.08984375 L11.8046875,6.13964844 L12.8544922,6.13964844 L12.8544922,6.72070312 L11.8046875,6.72070312 L11.8046875,7.77539062 L11.2260742,7.77539062 L11.2260742,6.72070312 L10.1713867,6.72070312 L10.1713867,6.13964844 L11.2260742,6.13964844 L11.2260742,5.08984375 L11.8046875,5.08984375 Z" id="++" fill="#7ED321"></path>
        </g>
    </g>
</svg>