<?xml version="1.0" encoding="UTF-8"?>
<svg width="16px" height="16px" viewBox="0 0 16 16" version="1.1" xmlns="http://www.w3.org/2000/svg" xmlns:xlink="http://www.w3.org/1999/xlink">
    <!-- Generator: Sketch 40.3 (33839) - http://www.bohemiancoding.com/sketch -->
    <title>ico</title>
    <desc>Created with Sketch.</desc>
    <defs></defs>
    <g id="Page-1" stroke="none" stroke-width="1" fill="none" fill-rule="evenodd">
        <g id="ico">
            <g id="Group" transform="translate(1.000000, 2.000000)">
                <rect id="Rectangle" fill="#50E3C2" x="0" y="0" width="14" height="13" rx="1"></rect>
                <rect id="Rectangle" fill="#41C1A4" x="1" y="2" width="11" height="10"></rect>
            </g>
            <path d="M3.53955078,10.265625 L4.95556641,10.265625 L4.95556641,12.4506836 L5.84423828,12.4506836 L5.84423828,13 L3.34912109,13 L3.34912109,12.4506836 L4.24023438,12.4506836 L4.24023438,10.8149414 L3.53955078,10.8149414 L3.53955078,10.265625 Z M4.24023438,8.93505859 L4.95556641,8.93505859 L4.95556641,9.77001953 L4.24023438,9.77001953 L4.24023438,8.93505859 Z M8.60058594,12.8608398 C8.48014263,12.9308272 8.35074939,12.9833169 8.21240234,13.0183105 C8.0740553,13.0533042 7.92513101,13.0708008 7.765625,13.0708008 C7.34407341,13.0708008 7.01448687,12.9438489 6.77685547,12.6899414 C6.53922407,12.4360339 6.42041016,12.0844749 6.42041016,11.6352539 C6.42041016,11.1844053 6.54003787,10.8316256 6.77929688,10.5769043 C7.01855588,10.322183 7.34895623,10.1948242 7.77050781,10.1948242 C7.91699292,10.1948242 8.05818617,10.2119139 8.1940918,10.2460938 C8.32999742,10.2802736 8.46549412,10.3331702 8.60058594,10.4047852 L8.60058594,11.059082 C8.49641875,10.9695634 8.3820807,10.9007978 8.25756836,10.8527832 C8.13305602,10.8047686 8.00406968,10.7807617 7.87060547,10.7807617 C7.63785691,10.7807617 7.45882224,10.854817 7.33349609,11.0029297 C7.20816995,11.1510424 7.14550781,11.361815 7.14550781,11.6352539 C7.14550781,11.9086928 7.20816995,12.1186516 7.33349609,12.2651367 C7.45882224,12.4116218 7.63785691,12.4848633 7.87060547,12.4848633 C8.00895251,12.4848633 8.13834575,12.4616702 8.25878906,12.4152832 C8.37923237,12.3688963 8.49316353,12.2985031 8.60058594,12.2041016 L8.60058594,12.8608398 Z M10.5244141,10.7807617 C10.3535148,10.7807617 10.2192388,10.8560377 10.121582,11.0065918 C10.0239253,11.1571459 9.97509766,11.3666979 9.97509766,11.6352539 C9.97509766,11.9038099 10.0239253,12.1133619 10.121582,12.263916 C10.2192388,12.4144702 10.3535148,12.4897461 10.5244141,12.4897461 C10.696941,12.4897461 10.8320308,12.4144702 10.9296875,12.263916 C11.0273442,12.1133619 11.0761719,11.9038099 11.0761719,11.6352539 C11.0761719,11.3666979 11.0273442,11.1571459 10.9296875,11.0065918 C10.8320308,10.8560377 10.696941,10.7807617 10.5244141,10.7807617 L10.5244141,10.7807617 Z M9.25976562,11.6352539 C9.25976562,11.194171 9.37410367,10.8446465 9.6027832,10.5866699 C9.83146273,10.3286934 10.1386699,10.199707 10.5244141,10.199707 C10.9117858,10.199707 11.2198068,10.3286934 11.4484863,10.5866699 C11.6771659,10.8446465 11.7915039,11.194171 11.7915039,11.6352539 C11.7915039,12.0763368 11.6771659,12.4258613 11.4484863,12.6838379 C11.2198068,12.9418144 10.9117858,13.0708008 10.5244141,13.0708008 C10.1386699,13.0708008 9.83146273,12.9418144 9.6027832,12.6838379 C9.37410367,12.4258613 9.25976562,12.0763368 9.25976562,11.6352539 L9.25976562,11.6352539 Z" fill="#FFFFFF"></path>
        </g>
    </g>
</svg>