<?xml version="1.0" encoding="UTF-8"?>
<svg width="16px" height="16px" viewBox="0 0 16 16" version="1.1" xmlns="http://www.w3.org/2000/svg" xmlns:xlink="http://www.w3.org/1999/xlink">
    <!-- Generator: Sketch 40.3 (33839) - http://www.bohemiancoding.com/sketch -->
    <title>java</title>
    <desc>Created with Sketch.</desc>
    <defs></defs>
    <g id="Page-1" stroke="none" stroke-width="1" fill="none" fill-rule="evenodd">
        <g id="java">
            <g id="Java_Logo" transform="translate(2.000000, 1.000000)">
                <g id="Layer_1">
                    <path d="M3.54724,10.723903 C3.54724,10.723903 2.98012,11.0316342 3.95084,11.1357665 C5.12684,11.2609491 5.72788,11.2429965 7.02384,11.0141296 C7.02384,11.0141296 7.36456,11.2134737 7.8404,11.3861317 C4.9352,12.5479339 1.26536,11.3188376 3.54724,10.723903" id="Shape" fill="#5382A1"></path>
                    <path d="M3.19224,9.20782725 C3.19224,9.20782725 2.55616,9.64716076 3.5276,9.74091709 C4.78384,9.86184484 5.77592,9.87173554 7.4926,9.56329512 C7.4926,9.56329512 7.73004,9.78790722 8.1034,9.91073847 C4.59084,10.8691282 0.67848,9.98631832 3.19224,9.20782725" id="Shape" fill="#5382A1"></path>
                    <path d="M6.185,6.63605972 C6.90084,7.40507065 5.99692,8.09708344 5.99692,8.09708344 C5.99692,8.09708344 7.81456,7.22155159 6.9798,6.12517729 C6.20016,5.1027406 5.60228,4.59473207 8.83896,2.84318315 C8.83896,2.84318315 3.75844,4.02715543 6.185,6.63605972" id="Shape" fill="#E76F00"></path>
                    <path d="M10.02736,11.8452839 C10.02736,11.8452839 10.44704,12.1679445 9.56516,12.4175633 C7.88824,12.8915702 2.58564,13.0347054 1.1126,12.4364489 C0.58308,12.2215036 1.57608,11.9232151 1.88844,11.8606238 C2.2142,11.7947107 2.40036,11.8069901 2.40036,11.8069901 C1.81148,11.4199094 -1.40592,12.5670435 0.76608,12.8955638 C6.68944,13.7918848 11.5638,12.4919488 10.02736,11.8452839" id="Shape" fill="#5382A1"></path>
                    <path d="M3.81996,7.63699813 C3.81996,7.63699813 1.12272,8.23476939 2.8648,8.45184218 C3.60036,8.54373234 5.06668,8.52294322 6.43252,8.41616102 C7.54876,8.32830179 8.6696,8.14149827 8.6696,8.14149827 C8.6696,8.14149827 8.276,8.29877899 7.99124,8.48020794 C5.25224,9.1523647 -0.039,8.83966942 1.48428,8.15213543 C2.77252,7.57108504 3.81996,7.63699813 3.81996,7.63699813" id="Shape" fill="#5382A1"></path>
                    <path d="M8.65848,10.1605812 C11.4428,8.81055718 10.15544,7.51319648 9.25688,7.68798187 C9.03664,7.73075447 8.93844,7.76781658 8.93844,7.76781658 C8.93844,7.76781658 9.0202,7.64830712 9.17636,7.59657691 C10.954,7.01343642 12.32112,9.31647561 8.60252,10.2286217 C8.60252,10.228659 8.6456,10.1927166 8.65848,10.1605812" id="Shape" fill="#5382A1"></path>
                    <path d="M6.9798,0.0148920288 C6.9798,0.0148920288 8.5218,1.45419355 5.51728,3.66743268 C3.10796,5.44283125 4.96788,6.45511597 5.51628,7.61169288 C4.10992,6.42772061 3.07784,5.38546521 3.77024,4.41543055 C4.78652,2.99150626 7.60196,2.3011357 6.9798,0.0148920288" id="Shape" fill="#E76F00"></path>
                    <path d="M4.09356,13.8188323 C6.76616,13.9784644 10.87024,13.7302639 10.96744,12.5502853 C10.96744,12.5502853 10.7806,12.997606 8.75868,13.3528499 C6.47756,13.7534044 3.66412,13.7066382 1.99544,13.449928 C1.99548,13.4498907 2.33704,13.7137297 4.09356,13.8188323" id="Shape" fill="#5382A1"></path>
                </g>
            </g>
        </g>
    </g>
</svg>