<?xml version="1.0" encoding="UTF-8"?>
<svg width="16px" height="16px" viewBox="0 0 16 16" version="1.1" xmlns="http://www.w3.org/2000/svg" xmlns:xlink="http://www.w3.org/1999/xlink">
    <!-- Generator: Sketch 40.3 (33839) - http://www.bohemiancoding.com/sketch -->
    <title>js</title>
    <desc>Created with Sketch.</desc>
    <defs></defs>
    <g id="Page-1" stroke="none" stroke-width="1" fill="none" fill-rule="evenodd">
        <g id="js">
            <g id="Group" transform="translate(2.000000, 1.000000)">
                <polygon id="Rectangle" fill="#F7DF1E" points="0 0 9.85464471 0 12 2.23245162 12 14 0 14"></polygon>
                <polygon id="Triangle" fill="#AC9A06" points="9.85040245 0.0338631498 11.9769074 2.21134718 9.85040245 2.21134718"></polygon>
            </g>
            <path d="M7.16065079,9.69712479 L8.48155988,9.69712479 L8.48155988,12.0159894 C8.48155988,12.5028468 8.43840285,12.8733183 8.35208751,13.1274151 C8.26577217,13.381512 8.09217425,13.5968122 7.83128855,13.7733222 C7.57040285,13.9498322 7.2362996,14.0380859 6.82896877,14.0380859 C6.39836189,14.0380859 6.06474355,13.9798967 5.82810373,13.8635165 C5.59146392,13.7471362 5.4086527,13.5769327 5.27966461,13.3529007 C5.15067651,13.1288688 5.07454558,12.8519849 5.05126953,12.5222409 L6.3110793,12.3505809 C6.31301897,12.538729 6.32950593,12.6783832 6.36054066,12.7695477 C6.39157539,12.8607122 6.44394571,12.9344186 6.51765319,12.990669 C6.56808463,13.0275228 6.63985136,13.0459494 6.73295555,13.0459494 C6.88037052,13.0459494 6.98850554,12.9911545 7.05736384,12.8815631 C7.12622215,12.7719717 7.16065079,12.5872209 7.16065079,12.327305 L7.16065079,9.69712479 Z M9.13037646,12.5513358 L10.3843672,12.4727796 C10.4115226,12.676445 10.4668024,12.8316163 10.5502083,12.9382982 C10.6859852,13.1109289 10.8799493,13.1972429 11.1321065,13.1972429 C11.3202546,13.1972429 11.4652428,13.1531161 11.5670755,13.0648611 C11.6689082,12.9766061 11.7198238,12.87429 11.7198238,12.7579097 C11.7198238,12.6473485 11.6713328,12.5484268 11.5743492,12.4611416 C11.4773657,12.3738564 11.2523673,12.2914217 10.8993472,12.2138348 C10.3213254,12.0838769 9.90915155,11.9112488 9.66281338,11.6959454 C9.41453554,11.4806419 9.29039848,11.2061827 9.29039848,10.8725593 C9.29039848,10.6533765 9.35392174,10.4463198 9.48097017,10.2513829 C9.60801859,10.056446 9.79907328,9.90321432 10.05414,9.79168326 C10.3092067,9.6801522 10.658827,9.6243875 11.1030116,9.6243875 C11.6480591,9.6243875 12.0636273,9.72573377 12.3497287,9.92842935 C12.6358301,10.1311249 12.8060336,10.4535903 12.8603444,10.8958352 L11.6179916,10.9685725 C11.5850172,10.7765451 11.515675,10.6368909 11.409963,10.5496058 C11.3042509,10.4623206 11.1582929,10.4186787 10.9720845,10.4186787 C10.8188505,10.4186787 10.7034419,10.4511676 10.625855,10.5161466 C10.5482682,10.5811256 10.5094754,10.660166 10.5094754,10.7532702 C10.5094754,10.8211586 10.5414795,10.8822573 10.6054886,10.9365681 C10.667558,10.9928186 10.8149708,11.0451889 11.0477313,11.0936807 C11.6238135,11.2178196 12.0364722,11.3434114 12.2857199,11.4704598 C12.5349675,11.5975082 12.716324,11.7551041 12.8297948,11.9432521 C12.9432655,12.1314002 13,12.3418513 13,12.5746118 C13,12.8481053 12.924354,13.1002587 12.7730597,13.3310795 C12.6217654,13.5619003 12.4103444,13.736953 12.1387905,13.8562427 C11.8672367,13.9755325 11.5248899,14.0351764 11.1117401,14.0351764 C10.3863033,14.0351764 9.88393612,13.8955223 9.60462355,13.6162097 C9.32531098,13.3368971 9.1672302,12.9819427 9.13037646,12.5513358 L9.13037646,12.5513358 Z" id="JS" fill="#1E1E1E"></path>
        </g>
    </g>
</svg>