<?xml version="1.0" encoding="UTF-8"?>
<svg width="16px" height="16px" viewBox="0 0 16 16" version="1.1" xmlns="http://www.w3.org/2000/svg" xmlns:xlink="http://www.w3.org/1999/xlink">
    <!-- Generator: Sketch 40.3 (33839) - http://www.bohemiancoding.com/sketch -->
    <title>json</title>
    <desc>Created with Sketch.</desc>
    <defs></defs>
    <g id="Page-1" stroke="none" stroke-width="1" fill="none" fill-rule="evenodd">
        <g id="json">
            <g id="Group" transform="translate(2.000000, 1.000000)">
                <polygon id="Rectangle" fill="#162448" points="0 0 9.85464471 0 12 2.23245162 12 14 0 14"></polygon>
                <polygon id="Triangle" fill="#4664AE" points="9.85040245 0.0338631498 11.9769074 2.21134718 9.85040245 2.21134718"></polygon>
            </g>
            <path d="M8.41370608,6.08789062 L8.41370608,6.64397889 L8.33741348,6.64397889 C8.2662067,6.64397889 8.21280242,6.6589547 8.17719903,6.68890676 C8.14159564,6.71885882 8.11644759,6.76491648 8.10175412,6.82708113 C8.09384226,6.86098912 8.08932126,6.95395213 8.088191,7.10597296 C8.08706073,7.25799379 8.07123724,7.37751766 8.04072005,7.46454817 C8.01811472,7.53123389 7.98590261,7.58492073 7.94408275,7.62561032 C7.9124353,7.65612751 7.86044382,7.68720937 7.78810678,7.71885683 C7.86383462,7.75389509 7.92006453,7.79034563 7.95679819,7.82820955 C7.99353184,7.86607348 8.02489627,7.9237162 8.05089239,8.00113944 C8.07688852,8.07856269 8.08988639,8.20204244 8.08988639,8.37158239 C8.08988639,8.52416835 8.09779813,8.6236303 8.11362186,8.66997122 C8.12944559,8.71631214 8.15572389,8.74908937 8.19245755,8.7683039 C8.2291912,8.78751843 8.30293998,8.79712555 8.41370608,8.79712555 L8.41370608,9.34643225 L8.20008681,9.34643225 C7.97968487,9.34643225 7.82314532,9.32241445 7.73046348,9.27437813 C7.63778164,9.22634181 7.57166205,9.15626635 7.53210273,9.06414964 C7.4925434,8.97203293 7.47276404,8.83385994 7.47276404,8.64962653 C7.47276404,8.60893694 7.47389429,8.56824796 7.47615482,8.52755837 C7.47728509,8.50269251 7.47785021,8.4772619 7.47785021,8.45126577 C7.47785021,8.32015487 7.46598259,8.2269093 7.442247,8.17152624 C7.41851141,8.11614319 7.38432136,8.07601934 7.33967584,8.05115348 C7.29503032,8.02628762 7.23032354,8.01272463 7.14555356,8.01046409 L7.14555356,7.42894496 C7.23258407,7.42894496 7.29785598,7.41538197 7.34137123,7.38825557 C7.38488649,7.36112918 7.41794628,7.31959251 7.44055161,7.26364433 C7.46315694,7.20769614 7.47445943,7.11303776 7.47445943,6.97966633 L7.47445943,6.92202303 C7.47332916,6.8960269 7.47276404,6.87003117 7.47276404,6.84403504 C7.47276404,6.64397789 7.48943522,6.49930597 7.52277807,6.41001493 C7.55612093,6.32072388 7.6021786,6.2523438 7.66095245,6.20487261 C7.70503283,6.16870408 7.76493605,6.1415781 7.8406639,6.12349384 C7.94125761,6.09975824 8.05597792,6.08789062 8.18482829,6.08789062 L8.41370608,6.08789062 Z M8.49169407,6.08789062 L8.49169407,6.64397889 L8.56798667,6.64397889 C8.63919345,6.64397889 8.69259773,6.6589547 8.72820112,6.68890676 C8.76380451,6.71885882 8.78895256,6.76491648 8.80364602,6.82708113 C8.81155789,6.86098912 8.81607889,6.95395213 8.81720915,7.10597296 C8.81833942,7.25799379 8.83416291,7.37751766 8.8646801,7.46454817 C8.88728543,7.53123389 8.91949754,7.58492073 8.96131739,7.62561032 C8.99296485,7.65612751 9.04495632,7.68720937 9.11729337,7.71885683 C9.04156553,7.75389509 8.98533562,7.79034563 8.94860196,7.82820955 C8.9118683,7.86607348 8.88050388,7.9237162 8.85450776,8.00113944 C8.82851163,8.07856269 8.81551376,8.20204244 8.81551376,8.37158239 C8.81551376,8.52416835 8.80760202,8.6236303 8.79177829,8.66997122 C8.77595456,8.71631214 8.74967626,8.74908937 8.7129426,8.7683039 C8.67620895,8.78751843 8.60246017,8.79712555 8.49169407,8.79712555 L8.49169407,9.34643225 L8.70531334,9.34643225 C8.92571528,9.34643225 9.08225483,9.32241445 9.17493667,9.27437813 C9.26761851,9.22634181 9.3337381,9.15626635 9.37329742,9.06414964 C9.41285675,8.97203293 9.43263611,8.83385994 9.43263611,8.64962653 C9.43263611,8.60893694 9.43150586,8.56824796 9.42924533,8.52755837 C9.42811506,8.50269251 9.42754994,8.4772619 9.42754994,8.45126577 C9.42754994,8.32015487 9.43941756,8.2269093 9.46315315,8.17152624 C9.48688874,8.11614319 9.52107879,8.07601934 9.56572431,8.05115348 C9.61036983,8.02628762 9.67507661,8.01272463 9.75984659,8.01046409 L9.75984659,7.42894496 C9.67281608,7.42894496 9.60754417,7.41538197 9.56402892,7.38825557 C9.52051366,7.36112918 9.48745387,7.31959251 9.46484854,7.26364433 C9.44224321,7.20769614 9.43094072,7.11303776 9.43094072,6.97966633 L9.43094072,6.92202303 C9.43207099,6.8960269 9.43263611,6.87003117 9.43263611,6.84403504 C9.43263611,6.64397789 9.41596493,6.49930597 9.38262207,6.41001493 C9.34927922,6.32072388 9.30322155,6.2523438 9.2444477,6.20487261 C9.20036731,6.16870408 9.1404641,6.1415781 9.06473625,6.12349384 C8.96414254,6.09975824 8.84942223,6.08789062 8.72057186,6.08789062 L8.49169407,6.08789062 Z M4.43716634,10.4704765 L5.20687388,10.4704765 L5.20687388,11.8217032 C5.20687388,12.1054001 5.18172583,12.3212777 5.13142898,12.4693426 C5.08113212,12.6174075 4.9799748,12.7428652 4.82795398,12.8457194 C4.67593315,12.9485737 4.48124769,13 4.24389175,13 C3.99297262,13 3.79856972,12.9660925 3.66067723,12.8982765 C3.52278473,12.8304606 3.41625872,12.7312812 3.34109601,12.6007354 C3.2659333,12.4701896 3.22157101,12.3088465 3.20800781,12.1167013 L3.94211214,12.0166732 C3.94324241,12.126309 3.95284953,12.207687 3.97093379,12.2608095 C3.98901805,12.313932 4.01953479,12.3568815 4.06248491,12.3896592 C4.09187184,12.4111343 4.13369106,12.4218716 4.18794385,12.4218716 C4.27384409,12.4218716 4.3368555,12.3899421 4.37697995,12.3260821 C4.41710441,12.262222 4.43716634,12.1545657 4.43716634,12.0031101 L4.43716634,10.4704765 Z M5.58494609,12.1336552 L6.31565964,12.0878796 C6.33148337,12.2065576 6.36369547,12.2969775 6.41229693,12.3591422 C6.49141557,12.4597359 6.60444051,12.510032 6.75137514,12.510032 C6.86101098,12.510032 6.94549712,12.4843188 7.0048361,12.4328917 C7.06417509,12.3814646 7.09384414,12.3218439 7.09384414,12.2540279 C7.09384414,12.1896027 7.0655879,12.13196 7.00907458,12.081098 C6.95256126,12.0302361 6.82145233,11.9822005 6.61574385,11.9369898 C6.27892448,11.861262 6.03874648,11.7606698 5.89520265,11.6352102 C5.75052856,11.5097506 5.6781926,11.3498203 5.6781926,11.1554145 C5.6781926,11.0276944 5.71520826,10.9070403 5.78924071,10.7934485 C5.86327316,10.6798568 5.97460272,10.5905671 6.12323275,10.5255767 C6.27186278,10.4605864 6.47559023,10.4280918 6.73442123,10.4280918 C7.05202608,10.4280918 7.29418201,10.4871473 7.4608963,10.6052601 C7.62761059,10.723373 7.72678997,10.9112769 7.75843743,11.1689776 L7.03450545,11.2113624 C7.01529092,11.0994661 6.9748845,11.0180881 6.91328499,10.9672261 C6.85168547,10.9163641 6.7666342,10.8909335 6.65812863,10.8909335 C6.56883759,10.8909335 6.50158775,10.9098652 6.45637709,10.9477291 C6.41116644,10.985593 6.38856145,11.0316507 6.38856145,11.0859035 C6.38856145,11.1254628 6.40721057,11.1610657 6.44450936,11.1927131 C6.48067788,11.2254908 6.56657684,11.2560076 6.7022088,11.2842642 C7.03789791,11.3566013 7.27835847,11.4297849 7.4235977,11.5038174 C7.56883692,11.5778498 7.67451524,11.6696826 7.74063583,11.7793184 C7.80675641,11.8889543 7.8398162,12.0115863 7.8398162,12.1472183 C7.8398162,12.3065859 7.79573648,12.4535183 7.7075757,12.58802 C7.61941492,12.7225217 7.49621774,12.8245267 7.33798045,12.8940381 C7.17974316,12.9635494 6.98025414,12.9983046 6.7395074,12.9983046 C6.31678778,12.9983046 6.02405319,12.9169267 5.86129483,12.7541683 C5.69853647,12.5914099 5.60642115,12.3845743 5.58494609,12.1336552 L5.58494609,12.1336552 Z M8.12972808,11.7148936 C8.12972808,11.3091279 8.24275302,10.9932232 8.46880629,10.76717 C8.69485956,10.5411167 9.00963402,10.4280918 9.41313911,10.4280918 C9.8268166,10.4280918 10.1455469,10.5391388 10.3693397,10.7612361 C10.5931324,10.9833334 10.7050271,11.2944346 10.7050271,11.6945489 C10.7050271,11.9850273 10.6561438,12.2232274 10.5583758,12.4091562 C10.4606077,12.595085 10.3193266,12.739757 10.134528,12.8431763 C9.94972946,12.9465957 9.71944114,12.9983046 9.44365615,12.9983046 C9.16335009,12.9983046 8.9313664,12.9536598 8.74769812,12.8643687 C8.56402984,12.7750777 8.41511948,12.6337965 8.30096257,12.4405209 C8.18680567,12.2472454 8.12972808,12.005372 8.12972808,11.7148936 L8.12972808,11.7148936 Z M8.89774023,11.7182844 C8.89774023,11.9692035 8.94436302,12.1494783 9.03760999,12.2591141 C9.13085697,12.3687499 9.25772746,12.423567 9.41822529,12.423567 C9.58324418,12.423567 9.71096236,12.3698802 9.80138367,12.2625049 C9.89180498,12.1551296 9.93701495,11.9624221 9.93701495,11.6843765 C9.93701495,11.4504114 9.88982704,11.2794612 9.7954498,11.1715207 C9.70107256,11.0635803 9.57307181,11.0096109 9.41144372,11.0096109 C9.25659723,11.0096109 9.1322698,11.064428 9.03845769,11.1740638 C8.94464558,11.2836997 8.89774023,11.4651047 8.89774023,11.7182844 L8.89774023,11.7182844 Z M11.1237887,10.4704765 L11.8409391,10.4704765 L12.776795,11.8454387 L12.776795,10.4704765 L13.500727,10.4704765 L13.500727,12.9559198 L12.776795,12.9559198 L11.8460253,11.59113 L11.8460253,12.9559198 L11.1237887,12.9559198 L11.1237887,10.4704765 Z" id="{}-JSON" fill="#FFFFFF"></path>
        </g>
    </g>
</svg>