<?xml version="1.0" encoding="UTF-8"?>
<svg width="16px" height="16px" viewBox="0 0 16 16" version="1.1" xmlns="http://www.w3.org/2000/svg" xmlns:xlink="http://www.w3.org/1999/xlink">
    <!-- Generator: Sketch 40.3 (33839) - http://www.bohemiancoding.com/sketch -->
    <title>pdf</title>
    <desc>Created with Sketch.</desc>
    <defs></defs>
    <g id="Page-1" stroke="none" stroke-width="1" fill="none" fill-rule="evenodd">
        <g id="pdf">
            <g id="Group" transform="translate(2.000000, 1.000000)">
                <polygon id="Rectangle" fill="#C01900" points="0 0 9.85464471 0 12 2.23245162 12 14 0 14"></polygon>
                <polygon id="Triangle" fill="#8A0F00" points="9.85040245 0.0338631498 11.9769074 2.21134718 9.85040245 2.21134718"></polygon>
            </g>
            <path d="M3.5796086,10.1367188 L5.05031173,10.1367188 C5.37062583,10.1367188 5.61053229,10.2128899 5.77003829,10.3652344 C5.9295443,10.5175789 6.0092961,10.7343736 6.0092961,11.015625 C6.0092961,11.3046889 5.92238291,11.5305981 5.74855392,11.6933594 C5.57472492,11.8561206 5.3094281,11.9375 4.95265548,11.9375 L4.46828048,11.9375 L4.46828048,13 L3.5796086,13 L3.5796086,10.1367188 Z M4.46828048,11.3574219 L4.68507735,11.3574219 C4.85565112,11.3574219 4.97544159,11.3277998 5.04445235,11.2685547 C5.11346312,11.2093096 5.14796798,11.133464 5.14796798,11.0410156 C5.14796798,10.9511714 5.11802036,10.8750003 5.05812423,10.8125 C4.9982281,10.7499997 4.88559901,10.71875 4.7202336,10.71875 L4.46828048,10.71875 L4.46828048,11.3574219 Z M6.48390548,10.1367188 L7.7983586,10.1367188 C8.05747448,10.1367188 8.26678229,10.1718746 8.42628829,10.2421875 C8.5857943,10.3125004 8.71762892,10.4134108 8.8217961,10.5449219 C8.92596329,10.6764329 9.00148337,10.8294262 9.0483586,11.0039062 C9.09523384,11.1783863 9.1186711,11.3632803 9.1186711,11.5585938 C9.1186711,11.8645849 9.08384072,12.1018872 9.01417892,12.2705078 C8.94451711,12.4391284 8.84783839,12.5804031 8.72413985,12.6943359 C8.60044132,12.8082688 8.46763015,12.8841144 8.32570235,12.921875 C8.13169097,12.9739586 7.95591147,13 7.7983586,13 L6.48390548,13 L6.48390548,10.1367188 Z M7.3686711,10.7851562 L7.3686711,12.3496094 L7.58546798,12.3496094 C7.77036474,12.3496094 7.90187384,12.3291018 7.97999923,12.2880859 C8.05812462,12.2470701 8.11932192,12.1754562 8.16359298,12.0732422 C8.20786403,11.9710281 8.22999923,11.8053397 8.22999923,11.5761719 C8.22999923,11.2727849 8.18052056,11.0651047 8.08156173,10.953125 C7.9826029,10.8411453 7.81854204,10.7851562 7.58937423,10.7851562 L7.3686711,10.7851562 Z M9.5874211,10.1367188 L11.7749211,10.1367188 L11.7749211,10.7519531 L10.476093,10.7519531 L10.476093,11.2519531 L11.585468,11.2519531 L11.585468,11.8300781 L10.476093,11.8300781 L10.476093,13 L9.5874211,13 L9.5874211,10.1367188 Z" id="PDF" fill="#FFFFFF"></path>
        </g>
    </g>
</svg>