<?xml version="1.0" encoding="UTF-8"?>
<svg width="16px" height="16px" viewBox="0 0 16 16" version="1.1" xmlns="http://www.w3.org/2000/svg" xmlns:xlink="http://www.w3.org/1999/xlink">
    <!-- Generator: Sketch 40.3 (33839) - http://www.bohemiancoding.com/sketch -->
    <title>php</title>
    <desc>Created with Sketch.</desc>
    <defs></defs>
    <g id="Page-1" stroke="none" stroke-width="1" fill="none" fill-rule="evenodd">
        <g id="php">
            <g id="Group" transform="translate(2.000000, 1.000000)">
                <polygon id="Rectangle" fill="#AECCEF" points="0 0 9.85464471 0 12 2.23245162 12 14 0 14"></polygon>
                <polygon id="Triangle" fill="#85AAD5" points="9.85040245 0.0338631498 11.9769074 2.21134718 9.85040245 2.21134718"></polygon>
            </g>
            <path d="M5.51194516,11.0813723 C5.51194516,11.3863197 5.44101911,11.643062 5.29916488,11.8516067 C5.15731065,12.0601514 4.96666546,12.2283618 4.72722357,12.356243 C4.5380846,12.4565806 4.32430041,12.5298652 4.08586458,12.5760992 C3.84742875,12.6223332 3.62157204,12.6454498 3.40828767,12.6454498 L3.41734215,14 L2.49076705,14 C2.49076705,13.9075321 2.49227611,13.6316079 2.49529429,13.1722193 C2.49831246,12.7128307 2.49982153,12.2067239 2.49982153,11.6538837 C2.49982153,11.3882843 2.49881548,11.0774392 2.49680337,10.7213393 C2.49479125,10.3652394 2.49277916,10.002259 2.49076705,9.6323872 C2.56521536,9.63041979 2.65374717,9.62894426 2.75636512,9.62796056 C2.85898307,9.62697686 2.9364484,9.62648502 2.98876344,9.62648502 C3.38313831,9.62648502 3.70658122,9.64369954 3.95910186,9.67812909 C4.21162251,9.71255864 4.45760008,9.78387593 4.69704197,9.89208309 C4.95861714,10.0101273 5.15982579,10.1729274 5.30067396,10.3804884 C5.44152213,10.5880495 5.51194516,10.8216751 5.51194516,11.0813723 L5.51194516,11.0813723 Z M4.58235189,11.1344919 C4.58235189,10.988904 4.54864944,10.8585656 4.48124353,10.7434725 C4.41383762,10.6283794 4.32279071,10.5373884 4.20810006,10.4704967 C4.10346999,10.4114746 3.98928408,10.3696679 3.8655389,10.3450754 C3.74179373,10.3204828 3.608493,10.3081867 3.46563271,10.3081867 L3.42186939,10.3081867 L3.37508791,10.3081867 C3.37508791,10.3436 3.37408187,10.4414768 3.37206975,10.6018202 C3.37005763,10.7621635 3.36905159,10.9987402 3.36905159,11.3115573 C3.36905159,11.4099274 3.36955461,11.5422333 3.37056067,11.7084788 C3.37156673,11.8747244 3.37206975,11.9893239 3.37206975,12.0522808 C3.50486945,12.0522808 3.64118831,12.039001 3.78103043,12.0124411 C3.92087254,11.9858811 4.0340524,11.9499766 4.12057342,11.9047263 C4.27148217,11.8260302 4.3861711,11.726186 4.46464365,11.6051907 C4.54311621,11.4841954 4.58235189,11.3272974 4.58235189,11.1344919 L4.58235189,11.1344919 Z M9.13071894,12.6572542 L8.20414384,12.6572542 C8.20414384,12.5765906 8.2056529,12.387231 8.20867108,12.0891694 C8.21168925,11.7911078 8.21319832,11.5889602 8.21319832,11.4827205 C8.21319832,11.3843503 8.21219227,11.2712263 8.21018016,11.1433451 C8.20816804,11.0154639 8.207162,10.905291 8.207162,10.8128231 C8.20313776,10.6239524 8.17044136,10.4906628 8.1090718,10.4129504 C8.04770224,10.335238 7.94357676,10.2963824 7.79669224,10.2963824 C7.70011064,10.2963824 7.58491869,10.3204827 7.45111293,10.3686841 C7.31730717,10.4168855 7.18601852,10.4773822 7.05724305,10.5501761 L7.06629753,12.6572542 L6.13972243,12.6572542 C6.13972243,12.5156012 6.14123149,12.2308238 6.14424967,11.8029137 C6.14726784,11.3750035 6.14877691,10.9052931 6.14877691,10.3937683 C6.14877691,10.1262015 6.14777086,9.81781575 6.14575875,9.46860172 C6.14374663,9.11938769 6.14173454,8.74017645 6.13972243,8.33095663 L7.06629753,8.33095663 L7.05422489,9.9186429 L7.06026121,9.92159399 C7.24738807,9.82125644 7.44759067,9.73715122 7.66087504,9.66927582 C7.87415941,9.60140042 8.06027742,9.56746322 8.21923464,9.56746322 C8.49690674,9.56746322 8.71723021,9.65156844 8.88021166,9.8197814 C9.04319312,9.98799435 9.12468262,10.2147341 9.12468262,10.5000076 C9.12468262,10.7380633 9.12367658,10.9362762 9.12166446,11.0946522 C9.11965234,11.2530281 9.1186463,11.3863177 9.1186463,11.4945248 C9.1186463,11.6774933 9.12015537,11.8899696 9.12317354,12.1319602 C9.12619172,12.3739508 9.12870682,12.549047 9.13071894,12.6572542 L9.13071894,12.6572542 Z M13,11.0813723 C13,11.3863197 12.929074,11.643062 12.7872197,11.8516067 C12.6453655,12.0601514 12.4547203,12.2283618 12.2152784,12.356243 C12.0261394,12.4565806 11.8123553,12.5298652 11.5739194,12.5760992 C11.3354836,12.6223332 11.1096269,12.6454498 10.8963425,12.6454498 L10.905397,14 L9.97882189,14 C9.97882189,13.9075321 9.98033095,13.6316079 9.98334913,13.1722193 C9.9863673,12.7128307 9.98787637,12.2067239 9.98787637,11.6538837 C9.98787637,11.3882843 9.98687032,11.0774392 9.98485821,10.7213393 C9.98284609,10.3652394 9.980834,10.002259 9.97882189,9.6323872 C10.0532702,9.63041979 10.141802,9.62894426 10.24442,9.62796056 C10.3470379,9.62697686 10.4245032,9.62648502 10.4768183,9.62648502 C10.8711932,9.62648502 11.1946361,9.64369954 11.4471567,9.67812909 C11.6996773,9.71255864 11.9456549,9.78387593 12.1850968,9.89208309 C12.446672,10.0101273 12.6478806,10.1729274 12.7887288,10.3804884 C12.929577,10.5880495 13,10.8216751 13,11.0813723 L13,11.0813723 Z M12.0704067,11.1344919 C12.0704067,10.988904 12.0367043,10.8585656 11.9692984,10.7434725 C11.9018925,10.6283794 11.8108456,10.5373884 11.6961549,10.4704967 C11.5915248,10.4114746 11.4773389,10.3696679 11.3535937,10.3450754 C11.2298486,10.3204828 11.0965478,10.3081867 10.9536876,10.3081867 L10.9099242,10.3081867 L10.8631428,10.3081867 C10.8631428,10.3436 10.8621367,10.4414768 10.8601246,10.6018202 C10.8581125,10.7621635 10.8571064,10.9987402 10.8571064,11.3115573 C10.8571064,11.4099274 10.8576095,11.5422333 10.8586155,11.7084788 C10.8596216,11.8747244 10.8601246,11.9893239 10.8601246,12.0522808 C10.9929243,12.0522808 11.1292432,12.039001 11.2690853,12.0124411 C11.4089274,11.9858811 11.5221072,11.9499766 11.6086283,11.9047263 C11.759537,11.8260302 11.8742259,11.726186 11.9526985,11.6051907 C12.031171,11.4841954 12.0704067,11.3272974 12.0704067,11.1344919 L12.0704067,11.1344919 Z" fill="#FFFFFF"></path>
        </g>
    </g>
</svg>