<?xml version="1.0" encoding="UTF-8"?>
<svg width="16px" height="16px" viewBox="0 0 16 16" version="1.1" xmlns="http://www.w3.org/2000/svg" xmlns:xlink="http://www.w3.org/1999/xlink">
    <!-- Generator: Sketch 40.3 (33839) - http://www.bohemiancoding.com/sketch -->
    <title>psd</title>
    <desc>Created with Sketch.</desc>
    <defs>
        <rect id="path-1" x="1" y="2" width="14" height="13" rx="1"></rect>
        <mask id="mask-2" maskContentUnits="userSpaceOnUse" maskUnits="objectBoundingBox" x="0" y="0" width="14" height="13" fill="white">
            <use xlink:href="#path-1"></use>
        </mask>
    </defs>
    <g id="Page-1" stroke="none" stroke-width="1" fill="none" fill-rule="evenodd">
        <g id="psd">
            <use id="Rectangle" stroke="#297CDE" mask="url(#mask-2)" stroke-width="2" fill="#434343" xlink:href="#path-1"></use>
            <path d="M2.36132812,7.42089844 L4.19970703,7.42089844 C4.60009966,7.42089844 4.89998273,7.51611233 5.09936523,7.70654297 C5.29874774,7.89697361 5.3984375,8.16796699 5.3984375,8.51953125 C5.3984375,8.88086118 5.28979601,9.16324768 5.07250977,9.36669922 C4.85522352,9.57015076 4.52360249,9.671875 4.07763672,9.671875 L3.47216797,9.671875 L3.47216797,11 L2.36132812,11 L2.36132812,7.42089844 Z M3.47216797,8.94677734 L3.74316406,8.94677734 C3.95638127,8.94677734 4.10611936,8.90974972 4.19238281,8.83569336 C4.27864626,8.761637 4.32177734,8.66683 4.32177734,8.55126953 C4.32177734,8.43896428 4.28434282,8.34375039 4.20947266,8.265625 C4.13460249,8.18749961 3.99381614,8.1484375 3.78710938,8.1484375 L3.47216797,8.1484375 L3.47216797,8.94677734 Z M5.78417969,9.81591797 L6.83642578,9.75 C6.85921235,9.92089929 6.90559861,10.0511063 6.97558594,10.140625 C7.0895188,10.2854825 7.25227759,10.3579102 7.46386719,10.3579102 C7.62174558,10.3579102 7.74340778,10.3208825 7.82885742,10.2468262 C7.91430707,10.1727698 7.95703125,10.0869146 7.95703125,9.98925781 C7.95703125,9.89648391 7.91634155,9.81347693 7.83496094,9.74023438 C7.75358032,9.66699182 7.56478013,9.59781934 7.26855469,9.53271484 C6.78352622,9.42366482 6.43766379,9.2788095 6.23095703,9.09814453 C6.02262266,8.91747957 5.91845703,8.68717588 5.91845703,8.40722656 C5.91845703,8.22330637 5.97176053,8.04956136 6.07836914,7.88598633 C6.18497775,7.72241129 6.34529515,7.59383185 6.55932617,7.50024414 C6.77335719,7.40665643 7.06672991,7.35986328 7.43945312,7.35986328 C7.89681218,7.35986328 8.24552289,7.44490475 8.4855957,7.61499023 C8.72566852,7.78507572 8.86848936,8.05566221 8.9140625,8.42675781 L7.87158203,8.48779297 C7.84391262,8.32665935 7.78572635,8.20947302 7.69702148,8.13623047 C7.60831661,8.06298792 7.48584062,8.02636719 7.32958984,8.02636719 C7.20100847,8.02636719 7.10416699,8.05362928 7.0390625,8.1081543 C6.97395801,8.16267931 6.94140625,8.22900352 6.94140625,8.30712891 C6.94140625,8.36409534 6.96826145,8.41536436 7.02197266,8.4609375 C7.07405625,8.50813826 7.19775293,8.55208313 7.39306641,8.59277344 C7.87646726,8.69694062 8.22273658,8.80232694 8.43188477,8.90893555 C8.64103295,9.01554415 8.79321241,9.14778567 8.88842773,9.30566406 C8.98364305,9.46354246 9.03125,9.64013574 9.03125,9.83544922 C9.03125,10.0649426 8.96777407,10.276529 8.84082031,10.4702148 C8.71386655,10.6639007 8.53645947,10.8107905 8.30859375,10.9108887 C8.08072803,11.0109868 7.79345876,11.0610352 7.44677734,11.0610352 C6.83805034,11.0610352 6.41650508,10.9438488 6.18212891,10.7094727 C5.94775273,10.4750965 5.81510432,10.1772479 5.78417969,9.81591797 L5.78417969,9.81591797 Z M9.60253906,7.42089844 L11.2456055,7.42089844 C11.5695003,7.42089844 11.8311351,7.46484331 12.0305176,7.55273438 C12.2299001,7.64062544 12.3946934,7.7667635 12.5249023,7.93115234 C12.6551113,8.09554119 12.7495114,8.28678276 12.8081055,8.50488281 C12.8666995,8.72298286 12.8959961,8.95410034 12.8959961,9.19824219 C12.8959961,9.58073108 12.8524581,9.87735897 12.7653809,10.0881348 C12.6783036,10.2989106 12.5574552,10.4755038 12.402832,10.6179199 C12.2482089,10.760336 12.0821949,10.855143 11.9047852,10.9023438 C11.6622709,10.9674482 11.4425466,11 11.2456055,11 L9.60253906,11 L9.60253906,7.42089844 Z M10.7084961,8.23144531 L10.7084961,10.1870117 L10.9794922,10.1870117 C11.2106131,10.1870117 11.3749995,10.1613772 11.4726562,10.1101074 C11.570313,10.0588376 11.6468096,9.9693203 11.7021484,9.84155273 C11.7574873,9.71378517 11.7851562,9.50667461 11.7851562,9.22021484 C11.7851562,8.84098118 11.7233079,8.58138091 11.5996094,8.44140625 C11.4759108,8.30143159 11.2708348,8.23144531 10.984375,8.23144531 L10.7084961,8.23144531 Z" id="PSD" fill="#297CDD"></path>
            <g id="Group" transform="translate(1.000000, 2.000000)"></g>
        </g>
    </g>
</svg>