<?xml version="1.0" encoding="UTF-8"?>
<svg width="16px" height="16px" viewBox="0 0 16 16" version="1.1" xmlns="http://www.w3.org/2000/svg" xmlns:xlink="http://www.w3.org/1999/xlink">
    <!-- Generator: Sketch 40.3 (33839) - http://www.bohemiancoding.com/sketch -->
    <title>readme</title>
    <desc>Created with Sketch.</desc>
    <defs></defs>
    <g id="Page-1" stroke="none" stroke-width="1" fill="none" fill-rule="evenodd">
        <g id="readme">
            <g id="Group" transform="translate(2.000000, 1.000000)">
                <polygon id="Rectangle" fill="#577787" points="0 0 9.85464471 0 12 2.23245162 12 14 0 14"></polygon>
                <polygon id="Triangle" fill="#2C4652" points="9.85040245 0.0338631498 11.9769074 2.21134718 9.85040245 2.21134718"></polygon>
            </g>
            <path d="M8.41,6.97 C8.5966676,6.97 8.69,7.0999987 8.69,7.36 L8.69,10.37 C8.69,10.7100017 8.7533327,10.88 8.88,10.88 C8.9066668,10.88 8.95499965,10.8716667 9.025,10.855 C9.09500035,10.8383333 9.1533331,10.83 9.2,10.83 C9.4800014,10.83 9.62,11.0033316 9.62,11.35 C9.62,11.8100023 9.4233353,12.04 9.03,12.04 C8.963333,12.04 8.7766682,12.0233335 8.47,11.99 C8.2833324,11.9699999 8.0700012,11.96 7.83,11.96 C7.7099994,11.96 7.5333345,11.9733332 7.3,12 C7.0666655,12.0266668 6.8933339,12.04 6.78,12.04 C6.5999991,12.04 6.4533339,11.9783339 6.34,11.855 C6.2266661,11.7316661 6.17,11.5733343 6.17,11.38 C6.17,10.9999981 6.3299984,10.81 6.65,10.81 C6.65,10.81 6.7366658,10.8299998 6.91,10.87 C6.9366668,10.8766667 6.9599999,10.88 6.98,10.88 C7.1000006,10.88 7.16,10.6933352 7.16,10.32 L7.16,8.7 C7.16,8.3199981 7.1033339,8.13 6.99,8.13 C6.9699999,8.13 6.9100005,8.1466665 6.81,8.18 C6.743333,8.1933334 6.6900002,8.2 6.65,8.2 C6.3299984,8.2 6.17,8.0133352 6.17,7.64 C6.17,7.439999 6.2266661,7.27833395 6.34,7.155 C6.4533339,7.03166605 6.6033324,6.97 6.79,6.97 C6.8633337,6.97 6.9699993,6.9799999 7.11,7 C7.3433345,7.0333335 7.5299993,7.05 7.67,7.05 C7.7833339,7.05 7.9299991,7.0366668 8.11,7.01 C8.2900009,6.9833332 8.3899999,6.97 8.41,6.97 L8.41,6.97 Z M7.84,6.59 C7.5933321,6.59 7.3800009,6.5000009 7.2,6.32 C7.0199991,6.1399991 6.93,5.9266679 6.93,5.68 C6.93,5.4266654 7.01833245,5.21166755 7.195,5.035 C7.37166755,4.85833245 7.5866654,4.77 7.84,4.77 C8.0933346,4.77 8.30833245,4.85833245 8.485,5.035 C8.66166755,5.21166755 8.75,5.4266654 8.75,5.68 C8.75,5.9333346 8.66166755,6.14833245 8.485,6.325 C8.30833245,6.50166755 8.0933346,6.59 7.84,6.59 L7.84,6.59 Z" id="i" fill="#FFFFFF"></path>
        </g>
    </g>
</svg>