<?xml version="1.0" encoding="UTF-8"?>
<svg width="16px" height="16px" viewBox="0 0 16 16" version="1.1" xmlns="http://www.w3.org/2000/svg" xmlns:xlink="http://www.w3.org/1999/xlink">
    <!-- Generator: Sketch 40.3 (33839) - http://www.bohemiancoding.com/sketch -->
    <title>rpm</title>
    <desc>Created with Sketch.</desc>
    <defs></defs>
    <g id="Page-1" stroke="none" stroke-width="1" fill="none" fill-rule="evenodd">
        <g id="rpm">
            <g id="Group" transform="translate(2.000000, 1.000000)">
                <polygon id="Rectangle" fill="#E3E3E3" points="0 0 9.85464471 0 12 2.23245162 12 14 0 14"></polygon>
                <polygon id="Triangle" fill="#B6B6B6" points="9.85040245 0.0338631498 11.9769074 2.21134718 9.85040245 2.21134718"></polygon>
            </g>
            <path d="M4.17,10.64 L4.17,11.065 C4.2166669,10.8949992 4.27166635,10.7700004 4.335,10.69 C4.4816674,10.5066657 4.68666535,10.415 4.95,10.415 C5.13333425,10.415 5.28749938,10.4741661 5.4125,10.5925 C5.53750063,10.7108339 5.6,10.8566658 5.6,11.03 C5.6,11.1666674 5.5600004,11.2791662 5.48,11.3675 C5.3999996,11.4558338 5.29833395,11.5 5.175,11.5 C5.0816662,11.5 5.00250033,11.4700003 4.9375,11.41 C4.87249968,11.3499997 4.84,11.2766671 4.84,11.19 C4.84,11.1433331 4.86166645,11.0783338 4.905,10.995 L4.875,10.995 C4.65166555,10.995 4.50166705,11.1133321 4.425,11.35 C4.3649997,11.5400009 4.335,11.7583321 4.335,12.005 L4.335,12.195 C4.335,12.3150006 4.3449999,12.3916665 4.365,12.425 C4.3783334,12.4450001 4.4016665,12.455 4.435,12.455 C4.46500015,12.455 4.5066664,12.4483334 4.56,12.435 C4.6133336,12.4216666 4.6533332,12.415 4.68,12.415 C4.7533337,12.415 4.81583308,12.4408331 4.8675,12.4925 C4.91916693,12.5441669 4.945,12.6066663 4.945,12.68 C4.945,12.7766671 4.91250033,12.8574997 4.8475,12.9225 C4.78249968,12.9875003 4.7033338,13.02 4.61,13.02 C4.55999975,13.02 4.46666735,13.0116667 4.33,12.995 C4.24666625,12.9849999 4.1416673,12.98 4.015,12.98 C3.8883327,12.98 3.77666715,12.9849999 3.68,12.995 C3.5199992,13.0116667 3.42166685,13.02 3.385,13.02 C3.1783323,13.02 3.075,12.9083344 3.075,12.685 C3.075,12.4983324 3.1549992,12.405 3.315,12.405 C3.3416668,12.405 3.3716665,12.4108333 3.405,12.4225 C3.4383335,12.4341667 3.46333325,12.44 3.48,12.44 C3.53666695,12.44 3.565,12.3466676 3.565,12.16 L3.565,11.35 C3.565,11.159999 3.53666695,11.065 3.48,11.065 C3.4666666,11.065 3.44083353,11.0708333 3.4025,11.0825 C3.36416648,11.0941667 3.3350001,11.1 3.315,11.1 C3.1549992,11.1 3.075,11.0083343 3.075,10.825 C3.075,10.7249995 3.1016664,10.6433336 3.155,10.58 C3.2083336,10.5166663 3.27666625,10.485 3.36,10.485 C3.3933335,10.485 3.4399997,10.4916666 3.5,10.505 C3.5600003,10.5183334 3.6166664,10.525 3.67,10.525 C3.7100002,10.525 3.76833295,10.5183334 3.845,10.505 C3.92166705,10.4916666 3.97833315,10.485 4.015,10.485 C4.11833385,10.485 4.17,10.5366662 4.17,10.64 L4.17,10.64 Z M6.65,10.665 L6.65,10.815 C6.8566677,10.548332 7.11499845,10.415 7.425,10.415 C7.72833485,10.415 7.9699991,10.5324988 8.15,10.7675 C8.3300009,11.0025012 8.42,11.3183313 8.42,11.715 C8.42,12.125002 8.32833425,12.4499988 8.145,12.69 C7.96166575,12.9300012 7.71500155,13.05 7.405,13.05 C7.28166605,13.05 7.1700005,13.0266669 7.07,12.98 C7.00666635,12.9499999 6.91000065,12.8866672 6.78,12.79 L6.78,13.175 C6.78,13.2783338 6.8199996,13.33 6.9,13.33 C6.9333335,13.33 6.97166645,13.325 7.015,13.315 C7.0750003,13.3083333 7.1183332,13.305 7.145,13.305 C7.2983341,13.305 7.375,13.3916658 7.375,13.565 C7.375,13.765001 7.2716677,13.865 7.065,13.865 C7.0049997,13.865 6.91333395,13.8583334 6.79,13.845 C6.6366659,13.8283333 6.48500075,13.82 6.335,13.82 C6.27166635,13.82 6.1300011,13.8333332 5.91,13.86 C5.8699998,13.8633333 5.8400001,13.865 5.82,13.865 C5.7333329,13.865 5.66166695,13.834167 5.605,13.7725 C5.54833305,13.710833 5.52,13.6316672 5.52,13.535 C5.52,13.3483324 5.60166585,13.255 5.765,13.255 C5.7916668,13.255 5.81666655,13.26 5.84,13.27 C5.9000003,13.2833334 5.92833335,13.29 5.925,13.29 C5.9850003,13.29 6.015,13.195001 6.015,13.005 L6.015,11.35 C6.015,11.159999 5.98666695,11.065 5.93,11.065 C5.91999995,11.065 5.89000025,11.0733333 5.84,11.09 C5.8066665,11.0966667 5.7800001,11.1 5.76,11.1 C5.5999992,11.1 5.52,11.0066676 5.52,10.82 C5.52,10.7233329 5.5466664,10.6433336 5.6,10.58 C5.6533336,10.5166663 5.72166625,10.485 5.805,10.485 L5.84,10.485 L6.015,10.51 C6.03833345,10.5166667 6.0866663,10.52 6.16,10.52 C6.25666715,10.52 6.34666625,10.5133334 6.43,10.5 C6.47333355,10.4933333 6.5049999,10.49 6.525,10.49 C6.60833375,10.49 6.65,10.5483328 6.65,10.665 L6.65,10.665 Z M7.205,11.05 C7.07499935,11.05 6.9733337,11.1099994 6.9,11.23 C6.8266663,11.3500006 6.79,11.5166656 6.79,11.73 C6.79,11.940001 6.8266663,12.106666 6.9,12.23 C6.9733337,12.3533339 7.07166605,12.415 7.195,12.415 C7.3216673,12.415 7.42333295,12.3533339 7.5,12.23 C7.57666705,12.106666 7.615,11.940001 7.615,11.73 C7.615,11.5233323 7.57750037,11.3583339 7.5025,11.235 C7.42749962,11.1116661 7.32833395,11.05 7.205,11.05 L7.205,11.05 Z" fill="#484848"></path>
            <path d="M9.73,10.635 L9.73,10.865 C9.98000125,10.5649985 10.2583318,10.415 10.565,10.415 C10.8216679,10.415 11.0333325,10.5399988 11.2,10.79 C11.3666675,10.6466659 11.5091661,10.5483336 11.6275,10.495 C11.7458339,10.4416664 11.8833325,10.415 12.04,10.415 C12.3566682,10.415 12.5933325,10.5199989 12.75,10.73 C12.8566672,10.8733341 12.91,11.1033317 12.91,11.42 L12.91,12.185 C12.91,12.3550008 12.9416663,12.44 13.005,12.44 C13.0250001,12.44 13.0516665,12.435 13.085,12.425 C13.1016667,12.4183333 13.1266665,12.415 13.16,12.415 C13.3066674,12.415 13.38,12.5016658 13.38,12.675 C13.38,12.7783338 13.3533336,12.8616664 13.3,12.925 C13.2466664,12.9883336 13.1766671,13.02 13.09,13.02 C13.0799999,13.02 13.0316671,13.0150001 12.945,13.005 L12.835,12.99 C12.7816664,12.9833333 12.7116671,12.98 12.625,12.98 C12.5183328,12.98 12.4150005,12.9866666 12.315,13 C12.2149995,13.0133334 12.1450002,13.02 12.105,13.02 C12.0249996,13.02 11.9591669,12.989167 11.9075,12.9275 C11.8558331,12.865833 11.83,12.7883338 11.83,12.695 C11.83,12.5416659 11.891666,12.4533334 12.015,12.43 C12.0783336,12.42 12.1158333,12.4016668 12.1275,12.375 C12.1391667,12.3483332 12.145,12.2750006 12.145,12.155 L12.145,11.64 C12.145,11.4266656 12.1225002,11.2808337 12.0775,11.2025 C12.0324998,11.1241663 11.9466673,11.085 11.82,11.085 C11.5366652,11.085 11.395,11.2866647 11.395,11.69 L11.395,12.155 C11.395,12.2683339 11.3999999,12.3399998 11.41,12.37 C11.42,12.4000002 11.4466664,12.42 11.49,12.43 C11.5933338,12.4533334 11.645,12.5366659 11.645,12.68 C11.645,12.9066678 11.5516676,13.02 11.365,13.02 C11.3283331,13.02 11.276667,13.0150001 11.21,13.005 C11.0999994,12.9883333 11.0266668,12.98 10.99,12.98 C10.9499998,12.98 10.8908337,12.9866666 10.8125,13 C10.7341663,13.0133334 10.6750002,13.02 10.635,13.02 C10.4716658,13.02 10.39,12.9150011 10.39,12.705 C10.39,12.5549992 10.4416661,12.4666668 10.545,12.44 C10.6016669,12.4266666 10.6316666,12.386667 10.635,12.32 C10.6383333,12.2299996 10.64,12.1750001 10.64,12.155 L10.64,11.59 C10.64,11.399999 10.6175002,11.2683337 10.5725,11.195 C10.5274998,11.1216663 10.4466672,11.085 10.33,11.085 C10.0366652,11.085 9.89,11.2866647 9.89,11.69 L9.89,12.295 C9.89,12.3483336 9.8966666,12.3824999 9.91,12.3975 C9.9233334,12.4125001 9.9566664,12.425 10.01,12.435 C10.1400006,12.4583334 10.205,12.5449993 10.205,12.695 C10.205,12.9116677 10.1133342,13.02 9.93,13.02 C9.87333305,13.02 9.78916722,13.0133334 9.6775,13 C9.56583277,12.9866666 9.48166695,12.98 9.425,12.98 C9.34833295,12.98 9.2700004,12.9849999 9.19,12.995 C9.056666,13.0116667 8.97166685,13.02 8.935,13.02 C8.8416662,13.02 8.76750027,12.989167 8.7125,12.9275 C8.65749972,12.865833 8.63,12.7866671 8.63,12.69 C8.63,12.499999 8.7099992,12.405 8.87,12.405 C8.8966668,12.405 8.9266665,12.4108333 8.96,12.4225 C8.9933335,12.4341667 9.01833325,12.44 9.035,12.44 C9.09166695,12.44 9.12,12.3466676 9.12,12.16 L9.12,11.35 C9.12,11.159999 9.09166695,11.065 9.035,11.065 C9.0216666,11.065 8.99583352,11.0708333 8.9575,11.0825 C8.91916647,11.0941667 8.8900001,11.1 8.87,11.1 C8.7099992,11.1 8.63,11.0066676 8.63,10.82 C8.63,10.7233329 8.65749972,10.6433336 8.7125,10.58 C8.76750027,10.5166663 8.83999955,10.485 8.93,10.485 C8.9500001,10.485 9.00499955,10.4933332 9.095,10.51 C9.1483336,10.5200001 9.1983331,10.525 9.245,10.525 C9.2850002,10.525 9.34416627,10.5183334 9.4225,10.505 C9.50083372,10.4916666 9.5599998,10.485 9.6,10.485 C9.6866671,10.485 9.73,10.5349995 9.73,10.635 L9.73,10.635 Z" id="Path" fill="#F16060"></path>
        </g>
    </g>
</svg>