<?xml version="1.0" encoding="UTF-8"?>
<svg width="16px" height="16px" viewBox="0 0 16 16" version="1.1" xmlns="http://www.w3.org/2000/svg" xmlns:xlink="http://www.w3.org/1999/xlink">
    <!-- Generator: Sketch 40.3 (33839) - http://www.bohemiancoding.com/sketch -->
    <title>tex</title>
    <desc>Created with Sketch.</desc>
    <defs></defs>
    <g id="Page-1" stroke="none" stroke-width="1" fill="none" fill-rule="evenodd">
        <g id="tex">
            <g id="Group" transform="translate(2.000000, 1.000000)">
                <polygon id="Rectangle" fill="#577787" points="0 0 9.85464471 0 12 2.23245162 12 14 0 14"></polygon>
                <polygon id="Triangle" fill="#2C4652" points="9.85040245 0.0338631498 11.9769074 2.21134718 9.85040245 2.21134718"></polygon>
            </g>
            <path d="M4.125,13.365 C4.2383339,13.365 4.295,13.2616677 4.295,13.055 L4.295,11.615 C4.295,11.3916655 4.21333415,11.28 4.05,11.28 C3.88666585,11.28 3.805,11.3366661 3.805,11.45 C3.805,11.4833335 3.81083328,11.5341663 3.8225,11.6025 C3.83416673,11.6708337 3.84,11.7216665 3.84,11.755 C3.84,12.0516682 3.71500125,12.2 3.465,12.2 C3.34833275,12.2 3.256667,12.1625004 3.19,12.0875 C3.123333,12.0124996 3.09,11.9116673 3.09,11.785 C3.09,11.7416665 3.0966666,11.6633339 3.11,11.55 C3.12000005,11.4633329 3.125,11.3833337 3.125,11.31 C3.125,11.2699998 3.12000005,11.188334 3.11,11.065 C3.1033333,10.9816662 3.1,10.9150003 3.1,10.865 C3.1,10.7183326 3.1733326,10.645 3.32,10.645 C3.39666705,10.645 3.49333275,10.6499999 3.61,10.66 C3.876668,10.6833334 4.2499976,10.695 4.73,10.695 C5.21333575,10.695 5.588332,10.6833334 5.855,10.66 C5.97166725,10.6499999 6.0666663,10.645 6.14,10.645 C6.29000075,10.645 6.365,10.7183326 6.365,10.865 C6.365,10.9150003 6.36083338,10.9891662 6.3525,11.0875 C6.34416662,11.1858338 6.34,11.2599998 6.34,11.31 C6.34,11.3633336 6.34499995,11.4433328 6.355,11.55 C6.3683334,11.6900007 6.375,11.7699999 6.375,11.79 C6.375,11.9166673 6.34083367,12.0166663 6.2725,12.09 C6.20416633,12.1633337 6.1133339,12.2 6,12.2 C5.74999875,12.2 5.625,12.0566681 5.625,11.77 C5.625,11.7299998 5.62999995,11.676667 5.64,11.61 C5.65000005,11.543333 5.655,11.4933335 5.655,11.46 C5.655,11.3399994 5.5816674,11.28 5.435,11.28 C5.33833285,11.28 5.2700002,11.3049998 5.23,11.355 C5.1899998,11.4050003 5.17,11.491666 5.17,11.615 L5.17,13.055 C5.17,13.2616677 5.2266661,13.365 5.34,13.365 C5.37666685,13.365 5.43083297,13.3591667 5.5025,13.3475 C5.57416702,13.3358333 5.62833315,13.33 5.665,13.33 C5.865001,13.33 5.965,13.429999 5.965,13.63 C5.965,13.8933346 5.84000125,14.025 5.59,14.025 C5.49333285,14.025 5.378334,14.0183334 5.245,14.005 C5.044999,13.9849999 4.87333405,13.975 4.73,13.975 C4.5833326,13.975 4.41166765,13.9849999 4.215,14.005 C4.08499935,14.0183334 3.9700005,14.025 3.87,14.025 C3.61999875,14.025 3.495,13.9033346 3.495,13.66 C3.495,13.4399989 3.59666565,13.33 3.8,13.33 C3.83666685,13.33 3.89083297,13.3358333 3.9625,13.3475 C4.03416703,13.3591667 4.08833315,13.365 4.125,13.365 L4.125,13.365 Z M8.95,12.535 C8.95,12.6750007 8.93250018,12.7683331 8.8975,12.815 C8.86249983,12.8616669 8.79333385,12.885 8.69,12.885 L7.47,12.885 C7.4099997,12.885 7.37250007,12.8908333 7.3575,12.9025 C7.34249993,12.9141667 7.335,12.9433331 7.335,12.99 C7.335,13.1300007 7.37999955,13.2466662 7.47,13.34 C7.56000045,13.4333338 7.67333265,13.48 7.81,13.48 C7.9500007,13.48 8.0933326,13.4033341 8.24,13.25 C8.3400005,13.1433328 8.4499994,13.09 8.57,13.09 C8.6700005,13.09 8.75083303,13.1183331 8.8125,13.175 C8.87416697,13.231667 8.905,13.3033329 8.905,13.39 C8.905,13.5833343 8.79916773,13.7474993 8.5875,13.8825 C8.37583228,14.0175007 8.11833485,14.085 7.815,14.085 C7.41833135,14.085 7.10166785,13.9650012 6.865,13.725 C6.62833215,13.4849988 6.51,13.165002 6.51,12.765 C6.51,12.3616646 6.62749882,12.0358346 6.8625,11.7875 C7.09750117,11.5391654 7.4049981,11.415 7.785,11.415 C8.1383351,11.415 8.42083227,11.5166657 8.6325,11.72 C8.84416773,11.9233343 8.95,12.1949983 8.95,12.535 L8.95,12.535 Z M7.36,12.285 C7.36,12.3050001 7.36499995,12.3216666 7.375,12.335 C7.38500005,12.3483334 7.4199997,12.355 7.48,12.355 L8.04,12.355 C8.09000025,12.355 8.12083327,12.3491667 8.1325,12.3375 C8.14416672,12.3258333 8.15,12.3050001 8.15,12.275 C8.15,12.1883329 8.11166705,12.1125003 8.035,12.0475 C7.95833295,11.9824997 7.86833385,11.95 7.765,11.95 C7.631666,11.95 7.52333375,12.0016662 7.44,12.105 C7.3866664,12.171667 7.36,12.2316664 7.36,12.285 L7.36,12.285 Z M9.885,13.07 L10.39,12.36 L9.89,11.595 C9.7766661,11.4216658 9.6666672,11.335 9.56,11.335 L9.49,11.335 C9.4699999,11.3383333 9.44166685,11.34 9.405,11.34 C9.22166575,11.34 9.13,11.2350011 9.13,11.025 C9.13,10.9116661 9.16583298,10.8200004 9.2375,10.75 C9.30916703,10.6799996 9.4016661,10.645 9.515,10.645 C9.57833365,10.645 9.6366664,10.6483333 9.69,10.655 C9.90666775,10.6816668 10.0366665,10.695 10.08,10.695 C10.1433337,10.695 10.2366661,10.6866668 10.36,10.67 C10.483334,10.6533332 10.5766663,10.645 10.64,10.645 C10.7333338,10.645 10.8091664,10.6774997 10.8675,10.7425 C10.9258336,10.8075003 10.955,10.8916661 10.955,10.995 C10.955,11.0883338 10.9266669,11.1533331 10.87,11.19 L10.79,11.24 C10.7499998,11.2633335 10.73,11.2916665 10.73,11.325 C10.73,11.3683335 10.7516665,11.4299996 10.795,11.51 L11.04,11.965 L11.325,11.51 C11.381667,11.4199995 11.41,11.3583335 11.41,11.325 C11.41,11.2949998 11.3883336,11.2666668 11.345,11.24 C11.2449995,11.1766663 11.195,11.0966672 11.195,11 C11.195,10.8933328 11.2233331,10.8075003 11.28,10.7425 C11.336667,10.6774997 11.4116662,10.645 11.505,10.645 C11.5650003,10.645 11.6549994,10.6533332 11.775,10.67 C11.8950006,10.6866668 11.9866664,10.695 12.05,10.695 C12.1100003,10.695 12.1983328,10.6866668 12.315,10.67 C12.4316673,10.6533332 12.5183331,10.645 12.575,10.645 C12.6650005,10.645 12.7416664,10.6816663 12.805,10.755 C12.8683337,10.8283337 12.9,10.9183328 12.9,11.025 C12.9,11.1183338 12.8750002,11.1949997 12.825,11.255 C12.7749997,11.3150003 12.7100004,11.345 12.63,11.345 C12.6233333,11.345 12.6133334,11.3433333 12.6,11.34 L12.565,11.34 C12.5183331,11.3333333 12.4900001,11.33 12.48,11.33 C12.4033329,11.33 12.3016673,11.4183325 12.175,11.595 L11.675,12.285 L12.175,13.07 L12.265,13.19 L12.34,13.3 C12.3766668,13.3300002 12.4166665,13.345 12.46,13.345 C12.4933335,13.345 12.5233332,13.3416667 12.55,13.335 C12.5633334,13.335 12.5799999,13.3333334 12.6,13.33 L12.645,13.33 C12.8183342,13.33 12.905,13.4366656 12.905,13.65 C12.905,13.7566672 12.871667,13.845833 12.805,13.9175 C12.738333,13.989167 12.6533339,14.025 12.55,14.025 C12.5199999,14.025 12.4333341,14.0133335 12.29,13.99 C12.2299997,13.9799999 12.1316674,13.975 11.995,13.975 C11.851666,13.975 11.7450004,13.9799999 11.675,13.99 C11.5149992,14.0133335 11.4250001,14.025 11.405,14.025 C11.3216663,14.025 11.2550003,13.994167 11.205,13.9325 C11.1549997,13.870833 11.13,13.7916672 11.13,13.695 C11.13,13.6149996 11.1416666,13.5591668 11.165,13.5275 C11.1883335,13.4958332 11.238333,13.4583335 11.315,13.415 C11.3616669,13.3883332 11.385,13.3600001 11.385,13.33 C11.385,13.3066665 11.3650002,13.2600004 11.325,13.19 L11.04,12.695 L10.75,13.135 C10.683333,13.2350005 10.65,13.3033332 10.65,13.34 C10.65,13.3666668 10.6649999,13.3899999 10.695,13.41 L10.79,13.47 C10.8600003,13.5133336 10.895,13.5883328 10.895,13.695 C10.895,13.9150011 10.7933344,14.025 10.59,14.025 C10.5766666,14.025 10.4600011,14.0116668 10.24,13.985 C10.1499996,13.975 10.0700004,13.97 10,13.97 C9.9133329,13.97 9.83166705,13.9766666 9.755,13.99 C9.62499935,14.0133335 9.5366669,14.025 9.49,14.025 C9.3833328,14.025 9.296667,13.9900003 9.23,13.92 C9.163333,13.8499997 9.13,13.7600006 9.13,13.65 C9.13,13.4366656 9.2166658,13.33 9.39,13.33 C9.41333345,13.33 9.44666645,13.3333333 9.49,13.34 C9.53333355,13.3466667 9.5649999,13.35 9.585,13.35 C9.62166685,13.35 9.64916658,13.3425001 9.6675,13.3275 C9.68583343,13.3124999 9.7249997,13.2683337 9.785,13.195 L9.885,13.07 Z" id="TeX" fill="#FFFFFF"></path>
        </g>
    </g>
</svg>