<?xml version="1.0" encoding="UTF-8"?>
<svg width="16px" height="16px" viewBox="0 0 16 16" version="1.1" xmlns="http://www.w3.org/2000/svg" xmlns:xlink="http://www.w3.org/1999/xlink">
    <!-- Generator: Sketch 40.3 (33839) - http://www.bohemiancoding.com/sketch -->
    <title>tiff</title>
    <desc>Created with Sketch.</desc>
    <defs></defs>
    <g id="Page-1" stroke="none" stroke-width="1" fill="none" fill-rule="evenodd">
        <g id="tiff">
            <g id="Group-3" transform="translate(1.000000, 2.000000)">
                <g id="Group" fill="#A6C5E9">
                    <rect id="Rectangle" x="0" y="0" width="14" height="13" rx="1"></rect>
                </g>
                <g id="Group-2" transform="translate(2.000000, 3.000000)">
                    <polygon id="Triangle-4" fill="#BB7334" points="2.5 0 5 8 0 8"></polygon>
                    <path d="M2.5,0 L3.45843506,3 C3.45843506,3 3.35844617,3.38209282 3.06268311,3.37884521 C2.90587466,3.37712339 2.59245684,2.93321361 2.43286133,3 C2.27645243,3.06545287 2.16894056,3.68225098 2.04992676,3.68225098 C1.88657633,3.68225098 1.55987549,3 1.55987549,3 L2.5,0 Z" id="Triangle-4" fill="#FFFFFF"></path>
                </g>
                <path d="M0,9 C0,9 3.12139163,10.1677968 6.42906533,10.0767078 C7.93709977,10.0351785 9.77566612,8.54981437 10.8600162,8.6582352 C12.0639547,8.77861332 14,10.399817 14,10.399817 L14,12.0021377 C14,12.5532418 13.5500512,13 12.9931545,13 L1.00684547,13 C0.450780073,13 0,12.5566468 0,11.9906311 L0,9 Z" id="Rectangle" fill="#70CF47"></path>
                <circle id="Oval-2" fill="#F8E81C" cx="11" cy="3" r="2"></circle>
            </g>
        </g>
    </g>
</svg>