<?xml version="1.0" encoding="UTF-8"?>
<svg width="16px" height="16px" viewBox="0 0 16 16" version="1.1" xmlns="http://www.w3.org/2000/svg" xmlns:xlink="http://www.w3.org/1999/xlink">
    <!-- Generator: Sketch 40.3 (33839) - http://www.bohemiancoding.com/sketch -->
    <title>unknow</title>
    <desc>Created with Sketch.</desc>
    <defs></defs>
    <g id="Page-1" stroke="none" stroke-width="1" fill="none" fill-rule="evenodd">
        <g id="unknow">
            <g id="Group" transform="translate(2.000000, 1.000000)">
                <polygon id="Rectangle" fill="#577787" points="0 0 9.85464471 0 12 2.23245162 12 14 0 14"></polygon>
                <polygon id="Triangle" fill="#2C4652" points="9.85040245 0.0338631498 11.9769074 2.21134718 9.85040245 2.21134718"></polygon>
            </g>
            <path d="M7.59785419,14 C7.19979173,14 6.86042307,13.8571079 6.579738,13.5713195 C6.29905294,13.2855311 6.15871251,12.9436108 6.15871251,12.5455483 C6.15871251,12.1474859 6.29905294,11.8055655 6.579738,11.5197771 C6.86042307,11.2339887 7.19979173,11.0910966 7.59785419,11.0910966 C7.99591664,11.0910966 8.33783695,11.2339887 8.62362538,11.5197771 C8.90941381,11.8055655 9.05230588,12.1474859 9.05230588,12.5455483 C9.05230588,12.9436108 8.90941381,13.2855311 8.62362538,13.5713195 C8.33783695,13.8571079 7.99591664,14 7.59785419,14 L7.59785419,14 Z M7.98060463,5.27328984 C7.41923451,5.27328984 6.98545501,5.41107863 6.67925312,5.68666032 C6.99566174,5.94182856 7.15386367,6.22761271 7.15386367,6.54402132 C7.15386367,6.94208378 7.00076502,7.28145244 6.69456314,7.56213751 C6.38836125,7.84282257 6.0209245,7.983163 5.59224185,7.983163 C5.12273229,7.983163 4.73998567,7.82751271 4.44399052,7.51620745 C4.14799536,7.2049022 4,6.79919079 4,6.29906104 C4,5.42128229 4.40315977,4.69406372 5.20949141,4.1173835 C6.01582304,3.54070328 7.03648069,3.25236749 8.27149497,3.25236749 C9.47588906,3.25236749 10.4455138,3.54835821 11.1803984,4.14034852 C11.9152829,4.73233884 12.2827196,5.51314194 12.2827196,6.48278125 C12.2827196,6.91146389 12.1934121,7.32738188 12.0147943,7.7305477 C11.8361766,8.13371352 11.5988737,8.44246246 11.3028785,8.65680378 C10.9150228,8.95279894 10.3077315,9.19265349 9.48098638,9.37637462 C9.23602487,9.42740827 9.07782293,9.48864773 9.00637583,9.56009483 C8.93492872,9.63154194 8.89410241,9.75402086 8.88389568,9.92753526 C8.87368895,10.2133237 8.81755278,10.3970421 8.71548549,10.4786959 C8.61341819,10.5603497 8.38887351,10.6113826 8.0418447,10.6317961 L7.61316421,10.6624161 L7.46006403,10.6624161 C7.06200157,10.6624161 6.78642401,10.5833151 6.63332306,10.4251108 C6.48022212,10.2669065 6.4036728,9.98367403 6.4036728,9.57540485 C6.4036728,9.05486164 6.52360007,8.66956338 6.76345822,8.41949851 C7.00331636,8.16943363 7.44475079,7.97295703 8.08777476,7.83006282 C9.08803426,7.60551477 9.5881565,7.16663198 9.5881565,6.51340129 C9.5881565,6.14595902 9.44016114,5.84741666 9.14416599,5.61776524 C8.84817083,5.38811383 8.46032092,5.27328984 7.98060463,5.27328984 L7.98060463,5.27328984 Z" id="?" fill="#FFFFFF"></path>
        </g>
    </g>
</svg>