<?xml version="1.0" encoding="UTF-8"?>
<svg width="16px" height="16px" viewBox="0 0 16 16" version="1.1" xmlns="http://www.w3.org/2000/svg" xmlns:xlink="http://www.w3.org/1999/xlink">
    <!-- Generator: Sketch 40.3 (33839) - http://www.bohemiancoding.com/sketch -->
    <title>vcal</title>
    <desc>Created with Sketch.</desc>
    <defs>
        <polygon id="path-1" points="4.03305379 -0.774563396 6.31453818 -2.97342433 8.0407955 -2.97342433 8.0407955 8.96568262 4.03305379 8.96568262"></polygon>
        <mask id="mask-2" maskContentUnits="userSpaceOnUse" maskUnits="objectBoundingBox" x="0" y="0" width="4.00774171" height="11.9391069" fill="white">
            <use xlink:href="#path-1"></use>
        </mask>
    </defs>
    <g id="Page-1" stroke="none" stroke-width="1" fill="none" fill-rule="evenodd">
        <g id="vcal">
            <g id="Group" transform="translate(2.000000, 0.000000)">
                <polygon id="Rectangle" fill="#E8E8E8" points="0 1 9.85464471 1 12 3.23245162 12 15 0 15"></polygon>
                <use id="Rectangle" stroke="#D0011B" mask="url(#mask-2)" stroke-width="2" fill="#D0011B" transform="translate(6.036925, 2.996129) rotate(-270.000000) translate(-6.036925, -2.996129) " xlink:href="#path-1"></use>
                <polygon id="Triangle" fill="#730714" points="9.85040245 1.03386315 11.9769074 3.21134718 9.85040245 3.21134718"></polygon>
            </g>
            <path d="M6.317,12.126 C5.64966333,12.126 5.13283516,11.9113355 4.7665,11.482 C4.40016483,11.0526645 4.217,10.4483372 4.217,9.669 C4.217,8.89899615 4.39899818,8.29583551 4.763,7.8595 C5.12700182,7.42316448 5.62866347,7.205 6.268,7.205 C6.92600329,7.205 7.44049814,7.41849786 7.8115,7.8455 C8.18250185,8.27250213 8.368,8.86166291 8.368,9.613 C8.368,10.411004 8.18950179,11.0293311 7.8325,11.468 C7.47549821,11.9066689 6.9703366,12.126 6.317,12.126 L6.317,12.126 Z M6.289,8.164 C6.01366529,8.164 5.79666746,8.29816532 5.638,8.5665 C5.47933254,8.83483467 5.4,9.202331 5.4,9.669 C5.4,10.135669 5.47933254,10.5019987 5.638,10.768 C5.79666746,11.0340013 6.01366529,11.167 6.289,11.167 C6.5690014,11.167 6.78833254,11.0340013 6.947,10.768 C7.10566746,10.5019987 7.185,10.135669 7.185,9.669 C7.185,9.19766431 7.10566746,8.82900133 6.947,8.563 C6.78833254,8.29699867 6.5690014,8.164 6.289,8.164 L6.289,8.164 Z M11.182,7.709 L11.182,10.845 C11.182,11.0130008 11.2449994,11.097 11.371,11.097 C11.4083335,11.097 11.4619996,11.0911667 11.532,11.0795 C11.6020004,11.0678333 11.6556665,11.062 11.693,11.062 C11.9963349,11.062 12.148,11.2136651 12.148,11.517 C12.148,11.6756675 12.1036671,11.8028329 12.015,11.8985 C11.9263329,11.9941671 11.8096674,12.042 11.665,12.042 C11.6323332,12.042 11.6090001,12.0396667 11.595,12.035 L11.168,11.986 C11.0466661,11.9719999 10.8343349,11.965 10.531,11.965 C10.2509986,11.965 10.0760004,11.9696666 10.006,11.979 L9.586,12.035 C9.56733324,12.0396667 9.54166683,12.042 9.509,12.042 C9.35033254,12.042 9.22200049,11.9941671 9.124,11.8985 C9.02599951,11.8028329 8.977,11.6780008 8.977,11.524 C8.977,11.3839993 9.01666627,11.2720004 9.096,11.188 C9.17533373,11.1039996 9.28033268,11.062 9.411,11.062 C9.45300021,11.062 9.51716624,11.0678333 9.6035,11.0795 C9.68983376,11.0911667 9.75399979,11.097 9.796,11.097 C9.90800056,11.097 9.97799986,11.0223341 10.006,10.873 C10.0106667,10.8403332 10.013,10.719001 10.013,10.509 L10.013,8.577 C10.013,8.35766557 9.93366746,8.248 9.775,8.248 C9.74699986,8.248 9.69566704,8.25266662 9.621,8.262 C9.5276662,8.28533345 9.44833366,8.297 9.383,8.297 C9.11233198,8.297 8.977,8.14066823 8.977,7.828 C8.977,7.66933254 9.02599951,7.54216714 9.124,7.4465 C9.22200049,7.35083285 9.35266585,7.303 9.516,7.303 C9.59533373,7.303 9.71549919,7.31466655 9.8765,7.338 C10.0375008,7.36133345 10.1576663,7.373 10.237,7.373 C10.3350005,7.373 10.4703325,7.35666683 10.643,7.324 C10.717667,7.30999993 10.7946663,7.303 10.874,7.303 C11.0000006,7.303 11.0863331,7.33799965 11.133,7.408 C11.1656668,7.46400028 11.182,7.56433261 11.182,7.709 L11.182,7.709 Z" id="01" fill="#8A8A8A"></path>
        </g>
    </g>
</svg>