<?xml version="1.0" encoding="UTF-8"?>
<svg width="16px" height="16px" viewBox="0 0 16 16" version="1.1" xmlns="http://www.w3.org/2000/svg" xmlns:xlink="http://www.w3.org/1999/xlink">
    <!-- Generator: Sketch 40.3 (33839) - http://www.bohemiancoding.com/sketch -->
    <title>xml</title>
    <desc>Created with Sketch.</desc>
    <defs></defs>
    <g id="Page-1" stroke="none" stroke-width="1" fill="none" fill-rule="evenodd">
        <g id="xml">
            <g id="Group" transform="translate(2.000000, 1.000000)">
                <polygon id="Rectangle" fill="#577787" points="0 0 9.85464471 0 12 2.23245162 12 14 0 14"></polygon>
                <polygon id="Triangle" fill="#2C4652" points="9.85040245 0.0338631498 11.9769074 2.21134718 9.85040245 2.21134718"></polygon>
            </g>
            <path d="M3.198,8.666 L5.802,7.346 L5.802,8.114 L4.02,8.996 L5.796,9.884 L5.802,10.652 L3.198,9.32 L3.198,8.666 Z M7.95,9.638 L7.758,10.13 L7.656,10.376 L7.416,11.054 L7.236,11.6 C7.13199948,11.9080015 7.05100029,12.0939997 6.993,12.158 C6.93499971,12.2220003 6.80800098,12.254 6.612,12.254 C6.30799848,12.254 6.156,12.1940006 6.156,12.074 C6.156,12.0059997 6.23199924,11.8040017 6.384,11.468 C6.41600016,11.3959996 6.48399948,11.2380012 6.588,10.994 C6.7480008,10.6139981 6.84999978,10.3680006 6.894,10.256 L7.452,8.81 L7.764,7.922 L7.932,7.412 C8.00000034,7.19999894 8.06899965,7.06000034 8.139,6.992 C8.20900035,6.92399966 8.31799926,6.89 8.466,6.89 C8.79800166,6.89 8.964,6.95799932 8.964,7.094 C8.964,7.15000028 8.93200032,7.24999928 8.868,7.394 L8.718,7.73 C8.70199992,7.7700002 8.63000064,7.95399836 8.502,8.282 C8.4619998,8.37800048 8.37000072,8.59799828 8.226,8.942 C8.17799976,9.05800058 8.08600068,9.28999826 7.95,9.638 L7.95,9.638 Z M12.294,9.326 L9.69,10.652 L9.69,9.878 L11.472,8.996 L9.696,8.114 L9.69,7.346 L12.294,8.672 L12.294,9.326 Z" id="&lt;/&gt;" fill="#5AEF7C"></path>
        </g>
    </g>
</svg>