<svg xmlns="http://www.w3.org/2000/svg" width="71" height="93" viewBox="0 0 71 93">
  <g fill="none" fill-rule="evenodd">
    <path fill="#D70751" d="M3,0 L55.7339131,0 L71,18.640625 L71,90 C71,91.6568542 69.6568542,93 68,93 L3,93 C1.34314575,93 2.02906125e-16,91.6568542 0,90 L0,3 C-2.02906125e-16,1.34314575 1.34314575,3.04359188e-16 3,0 Z"/>
    <path fill="#3A6291" d="M56.1679688,0.083984375 L56.1679688,15.6293945 C56.1679688,17.2862488 57.5111145,18.6293945 59.1679688,18.6293945 L71.0048828,18.6293945 L56.1679688,0.083984375 Z"/>
    <path fill="#FFF" d="M23.896,58.192 L19.48,58.192 L19.48,56.144 L19.416,56.144 C19.223999,56.4213347 18.9733349,56.7039986 18.664,56.992 C18.3546651,57.2800014 17.9920021,57.5413322 17.576,57.776 C17.1599979,58.0106678 16.7013358,58.2026659 16.2,58.352 C15.6986642,58.5013341 15.181336,58.576 14.648,58.576 C13.4959942,58.576 12.4506714,58.3786686 11.512,57.984 C10.5733286,57.5893314 9.76800336,57.0346702 9.096,56.32 C8.42399664,55.6053298 7.90666848,54.7573382 7.544,53.776 C7.18133152,52.7946618 7,51.7173392 7,50.544 C7,49.4559946 7.16533168,48.416005 7.496,47.424 C7.82666832,46.431995 8.29599696,45.5520038 8.904,44.784 C9.51200304,44.0159962 10.253329,43.402669 11.128,42.944 C12.002671,42.485331 12.9946611,42.256 14.104,42.256 C15.1066717,42.256 16.0399957,42.4106651 16.904,42.72 C17.7680043,43.0293349 18.4773306,43.5573296 19.032,44.304 L19.096,44.304 L19.096,34 L23.896,34 L23.896,58.192 Z M19.48,50.416 C19.48,49.2426608 19.1440034,48.293337 18.472,47.568 C17.7999966,46.842663 16.8560061,46.48 15.64,46.48 C14.4239939,46.48 13.4800034,46.842663 12.808,47.568 C12.1359966,48.293337 11.8,49.2426608 11.8,50.416 C11.8,51.5893392 12.1359966,52.538663 12.808,53.264 C13.4800034,53.989337 14.4239939,54.352 15.64,54.352 C16.8560061,54.352 17.7999966,53.989337 18.472,53.264 C19.1440034,52.538663 19.48,51.5893392 19.48,50.416 Z M42.456,55.504 C41.6879962,56.4853382 40.7173392,57.242664 39.544,57.776 C38.3706608,58.309336 37.154673,58.576 35.896,58.576 C34.7013274,58.576 33.5760053,58.3840019 32.52,58 C31.4639947,57.6159981 30.5466706,57.0666702 29.768,56.352 C28.9893294,55.6373298 28.3760022,54.7786717 27.928,53.776 C27.4799978,52.7733283 27.256,51.6533395 27.256,50.416 C27.256,49.1786605 27.4799978,48.0586717 27.928,47.056 C28.3760022,46.0533283 28.9893294,45.1946702 29.768,44.48 C30.5466706,43.7653298 31.4639947,43.2160019 32.52,42.832 C33.5760053,42.4479981 34.7013274,42.256 35.896,42.256 C37.0053389,42.256 38.0133288,42.4479981 38.92,42.832 C39.8266712,43.2160019 40.5946635,43.7653298 41.224,44.48 C41.8533365,45.1946702 42.338665,46.0533283 42.68,47.056 C43.021335,48.0586717 43.192,49.1786605 43.192,50.416 L43.192,51.92 L32.056,51.92 C32.248001,52.8373379 32.6639968,53.5679973 33.304,54.112 C33.9440032,54.6560027 34.7333286,54.928 35.672,54.928 C36.4613373,54.928 37.1279973,54.7520018 37.672,54.4 C38.2160027,54.0479982 38.6906646,53.5946694 39.096,53.04 L42.456,55.504 Z M38.392,48.656 C38.4133334,47.8453293 38.1466694,47.1520029 37.592,46.576 C37.0373306,45.9999971 36.322671,45.712 35.448,45.712 C34.914664,45.712 34.4453354,45.7973325 34.04,45.968 C33.6346646,46.1386675 33.2880014,46.357332 33,46.624 C32.7119986,46.890668 32.4880008,47.1999982 32.328,47.552 C32.1679992,47.9040018 32.0773334,48.2719981 32.056,48.656 L38.392,48.656 Z M46.552,34 L51.352,34 L51.352,44.304 L51.416,44.304 C51.9706694,43.5573296 52.6799957,43.0293349 53.544,42.72 C54.4080043,42.4106651 55.3413283,42.256 56.344,42.256 C57.4533389,42.256 58.445329,42.485331 59.32,42.944 C60.194671,43.402669 60.935997,44.0159962 61.544,44.784 C62.152003,45.5520038 62.6213317,46.431995 62.952,47.424 C63.2826683,48.416005 63.448,49.4559946 63.448,50.544 C63.448,51.7173392 63.2666685,52.7946618 62.904,53.776 C62.5413315,54.7573382 62.0240034,55.6053298 61.352,56.32 C60.6799966,57.0346702 59.8746714,57.5893314 58.936,57.984 C57.9973286,58.3786686 56.9520058,58.576 55.8,58.576 C55.2453306,58.576 54.7226691,58.5013341 54.232,58.352 C53.7413309,58.2026659 53.2880021,58.0106678 52.872,57.776 C52.4559979,57.5413322 52.0933349,57.2800014 51.784,56.992 C51.4746651,56.7039986 51.224001,56.4213347 51.032,56.144 L50.968,56.144 L50.968,58.192 L46.552,58.192 L46.552,34 Z M50.968,50.416 C50.968,51.5893392 51.3039966,52.538663 51.976,53.264 C52.6480034,53.989337 53.5919939,54.352 54.808,54.352 C56.0240061,54.352 56.9679966,53.989337 57.64,53.264 C58.3120034,52.538663 58.648,51.5893392 58.648,50.416 C58.648,49.2426608 58.3120034,48.293337 57.64,47.568 C56.9679966,46.842663 56.0240061,46.48 54.808,46.48 C53.5919939,46.48 52.6480034,46.842663 51.976,47.568 C51.3039966,48.293337 50.968,49.2426608 50.968,50.416 Z"/>
  </g>
</svg>
