<svg xmlns="http://www.w3.org/2000/svg" width="81" height="93" viewBox="0 0 81 93">
  <g fill="none" fill-rule="evenodd">
    <path fill="#E6F2FF" d="M13,0 L65.7339131,0 L81,18.640625 L81,90 C81,91.6568542 79.6568542,93 78,93 L13,93 C11.3431458,93 10,91.6568542 10,90 L10,3 C10,1.34314575 11.3431458,3.04359188e-16 13,0 Z"/>
    <path fill="#AEC3DA" d="M66.1679688,0.083984375 L66.1679688,15.6293945 C66.1679688,17.2862488 67.5111145,18.6293945 69.1679688,18.6293945 L81.0048828,18.6293945 L66.1679688,0.083984375 Z"/>
    <rect width="66" height="32" y="53" fill="#4A4A4A" rx="3"/>
    <path fill="#4A90E2" d="M2,62 L6.68,62 C7.813339,62 8.8899949,62.1266654 9.91,62.38 C10.9300051,62.6333346 11.8199962,63.0433305 12.58,63.61 C13.3400038,64.1766695 13.9433311,64.9133288 14.39,65.82 C14.8366689,66.7266712 15.06,67.8266602 15.06,69.12 C15.06,70.2666724 14.8433355,71.2766623 14.41,72.15 C13.9766645,73.0233377 13.393337,73.7566637 12.66,74.35 C11.926663,74.9433363 11.0800048,75.3933318 10.12,75.7 C9.1599952,76.0066682 8.1533386,76.16 7.1,76.16 L2,76.16 L2,62 Z M5.12,73.28 L6.74,73.28 C7.4600036,73.28 8.1299969,73.2066674 8.75,73.06 C9.3700031,72.9133326 9.9066644,72.6700017 10.36,72.33 C10.8133356,71.9899983 11.1699987,71.5433361 11.43,70.99 C11.6900013,70.4366639 11.82,69.760004 11.82,68.96 C11.82,68.2666632 11.6900013,67.6633359 11.43,67.15 C11.1699987,66.6366641 10.8200022,66.213335 10.38,65.88 C9.9399978,65.546665 9.4233363,65.2966675 8.83,65.13 C8.2366637,64.9633325 7.6133366,64.88 6.96,64.88 L5.12,64.88 L5.12,73.28 Z M17.18,62 L22.66,62 C23.3800036,62 24.0633301,62.0699993 24.71,62.21 C25.3566699,62.3500007 25.9233309,62.5833317 26.41,62.91 C26.8966691,63.2366683 27.2833319,63.6766639 27.57,64.23 C27.8566681,64.7833361 28,65.4733292 28,66.3 C28,67.300005 27.7400026,68.1499965 27.22,68.85 C26.6999974,69.5500035 25.940005,69.9933324 24.94,70.18 L28.54,76.16 L24.8,76.16 L21.84,70.5 L20.3,70.5 L20.3,76.16 L17.18,76.16 L17.18,62 Z M20.3,67.86 L22.14,67.86 C22.4200014,67.86 22.7166651,67.8500001 23.03,67.83 C23.3433349,67.8099999 23.6266654,67.7500005 23.88,67.65 C24.1333346,67.5499995 24.3433325,67.3933344 24.51,67.18 C24.6766675,66.9666656 24.76,66.6666686 24.76,66.28 C24.76,65.9199982 24.6866674,65.6333344 24.54,65.42 C24.3933326,65.2066656 24.2066678,65.0433339 23.98,64.93 C23.7533322,64.8166661 23.4933348,64.7400002 23.2,64.7 C22.9066652,64.6599998 22.6200014,64.64 22.34,64.64 L20.3,64.64 L20.3,67.86 Z M34.8,62 L37.38,62 L43.54,76.16 L40.02,76.16 L38.8,73.16 L33.3,73.16 L32.12,76.16 L28.68,76.16 L34.8,62 Z M36,66.12 L34.28,70.52 L37.74,70.52 L36,66.12 Z M42.98,62 L46.38,62 L48.64,71.08 L48.68,71.08 L51.64,62 L54.54,62 L57.48,71.32 L57.52,71.32 L59.9,62 L63.06,62 L58.92,76.16 L56.14,76.16 L53.02,66.36 L52.98,66.36 L49.86,76.16 L47.18,76.16 L42.98,62 Z"/>
  </g>
</svg>
