<svg xmlns="http://www.w3.org/2000/svg" width="71" height="93" viewBox="0 0 71 93">
  <g fill="none" fill-rule="evenodd">
    <path fill="#1D2F44" d="M3,0 L55.7339131,0 L71,18.640625 L71,90 C71,91.6568542 69.6568542,93 68,93 L3,93 C1.34314575,93 2.02906125e-16,91.6568542 0,90 L0,3 C-2.02906125e-16,1.34314575 1.34314575,3.04359188e-16 3,0 Z"/>
    <path fill="#3A6291" d="M56.1679688,0.083984375 L56.1679688,15.6293945 C56.1679688,17.2862488 57.5111145,18.6293945 59.1679688,18.6293945 L71.0048828,18.6293945 L56.1679688,0.083984375 Z"/>
    <path fill="#FFF" d="M7,79.234 L10.419,79.234 C10.8956691,79.234 11.3463312,79.2773329 11.771,79.364 C12.1956688,79.4506671 12.5661651,79.6001656 12.8825,79.8125 C13.1988349,80.0248344 13.4501657,80.3108315 13.6365,80.6705 C13.8228343,81.0301685 13.916,81.4829973 13.916,82.029 C13.916,82.566336 13.8293342,83.0169982 13.656,83.381 C13.4826658,83.7450018 13.2443349,84.0353322 12.941,84.252 C12.6376652,84.4686677 12.2780021,84.6224995 11.862,84.7135 C11.4459979,84.8045005 10.9953358,84.85 10.51,84.85 L9.028,84.85 L9.028,88.438 L7,88.438 L7,79.234 Z M9.028,83.134 L10.38,83.134 C10.5620009,83.134 10.7374992,83.1166668 10.9065,83.082 C11.0755008,83.0473332 11.227166,82.9888337 11.3615,82.9065 C11.495834,82.8241663 11.6041663,82.7115007 11.6865,82.5685 C11.7688337,82.4254993 11.81,82.2456678 11.81,82.029 C11.81,81.7949988 11.7558339,81.6065007 11.6475,81.4635 C11.5391661,81.3204993 11.4005008,81.2100004 11.2315,81.132 C11.0624992,81.0539996 10.874001,81.0041668 10.666,80.9825 C10.457999,80.9608332 10.2586676,80.95 10.068,80.95 L9.028,80.95 L9.028,83.134 Z M15.268,79.234 L17.296,79.234 L17.296,86.566 L21.053,86.566 L21.053,88.438 L15.268,88.438 L15.268,79.234 Z M25.2,79.234 L26.877,79.234 L30.881,88.438 L28.593,88.438 L27.8,86.488 L24.225,86.488 L23.458,88.438 L21.222,88.438 L25.2,79.234 Z M25.98,81.912 L24.862,84.772 L27.111,84.772 L25.98,81.912 Z M33.104,84.512 L29.646,79.234 L32.168,79.234 L34.118,82.679 L36.185,79.234 L38.59,79.234 L35.132,84.512 L35.132,88.438 L33.104,88.438 L33.104,84.512 Z M39.344,79.234 L41.372,79.234 L41.372,86.566 L45.129,86.566 L45.129,88.438 L39.344,88.438 L39.344,79.234 Z M46.221,79.234 L48.249,79.234 L48.249,88.438 L46.221,88.438 L46.221,79.234 Z M54.645,81.483 C54.4803325,81.274999 54.2571681,81.1211672 53.9755,81.0215 C53.6938319,80.9218328 53.4273346,80.872 53.176,80.872 C53.0286659,80.872 52.8770008,80.8893332 52.721,80.924 C52.5649992,80.9586668 52.4176674,81.012833 52.279,81.0865 C52.1403326,81.160167 52.0276671,81.2576661 51.941,81.379 C51.8543329,81.5003339 51.811,81.6476658 51.811,81.821 C51.811,82.0983347 51.914999,82.3106659 52.123,82.458 C52.331001,82.6053341 52.5931651,82.7309995 52.9095,82.835 C53.2258349,82.9390005 53.5659982,83.0429995 53.93,83.147 C54.2940018,83.2510005 54.6341651,83.3983324 54.9505,83.589 C55.2668349,83.7796676 55.528999,84.0353317 55.737,84.356 C55.945001,84.6766683 56.049,85.105664 56.049,85.643 C56.049,86.1543359 55.9536676,86.6006648 55.763,86.982 C55.5723324,87.3633352 55.3145016,87.6796654 54.9895,87.931 C54.6644984,88.1823346 54.2875021,88.3686661 53.8585,88.49 C53.4294979,88.6113339 52.9766691,88.672 52.5,88.672 C51.901997,88.672 51.3473359,88.5810009 50.836,88.399 C50.3246641,88.2169991 49.8480022,87.9223354 49.406,87.515 L50.849,85.929 C51.057001,86.2063347 51.3191651,86.4208326 51.6355,86.5725 C51.9518349,86.7241674 52.2789983,86.8 52.617,86.8 C52.7816675,86.8 52.9484992,86.7805002 53.1175,86.7415 C53.2865008,86.7024998 53.438166,86.6440004 53.5725,86.566 C53.706834,86.4879996 53.8151663,86.3883339 53.8975,86.267 C53.9798337,86.1456661 54.021,86.0026675 54.021,85.838 C54.021,85.5606653 53.9148344,85.3418341 53.7025,85.1815 C53.4901656,85.0211659 53.2236683,84.8846672 52.903,84.772 C52.5823317,84.6593328 52.2356685,84.5466672 51.863,84.434 C51.4903315,84.3213328 51.1436683,84.1696676 50.823,83.979 C50.5023317,83.7883324 50.2358344,83.5370016 50.0235,83.225 C49.8111656,82.9129984 49.705,82.5013359 49.705,81.99 C49.705,81.4959975 49.802499,81.0626685 49.9975,80.69 C50.192501,80.3173315 50.4524984,80.0053346 50.7775,79.754 C51.1025016,79.5026654 51.4773312,79.3141673 51.902,79.1885 C52.3266688,79.0628327 52.7643311,79 53.215,79 C53.7350026,79 54.2376642,79.0736659 54.723,79.221 C55.2083358,79.3683341 55.6459981,79.6153316 56.036,79.962 L54.645,81.483 Z M59.338,81.028 L56.712,81.028 L56.712,79.234 L63.992,79.234 L63.992,81.028 L61.366,81.028 L61.366,88.438 L59.338,88.438 L59.338,81.028 Z"/>
    <polygon fill="#B64D9A" points="55 46.5 17 67 17 26"/>
  </g>
</svg>
