<svg xmlns="http://www.w3.org/2000/svg" width="81" height="93" viewBox="0 0 81 93">
  <g fill="none" fill-rule="evenodd">
    <path fill="#E6F2FF" d="M13,0 L65.7339131,0 L81,18.640625 L81,90 C81,91.6568542 79.6568542,93 78,93 L13,93 C11.3431458,93 10,91.6568542 10,90 L10,3 C10,1.34314575 11.3431458,3.04359188e-16 13,0 Z"/>
    <path fill="#AEC3DA" d="M66.1679688,0.083984375 L66.1679688,15.6293945 C66.1679688,17.2862488 67.5111145,18.6293945 69.1679688,18.6293945 L81.0048828,18.6293945 L66.1679688,0.083984375 Z"/>
    <rect width="66" height="32" y="53" fill="#4A90E2" rx="3"/>
    <path fill="#FF7586" d="M14,61 L20.028,61 C20.820004,61 21.5716631,61.0769992 22.283,61.231 C22.9943369,61.3850008 23.617664,61.6416649 24.153,62.001 C24.688336,62.3603351 25.1136651,62.8443303 25.429,63.453 C25.7443349,64.0616697 25.902,64.8206621 25.902,65.73 C25.902,66.8300055 25.6160029,67.7649962 25.044,68.535 C24.4719971,69.3050038 23.6360055,69.7926656 22.536,69.998 L26.496,76.576 L22.382,76.576 L19.126,70.35 L17.432,70.35 L17.432,76.576 L14,76.576 L14,61 Z M17.432,67.446 L19.456,67.446 C19.7640015,67.446 20.0903316,67.4350001 20.435,67.413 C20.7796684,67.3909999 21.0913319,67.3250005 21.37,67.215 C21.6486681,67.1049995 21.8796658,66.9326678 22.063,66.698 C22.2463343,66.4633322 22.338,66.1333355 22.338,65.708 C22.338,65.311998 22.2573341,64.9966678 22.096,64.762 C21.9346659,64.5273322 21.7293346,64.3476673 21.48,64.223 C21.2306654,64.0983327 20.9446683,64.0140002 20.622,63.97 C20.2993317,63.9259998 19.9840015,63.904 19.676,63.904 L17.432,63.904 L17.432,67.446 Z M30.874,64.036 L26.43,64.036 L26.43,61 L38.75,61 L38.75,64.036 L34.306,64.036 L34.306,76.576 L30.874,76.576 L30.874,64.036 Z M40.62,61 L51.07,61 L51.07,64.168 L44.052,64.168 L44.052,67.336 L50.542,67.336 L50.542,70.504 L44.052,70.504 L44.052,76.576 L40.62,76.576 L40.62,61 Z"/>
  </g>
</svg>
