<svg xmlns="http://www.w3.org/2000/svg" width="81" height="93" viewBox="0 0 81 93">
  <g fill="none" fill-rule="evenodd">
    <path fill="#E6F2FF" d="M13,0 L65.7339131,0 L81,18.640625 L81,90 C81,91.6568542 79.6568542,93 78,93 L13,93 C11.3431458,93 10,91.6568542 10,90 L10,3 C10,1.34314575 11.3431458,3.04359188e-16 13,0 Z"/>
    <path fill="#AEC3DA" d="M66.1679688,0.083984375 L66.1679688,15.6293945 C66.1679688,17.2862488 67.5111145,18.6293945 69.1679688,18.6293945 L81.0048828,18.6293945 L66.1679688,0.083984375 Z"/>
    <rect width="66" height="32" y="53" fill="#D4D4D4" rx="3"/>
    <path fill="#3D3D3D" d="M12.04,64.76 L8,64.76 L8,62 L19.2,62 L19.2,64.76 L15.16,64.76 L15.16,76.16 L12.04,76.16 L12.04,64.76 Z M20.9,62 L30.52,62 L30.52,64.88 L24.02,64.88 L24.02,67.52 L30.16,67.52 L30.16,70.4 L24.02,70.4 L24.02,73.28 L30.88,73.28 L30.88,76.16 L20.9,76.16 L20.9,62 Z M36.9,68.76 L32.22,62 L36.14,62 L39.16,66.96 L42.06,62 L45.84,62 L41.26,68.7 L46.38,76.16 L42.46,76.16 L39,70.46 L35.64,76.16 L31.94,76.16 L36.9,68.76 Z M50.56,64.76 L46.52,64.76 L46.52,62 L57.72,62 L57.72,64.76 L53.68,64.76 L53.68,76.16 L50.56,76.16 L50.56,64.76 Z"/>
  </g>
</svg>
