<svg xmlns="http://www.w3.org/2000/svg" width="81" height="93" viewBox="0 0 81 93">
  <g fill="none" fill-rule="evenodd">
    <path fill="#E6F2FF" d="M13,0 L65.7339131,0 L81,18.640625 L81,90 C81,91.6568542 79.6568542,93 78,93 L13,93 C11.3431458,93 10,91.6568542 10,90 L10,3 C10,1.34314575 11.3431458,3.04359188e-16 13,0 Z"/>
    <path fill="#AEC3DA" d="M66.1679688,0.083984375 L66.1679688,15.6293945 C66.1679688,17.2862488 67.5111145,18.6293945 69.1679688,18.6293945 L81.0048828,18.6293945 L66.1679688,0.083984375 Z"/>
    <rect width="66" height="32" y="53" fill="#007ACC" rx="3"/>
    <path fill="#FFF" d="M27.434,65.652 L24,65.652 L24,63.306 L33.52,63.306 L33.52,65.652 L30.086,65.652 L30.086,75.342 L27.434,75.342 L27.434,65.652 Z M40.813,66.247 C40.5976656,65.9749986 40.3058352,65.773834 39.9375,65.6435 C39.5691648,65.513166 39.2206683,65.448 38.892,65.448 C38.6993324,65.448 38.501001,65.4706664 38.297,65.516 C38.092999,65.5613336 37.9003342,65.6321662 37.719,65.7285 C37.5376658,65.8248338 37.3903339,65.9523325 37.277,66.111 C37.1636661,66.2696675 37.107,66.4623322 37.107,66.689 C37.107,67.0516685 37.2429986,67.3293324 37.515,67.522 C37.7870014,67.7146676 38.1298313,67.8789993 38.5435,68.015 C38.9571687,68.1510007 39.4019976,68.2869993 39.878,68.423 C40.3540024,68.5590007 40.7988313,68.7516654 41.2125,69.001 C41.6261687,69.2503346 41.9689986,69.5846646 42.241,70.004 C42.5130014,70.4233354 42.649,70.9843298 42.649,71.687 C42.649,72.35567 42.5243346,72.9393308 42.275,73.438 C42.0256654,73.9366692 41.6885021,74.3503317 41.2635,74.679 C40.8384979,75.0076683 40.3455028,75.2513325 39.7845,75.41 C39.2234972,75.5686675 38.6313364,75.648 38.008,75.648 C37.2259961,75.648 36.50067,75.5290012 35.832,75.291 C35.16333,75.0529988 34.5400029,74.6676693 33.962,74.135 L35.849,72.061 C36.1210014,72.4236685 36.4638313,72.7041657 36.8775,72.9025 C37.2911687,73.1008343 37.7189978,73.2 38.161,73.2 C38.3763344,73.2 38.5944989,73.1745003 38.8155,73.1235 C39.0365011,73.0724997 39.2348325,72.9960005 39.4105,72.894 C39.5861675,72.7919995 39.7278328,72.6616675 39.8355,72.503 C39.9431672,72.3443325 39.997,72.1573344 39.997,71.942 C39.997,71.5793315 39.8581681,71.2931677 39.5805,71.0835 C39.3028319,70.8738323 38.9543354,70.6953341 38.535,70.548 C38.1156646,70.4006659 37.6623358,70.2533341 37.175,70.106 C36.6876642,69.9586659 36.2343354,69.7603346 35.815,69.511 C35.3956646,69.2616654 35.0471681,68.933002 34.7695,68.525 C34.4918319,68.116998 34.353,67.57867 34.353,66.91 C34.353,66.2639968 34.4804987,65.6973358 34.7355,65.21 C34.9905013,64.7226642 35.3304979,64.3146683 35.7555,63.986 C36.1805021,63.6573317 36.6706639,63.4108342 37.226,63.2465 C37.7813361,63.0821658 38.3536637,63 38.943,63 C39.6230034,63 40.2803302,63.0963324 40.915,63.289 C41.5496698,63.4816676 42.1219975,63.8046644 42.632,64.258 L40.813,66.247 Z"/>
  </g>
</svg>
