<svg xmlns="http://www.w3.org/2000/svg" width="81" height="93" viewBox="0 0 81 93">
  <g fill="none" fill-rule="evenodd">
    <path fill="#E6F2FF" d="M13,0 L65.7339131,0 L81,18.640625 L81,90 C81,91.6568542 79.6568542,93 78,93 L13,93 C11.3431458,93 10,91.6568542 10,90 L10,3 C10,1.34314575 11.3431458,3.04359188e-16 13,0 Z"/>
    <path fill="#AEC3DA" d="M66.1679688,0.083984375 L66.1679688,15.6293945 C66.1679688,17.2862488 67.5111145,18.6293945 69.1679688,18.6293945 L81.0048828,18.6293945 L66.1679688,0.083984375 Z"/>
    <rect width="66" height="32" y="53" fill="#577787" rx="3"/>
    <path fill="#5AEF7C" d="M18.216,68.746 L14.238,63 L17.57,63 L20.137,67.216 L22.602,63 L25.815,63 L21.922,68.695 L26.274,75.036 L22.942,75.036 L20.001,70.191 L17.145,75.036 L14,75.036 L18.216,68.746 Z M27.498,63 L31.51,63 L34.281,70.854 L34.315,70.854 L37.103,63 L41.098,63 L41.098,75.036 L38.446,75.036 L38.446,65.805 L38.412,65.805 L35.25,75.036 L33.227,75.036 L30.184,65.805 L30.15,65.805 L30.15,75.036 L27.498,75.036 L27.498,63 Z M43.648,63 L46.3,63 L46.3,72.588 L51.213,72.588 L51.213,75.036 L43.648,75.036 L43.648,63 Z"/>
  </g>
</svg>
