<svg height="50" viewBox="0 0 173 50" width="173" xmlns="http://www.w3.org/2000/svg" xmlns:xlink="http://www.w3.org/1999/xlink"><radialGradient id="a" cx="50%" cy="33.828922%" gradientTransform="matrix(1 0 0 .271292 0 .246514)" r="66.171078%"><stop offset="0" stop-color="#e02074"/><stop offset=".363494975" stop-color="#d41a62"/><stop offset="1" stop-color="#bd0e40"/></radialGradient><g fill="none" transform="translate(0 -2)"><path d="m7.64730986 24.7437622-1.7621824 9.0815023h3.53704238zm-2.28196283-4.0131024h4.57660324l5.10906123 22.1909703h-3.7398835l-1.1663366-5.4845734h-5.00764065l-1.14098142 5.4845734h-3.73988353zm15.89767437 3.6861089v6.510144h1.5339862c1.2255046 0 2.085458-.2427655 2.5798857-.7283038.4944278-.4855382.7416379-1.3277859.7416379-2.5267682s-.2472101-2.0412299-.7416379-2.5267682c-.4944277-.4855383-1.3543811-.7283038-2.5798857-.7283038zm-3.7398835-3.6861089h5.1344164c2.6115927 0 4.4899674.5449838 5.6351804 1.6349676 1.145213 1.0899839 1.7178109 2.858704 1.7178109 5.3062133s-.5725979 4.2162294-1.7178109 5.3062133-3.0235877 1.6349676-5.6351804 1.6349676h-1.3945329v8.3086085h-3.7398835zm21.3870628 4.0131024-1.7621825 9.0815023h3.5370424zm-2.2819629-4.0131024h4.5766033l5.1090612 22.1909703h-3.7398835l-1.1663366-5.4845734h-5.0076407l-1.1409814 5.4845734h-3.7398835zm25.3931753 22.1909703h-3.8666592l-3.6131078-7.3424912-3.6004303 7.3424912h-3.8666592l5.5527762-11.2664136-5.4006454-10.9245567h3.8666593l3.4482994 7.0600877 3.4609769-7.0600877h3.8666593l-5.3752903 10.9245567zm39.4145689-3.6563823 3.334201-18.534588h3.765239l-4.500538 22.1909703h-5.1851263l-4.5005378-22.1909703h3.7652387zm20.898977 1.7455563 4.412834-13.4935627-.531236 16.3009871 3.855484-6.9020598v10.4385073l2.994409-11.7734054-.77411 12.6418399 1.670887-4.404882 2.358836 6.6166951 2.486221-.1839768 3.853847-.523332s.744605.374253.435283.4625455c-.287743.082133-1.568134.4232977-1.568134.4232977l-5.207217 1.4278966-2.358836-6.5742198s-2.178751 6.6788172-2.19597 6.5742198c-.412632-2.5065081 0-10.0541478 0-10.0541478l-2.236613 9.1444669-.288554-10.545546-4.133202 6.4857103.522207-12.5296727-3.296136 8.3794648h-1.343823-10.275172v-3.7455623l2.028412-2.5267682c2.40875-3.0024102 3.870882-4.8504007 4.386439-5.5440268.633882-.8521692 1.09027-1.6077149 1.369178-2.2666597s.41836-1.3104481.41836-1.9545295c0-.9908945-.255662-1.756349-.766993-2.2963865-.511331-.5400374-1.236059-.8100521-2.174203-.8100521-.667689 0-1.417771.1560635-2.250269.4681953-.832498.3121317-1.700903.7654591-2.605241 1.3599958v-4.0874192c.904338-.3864488 1.789646-.6812355 2.655951-.8843688.866305-.2031334 1.696678-.3046986 2.491143-.3046986 2.003066 0 3.577182.547461 4.722395 1.6423994 1.145213 1.0949383 1.717811 2.5886893 1.717811 4.4812977 0 .8719871-.124662 1.6894628-.373988 2.4524515-.249327.7629888-.678248 1.6101908-1.286774 2.5416316-.447943.6738082-1.677655 2.189854-3.689173 4.5481828-1.090277 1.2782538-1.956569 2.2988598-2.598902 3.0618486h6.231026z" fill="#fff"/><path d="m62.4651281 20.7306598h4.0314677l3.6764957 8.9180055 3.6891732-8.9180055h4.0314677l-5.8443604 13.4513249v8.7396454h-3.7398835v-8.7396454z" fill="#c31148"/><g transform="matrix(.8660254 .5 -.5 .8660254 166.858545 .212957)"><path d="m5.37348143 45.534948s.4196024.7799541.7443147.9183116c.32471229.1383575 1.02892955.1383575 1.02892955.1383575l-2.57696773 1.4090658zm-.70350294-.0653073s-.56131008.7369458-.94288667.9638938c-.29858322.1775866-1.09759276.2497099-1.09759276.2497099l1.20303193.4958055.70951442.2924122z" fill="#a9bbce"/><path d="m4.55673017.01681892s5.66085863.66229937 7.42276883 12.46416938c1.7619102 11.80187-1.265944 33.2548484-7.05244699 33.2548484-5.60109073 0-4.81326032-31.777167-4.81326032-31.777167s1.68974297-.8057252 3.19212817-4.76240136c1.50238521-3.95667618 1.25081031-9.17944942 1.25081031-9.17944942z" fill="url(#a)"/><path d="m6.25445774 17.5375517 4.67273576-10.01367808s.7016059 2.94556088.7138668 3.00450218c.1436953.6907797.3384387 2.0541941.3384387 2.0541941l-5.38283277 5.4249017z" fill="#f6a623"/><path d="m6.5908808 18.5318081 5.5018188-5.2556973s.1832194 1.7346676.2456189 2.6046166c.0584754.8152397.1170059 2.4509493.1170059 2.4509493l-5.8644436.8164014z" fill="#f6a623"/><path d="m5.72013445 4.23689113c.16301805 0 1.74124876 16.93222107 1.55943262 21.48152657-.38938702 9.7430319-2.81020933 29.394132-2.81020933 29.394132l-1.20250657 1.2113386s2.40542076-20.7364287 2.86261315-30.6054706c.22361867-4.8270751-.63274727-21.48152657-.40932987-21.48152657z" fill="#211e1e"/></g></g></svg>