<svg xmlns="http://www.w3.org/2000/svg" width="71" height="93" viewBox="0 0 71 93">
  <g fill="none" fill-rule="evenodd">
    <path fill="#1D2F44" d="M3,0 L55.7339131,0 L71,18.640625 L71,90 C71,91.6568542 69.6568542,93 68,93 L3,93 C1.34314575,93 2.02906125e-16,91.6568542 0,90 L0,3 C-2.02906125e-16,1.34314575 1.34314575,3.04359188e-16 3,0 Z"/>
    <path fill="#3A6291" d="M56.1679688,0.083984375 L56.1679688,15.6293945 C56.1679688,17.2862488 57.5111145,18.6293945 59.1679688,18.6293945 L71.0048828,18.6293945 L56.1679688,0.083984375 Z"/>
    <path fill="#7ED321" d="M20,32.614 C20,31.3959939 20.1111656,30.1586729 20.3335,28.902 C20.5558344,27.645327 20.9521638,26.5046718 21.5225,25.48 C22.0928362,24.4553282 22.8709951,23.6191699 23.857,22.9715 C24.8430049,22.3238301 26.099659,22 27.627,22 C29.154341,22 30.4109951,22.3238301 31.397,22.9715 C32.3830049,23.6191699 33.1611638,24.4553282 33.7315,25.48 C34.3018362,26.5046718 34.6981656,27.645327 34.9205,28.902 C35.1428344,30.1586729 35.254,31.3959939 35.254,32.614 C35.254,33.8320061 35.1428344,35.069327 34.9205,36.326 C34.6981656,37.582673 34.3018362,38.7233282 33.7315,39.748 C33.1611638,40.7726718 32.3830049,41.6088301 31.397,42.2565 C30.4109951,42.9041699 29.154341,43.228 27.627,43.228 C26.099659,43.228 24.8430049,42.9041699 23.857,42.2565 C22.8709951,41.6088301 22.0928362,40.7726718 21.5225,39.748 C20.9521638,38.7233282 20.5558344,37.582673 20.3335,36.326 C20.1111656,35.069327 20,33.8320061 20,32.614 Z M24.35,32.614 C24.35,33.155336 24.3741664,33.8029962 24.4225,34.557 C24.4708336,35.3110038 24.6013323,36.0359965 24.814,36.732 C25.0266677,37.4280035 25.3504978,38.0176643 25.7855,38.501 C26.2205022,38.9843358 26.8343294,39.226 27.627,39.226 C28.4003372,39.226 29.0093311,38.9843358 29.454,38.501 C29.8986689,38.0176643 30.2273323,37.4280035 30.44,36.732 C30.6526677,36.0359965 30.7831664,35.3110038 30.8315,34.557 C30.8798336,33.8029962 30.904,33.155336 30.904,32.614 C30.904,32.072664 30.8798336,31.4250038 30.8315,30.671 C30.7831664,29.9169962 30.6526677,29.1920035 30.44,28.496 C30.2273323,27.7999965 29.8986689,27.2103358 29.454,26.727 C29.0093311,26.2436643 28.4003372,26.002 27.627,26.002 C26.8343294,26.002 26.2205022,26.2436643 25.7855,26.727 C25.3504978,27.2103358 25.0266677,27.7999965 24.814,28.496 C24.6013323,29.1920035 24.4708336,29.9169962 24.4225,30.671 C24.3741664,31.4250038 24.35,32.072664 24.35,32.614 Z M44.563,27.22 L40.445,30.845 L37.98,28.003 L44.679,22.348 L48.739,22.348 L48.739,42.88 L44.563,42.88 L44.563,27.22 Z M26.583,54.872 L22.465,58.497 L20,55.655 L26.699,50 L30.759,50 L30.759,70.532 L26.583,70.532 L26.583,54.872 Z M36,60.614 C36,59.3959939 36.1111656,58.1586729 36.3335,56.902 C36.5558344,55.6453271 36.9521638,54.5046718 37.5225,53.48 C38.0928362,52.4553282 38.8709951,51.6191699 39.857,50.9715 C40.8430049,50.3238301 42.099659,50 43.627,50 C45.154341,50 46.4109951,50.3238301 47.397,50.9715 C48.3830049,51.6191699 49.1611638,52.4553282 49.7315,53.48 C50.3018362,54.5046718 50.6981656,55.6453271 50.9205,56.902 C51.1428344,58.1586729 51.254,59.3959939 51.254,60.614 C51.254,61.8320061 51.1428344,63.0693271 50.9205,64.326 C50.6981656,65.582673 50.3018362,66.7233282 49.7315,67.748 C49.1611638,68.7726718 48.3830049,69.6088301 47.397,70.2565 C46.4109951,70.9041699 45.154341,71.228 43.627,71.228 C42.099659,71.228 40.8430049,70.9041699 39.857,70.2565 C38.8709951,69.6088301 38.0928362,68.7726718 37.5225,67.748 C36.9521638,66.7233282 36.5558344,65.582673 36.3335,64.326 C36.1111656,63.0693271 36,61.8320061 36,60.614 Z M40,60.612 C40,61.153336 40.0241664,61.8009962 40.0725,62.555 C40.1208336,63.3090038 40.2513323,64.0339965 40.464,64.73 C40.6766677,65.4260035 41.0004978,66.0156643 41.4355,66.499 C41.8705022,66.9823358 42.4843294,67.224 43.277,67.224 C44.0503372,67.224 44.6593311,66.9823358 45.104,66.499 C45.5486689,66.0156643 45.8773323,65.4260035 46.09,64.73 C46.3026677,64.0339965 46.4331664,63.3090038 46.4815,62.555 C46.5298336,61.8009962 46.554,61.153336 46.554,60.612 C46.554,60.070664 46.5298336,59.4230038 46.4815,58.669 C46.4331664,57.9149962 46.3026677,57.1900035 46.09,56.494 C45.8773323,55.7979965 45.5486689,55.2083357 45.104,54.725 C44.6593311,54.2416642 44.0503372,54 43.277,54 C42.4843294,54 41.8705022,54.2416642 41.4355,54.725 C41.0004978,55.2083357 40.6766677,55.7979965 40.464,56.494 C40.2513323,57.1900035 40.1208336,57.9149962 40.0725,58.669 C40.0241664,59.4230038 40,60.070664 40,60.612 Z"/>
  </g>
</svg>
