<svg xmlns="http://www.w3.org/2000/svg" width="81" height="93" viewBox="0 0 81 93">
  <g fill="none" fill-rule="evenodd">
    <path fill="#E6F2FF" d="M13,0 L65.7339131,0 L81,18.640625 L81,90 C81,91.6568542 79.6568542,93 78,93 L13,93 C11.3431458,93 10,91.6568542 10,90 L10,3 C10,1.34314575 11.3431458,3.04359188e-16 13,0 Z"/>
    <path fill="#AEC3DA" d="M66.1679688,0.083984375 L66.1679688,15.6293945 C66.1679688,17.2862488 67.5111145,18.6293945 69.1679688,18.6293945 L81.0048828,18.6293945 L66.1679688,0.083984375 Z"/>
    <rect width="66" height="32" y="53" fill="#7E9B61" rx="3"/>
    <path fill="#FFF" d="M22.88,69.54 C22.7333326,69.3266656 22.526668,69.1500007 22.26,69.01 C21.993332,68.8699993 21.7066682,68.8 21.4,68.8 C20.6399962,68.8 20.0500021,69.0266644 19.63,69.48 C19.2099979,69.9333356 19,70.526663 19,71.26 C19,71.993337 19.2099979,72.5866644 19.63,73.04 C20.0500021,73.4933356 20.6399962,73.72 21.4,73.72 C21.733335,73.72 22.0199988,73.6466674 22.26,73.5 C22.5000012,73.3533326 22.7066658,73.180001 22.88,72.98 L24.86,75.06 C24.393331,75.5400024 23.8433365,75.8766657 23.21,76.07 C22.5766635,76.2633343 21.9733362,76.36 21.4,76.36 C20.6533296,76.36 19.9500033,76.2400012 19.29,76 C18.6299967,75.7599988 18.0566691,75.4166689 17.57,74.97 C17.0833309,74.5233311 16.7000014,73.9866698 16.42,73.36 C16.1399986,72.7333302 16,72.0333372 16,71.26 C16,70.4866628 16.1399986,69.7866698 16.42,69.16 C16.7000014,68.5333302 17.0833309,67.9966689 17.57,67.55 C18.0566691,67.1033311 18.6299967,66.7600012 19.29,66.52 C19.9500033,66.2799988 20.6533296,66.16 21.4,66.16 C21.9733362,66.16 22.5766635,66.2566657 23.21,66.45 C23.8433365,66.6433343 24.393331,66.9799976 24.86,67.46 L22.88,69.54 Z M32.04,74.9 L32,74.9 C31.666665,75.4200026 31.2233361,75.7933322 30.67,76.02 C30.1166639,76.2466678 29.5333364,76.36 28.92,76.36 C28.4666644,76.36 28.0300021,76.2966673 27.61,76.17 C27.1899979,76.0433327 26.8200016,75.8533346 26.5,75.6 C26.1799984,75.3466654 25.9266676,75.0333352 25.74,74.66 C25.5533324,74.2866648 25.46,73.8533358 25.46,73.36 C25.46,72.7999972 25.5633323,72.3266686 25.77,71.94 C25.9766677,71.5533314 26.2566649,71.2333346 26.61,70.98 C26.9633351,70.7266654 27.3666644,70.5300007 27.82,70.39 C28.2733356,70.2499993 28.7433309,70.146667 29.23,70.08 C29.7166691,70.013333 30.2033309,69.9733334 30.69,69.96 C31.1766691,69.9466666 31.6266646,69.94 32.04,69.94 C32.04,69.406664 31.8500019,68.9833349 31.47,68.67 C31.0899981,68.3566651 30.6400026,68.2 30.12,68.2 C29.6266642,68.2 29.1766687,68.3033323 28.77,68.51 C28.3633313,68.7166677 28.0000016,68.9999982 27.68,69.36 L26.08,67.72 C26.6400028,67.1999974 27.2933296,66.8100013 28.04,66.55 C28.7866704,66.2899987 29.559996,66.16 30.36,66.16 C31.2400044,66.16 31.9633305,66.2699989 32.53,66.49 C33.0966695,66.7100011 33.5499983,67.0333312 33.89,67.46 C34.2300017,67.8866688 34.466666,68.4099969 34.6,69.03 C34.733334,69.6500031 34.8,70.3666626 34.8,71.18 L34.8,76.12 L32.04,76.12 L32.04,74.9 Z M31.3,71.86 C31.0733322,71.86 30.7900017,71.8699999 30.45,71.89 C30.1099983,71.9100001 29.7833349,71.9666662 29.47,72.06 C29.1566651,72.1533338 28.8900011,72.2933324 28.67,72.48 C28.4499989,72.6666676 28.34,72.926665 28.34,73.26 C28.34,73.6200018 28.4933318,73.8866658 28.8,74.06 C29.1066682,74.2333342 29.426665,74.32 29.76,74.32 C30.0533348,74.32 30.3366653,74.2800004 30.61,74.2 C30.8833347,74.1199996 31.1266656,74.0066674 31.34,73.86 C31.5533344,73.7133326 31.7233327,73.5266678 31.85,73.3 C31.9766673,73.0733322 32.04,72.8066682 32.04,72.5 L32.04,71.86 L31.3,71.86 Z M36.72,61 L39.72,61 L39.72,76.12 L36.72,76.12 L36.72,61 Z M48.46,69.54 C48.3133326,69.3266656 48.106668,69.1500007 47.84,69.01 C47.573332,68.8699993 47.2866682,68.8 46.98,68.8 C46.2199962,68.8 45.6300021,69.0266644 45.21,69.48 C44.7899979,69.9333356 44.58,70.526663 44.58,71.26 C44.58,71.993337 44.7899979,72.5866644 45.21,73.04 C45.6300021,73.4933356 46.2199962,73.72 46.98,73.72 C47.313335,73.72 47.5999988,73.6466674 47.84,73.5 C48.0800012,73.3533326 48.2866658,73.180001 48.46,72.98 L50.44,75.06 C49.973331,75.5400024 49.4233365,75.8766657 48.79,76.07 C48.1566635,76.2633343 47.5533362,76.36 46.98,76.36 C46.2333296,76.36 45.5300033,76.2400012 44.87,76 C44.2099967,75.7599988 43.6366691,75.4166689 43.15,74.97 C42.6633309,74.5233311 42.2800014,73.9866698 42,73.36 C41.7199986,72.7333302 41.58,72.0333372 41.58,71.26 C41.58,70.4866628 41.7199986,69.7866698 42,69.16 C42.2800014,68.5333302 42.6633309,67.9966689 43.15,67.55 C43.6366691,67.1033311 44.2099967,66.7600012 44.87,66.52 C45.5300033,66.2799988 46.2333296,66.16 46.98,66.16 C47.5533362,66.16 48.1566635,66.2566657 48.79,66.45 C49.4233365,66.6433343 49.973331,66.9799976 50.44,67.46 L48.46,69.54 Z"/>
  </g>
</svg>
