<svg xmlns="http://www.w3.org/2000/svg" width="81" height="93" viewBox="0 0 81 93">
  <g fill="none" fill-rule="evenodd">
    <path fill="#E6F2FF" d="M13,0 L65.7339131,0 L81,18.640625 L81,90 C81,91.6568542 79.6568542,93 78,93 L13,93 C11.3431458,93 10,91.6568542 10,90 L10,3 C10,1.34314575 11.3431458,3.04359188e-16 13,0 Z"/>
    <path fill="#AEC3DA" d="M66.1679688,0.083984375 L66.1679688,15.6293945 C66.1679688,17.2862488 67.5111145,18.6293945 69.1679688,18.6293945 L81.0048828,18.6293945 L66.1679688,0.083984375 Z"/>
    <rect width="66" height="32" y="53" fill="#1572B6" rx="3"/>
    <path fill="#FFF" d="M25.02,66.04 C24.7133318,65.6666648 24.3366689,65.380001 23.89,65.18 C23.4433311,64.979999 22.9266696,64.88 22.34,64.88 C21.7533304,64.88 21.2100025,64.9933322 20.71,65.22 C20.2099975,65.4466678 19.7766685,65.7633313 19.41,66.17 C19.0433315,66.5766687 18.7566677,67.0599972 18.55,67.62 C18.3433323,68.1800028 18.24,68.7866634 18.24,69.44 C18.24,70.10667 18.3433323,70.7166639 18.55,71.27 C18.7566677,71.8233361 19.0399982,72.3033313 19.4,72.71 C19.7600018,73.1166687 20.1833309,73.4333322 20.67,73.66 C21.1566691,73.8866678 21.6799972,74 22.24,74 C22.8800032,74 23.4466642,73.866668 23.94,73.6 C24.4333358,73.333332 24.8399984,72.9600024 25.16,72.48 L27.76,74.42 C27.159997,75.2600042 26.4000046,75.879998 25.48,76.28 C24.5599954,76.680002 23.6133382,76.88 22.64,76.88 C21.5333278,76.88 20.513338,76.7066684 19.58,76.36 C18.646662,76.0133316 17.8400034,75.5166699 17.16,74.87 C16.4799966,74.2233301 15.9500019,73.4400046 15.57,72.52 C15.1899981,71.5999954 15,70.573339 15,69.44 C15,68.306661 15.1899981,67.2800046 15.57,66.36 C15.9500019,65.4399954 16.4799966,64.6566699 17.16,64.01 C17.8400034,63.3633301 18.646662,62.8666684 19.58,62.52 C20.513338,62.1733316 21.5333278,62 22.64,62 C23.040002,62 23.4566645,62.0366663 23.89,62.11 C24.3233355,62.1833337 24.7499979,62.2999992 25.17,62.46 C25.5900021,62.6200008 25.9933314,62.833332 26.38,63.1 C26.7666686,63.366668 27.1133318,63.6933314 27.42,64.08 L25.02,66.04 Z M36.46,65.82 C36.2066654,65.4999984 35.8633355,65.2633341 35.43,65.11 C34.9966645,64.9566659 34.5866686,64.88 34.2,64.88 C33.9733322,64.88 33.7400012,64.9066664 33.5,64.96 C33.2599988,65.0133336 33.0333344,65.0966661 32.82,65.21 C32.6066656,65.3233339 32.433334,65.4733324 32.3,65.66 C32.166666,65.8466676 32.1,66.073332 32.1,66.34 C32.1,66.7666688 32.2599984,67.0933322 32.58,67.32 C32.9000016,67.5466678 33.3033309,67.7399992 33.79,67.9 C34.2766691,68.0600008 34.7999972,68.2199992 35.36,68.38 C35.9200028,68.5400008 36.4433309,68.7666652 36.93,69.06 C37.4166691,69.3533348 37.8199984,69.7466642 38.14,70.24 C38.4600016,70.7333358 38.62,71.3933292 38.62,72.22 C38.62,73.0066706 38.4733348,73.6933304 38.18,74.28 C37.8866652,74.8666696 37.4900025,75.3533314 36.99,75.74 C36.4899975,76.1266686 35.9100033,76.4133324 35.25,76.6 C34.5899967,76.7866676 33.893337,76.88 33.16,76.88 C32.2399954,76.88 31.3866706,76.7400014 30.6,76.46 C29.8133294,76.1799986 29.0800034,75.7266698 28.4,75.1 L30.62,72.66 C30.9400016,73.0866688 31.3433309,73.4166655 31.83,73.65 C32.3166691,73.8833345 32.8199974,74 33.34,74 C33.5933346,74 33.8499987,73.9700003 34.11,73.91 C34.3700013,73.8499997 34.6033323,73.7600006 34.81,73.64 C35.0166677,73.5199994 35.1833327,73.3666676 35.31,73.18 C35.4366673,72.9933324 35.5,72.7733346 35.5,72.52 C35.5,72.0933312 35.3366683,71.7566679 35.01,71.51 C34.6833317,71.2633321 34.2733358,71.0533342 33.78,70.88 C33.2866642,70.7066658 32.7533362,70.5333342 32.18,70.36 C31.6066638,70.1866658 31.0733358,69.9533348 30.58,69.66 C30.0866642,69.3666652 29.6766683,68.9800024 29.35,68.5 C29.0233317,68.0199976 28.86,67.3866706 28.86,66.6 C28.86,65.8399962 29.0099985,65.1733362 29.31,64.6 C29.6100015,64.0266638 30.0099975,63.5466686 30.51,63.16 C31.0100025,62.7733314 31.5866634,62.4833343 32.24,62.29 C32.8933366,62.0966657 33.5666632,62 34.26,62 C35.060004,62 35.8333296,62.1133322 36.58,62.34 C37.3266704,62.5666678 37.999997,62.946664 38.6,63.48 L36.46,65.82 Z M47.94,65.82 C47.6866654,65.4999984 47.3433355,65.2633341 46.91,65.11 C46.4766645,64.9566659 46.0666686,64.88 45.68,64.88 C45.4533322,64.88 45.2200012,64.9066664 44.98,64.96 C44.7399988,65.0133336 44.5133344,65.0966661 44.3,65.21 C44.0866656,65.3233339 43.913334,65.4733324 43.78,65.66 C43.646666,65.8466676 43.58,66.073332 43.58,66.34 C43.58,66.7666688 43.7399984,67.0933322 44.06,67.32 C44.3800016,67.5466678 44.7833309,67.7399992 45.27,67.9 C45.7566691,68.0600008 46.2799972,68.2199992 46.84,68.38 C47.4000028,68.5400008 47.9233309,68.7666652 48.41,69.06 C48.8966691,69.3533348 49.2999984,69.7466642 49.62,70.24 C49.9400016,70.7333358 50.1,71.3933292 50.1,72.22 C50.1,73.0066706 49.9533348,73.6933304 49.66,74.28 C49.3666652,74.8666696 48.9700025,75.3533314 48.47,75.74 C47.9699975,76.1266686 47.3900033,76.4133324 46.73,76.6 C46.0699967,76.7866676 45.373337,76.88 44.64,76.88 C43.7199954,76.88 42.8666706,76.7400014 42.08,76.46 C41.2933294,76.1799986 40.5600034,75.7266698 39.88,75.1 L42.1,72.66 C42.4200016,73.0866688 42.8233309,73.4166655 43.31,73.65 C43.7966691,73.8833345 44.2999974,74 44.82,74 C45.0733346,74 45.3299987,73.9700003 45.59,73.91 C45.8500013,73.8499997 46.0833323,73.7600006 46.29,73.64 C46.4966677,73.5199994 46.6633327,73.3666676 46.79,73.18 C46.9166673,72.9933324 46.98,72.7733346 46.98,72.52 C46.98,72.0933312 46.8166683,71.7566679 46.49,71.51 C46.1633317,71.2633321 45.7533358,71.0533342 45.26,70.88 C44.7666642,70.7066658 44.2333362,70.5333342 43.66,70.36 C43.0866638,70.1866658 42.5533358,69.9533348 42.06,69.66 C41.5666642,69.3666652 41.1566683,68.9800024 40.83,68.5 C40.5033317,68.0199976 40.34,67.3866706 40.34,66.6 C40.34,65.8399962 40.4899985,65.1733362 40.79,64.6 C41.0900015,64.0266638 41.4899975,63.5466686 41.99,63.16 C42.4900025,62.7733314 43.0666634,62.4833343 43.72,62.29 C44.3733366,62.0966657 45.0466632,62 45.74,62 C46.540004,62 47.3133296,62.1133322 48.06,62.34 C48.8066704,62.5666678 49.479997,62.946664 50.08,63.48 L47.94,65.82 Z"/>
  </g>
</svg>
