<svg xmlns="http://www.w3.org/2000/svg" width="81" height="93" viewBox="0 0 81 93">
  <g fill="none" fill-rule="evenodd">
    <path fill="#E6F2FF" d="M13,0 L65.7339131,0 L81,18.640625 L81,90 C81,91.6568542 79.6568542,93 78,93 L13,93 C11.3431458,93 10,91.6568542 10,90 L10,3 C10,1.34314575 11.3431458,3.04359188e-16 13,0 Z"/>
    <path fill="#AEC3DA" d="M66.1679688,0.083984375 L66.1679688,15.6293945 C66.1679688,17.2862488 67.5111145,18.6293945 69.1679688,18.6293945 L81.0048828,18.6293945 L66.1679688,0.083984375 Z"/>
    <rect width="66" height="32" y="53" fill="#223E5F" rx="3"/>
    <path fill="#4B91E3" d="M9,61.396 L14.148,61.396 C15.3946729,61.396 16.5789944,61.5353319 17.701,61.814 C18.8230056,62.0926681 19.8019958,62.5436636 20.638,63.167 C21.4740042,63.7903365 22.1376642,64.6006617 22.629,65.598 C23.1203358,66.5953383 23.366,67.8053262 23.366,69.228 C23.366,70.4893396 23.127669,71.6003285 22.651,72.561 C22.1743309,73.5216715 21.5326707,74.3283301 20.726,74.981 C19.9193293,75.6336699 18.9880053,76.128665 17.932,76.466 C16.8759947,76.803335 15.7686725,76.972 14.61,76.972 L9,76.972 L9,61.396 Z M12.432,73.804 L14.214,73.804 C15.006004,73.804 15.7429966,73.7233341 16.425,73.562 C17.1070034,73.4006659 17.6973308,73.1330019 18.196,72.759 C18.6946692,72.3849981 19.0869986,71.8936697 19.373,71.285 C19.6590014,70.6763303 19.802,69.9320044 19.802,69.052 C19.802,68.2893295 19.6590014,67.6256695 19.373,67.061 C19.0869986,66.4963305 18.7020024,66.0306685 18.218,65.664 C17.7339976,65.2973315 17.1656699,65.0223343 16.513,64.839 C15.8603301,64.6556657 15.1746703,64.564 14.456,64.564 L12.432,64.564 L12.432,73.804 Z M24.862,69.184 C24.862,67.9373271 25.0709979,66.8080051 25.489,65.796 C25.9070021,64.7839949 26.4899963,63.9223369 27.238,63.211 C27.9860037,62.4996631 28.8733282,61.9533352 29.9,61.572 C30.9266718,61.1906648 32.0486606,61 33.266,61 C34.4833394,61 35.6053282,61.1906648 36.632,61.572 C37.6586718,61.9533352 38.5459963,62.4996631 39.294,63.211 C40.0420037,63.9223369 40.6249979,64.7839949 41.043,65.796 C41.4610021,66.8080051 41.67,67.9373271 41.67,69.184 C41.67,70.4306729 41.4610021,71.5599949 41.043,72.572 C40.6249979,73.5840051 40.0420037,74.4456631 39.294,75.157 C38.5459963,75.8683369 37.6586718,76.4146648 36.632,76.796 C35.6053282,77.1773352 34.4833394,77.368 33.266,77.368 C32.0486606,77.368 30.9266718,77.1773352 29.9,76.796 C28.8733282,76.4146648 27.9860037,75.8683369 27.238,75.157 C26.4899963,74.4456631 25.9070021,73.5840051 25.489,72.572 C25.0709979,71.5599949 24.862,70.4306729 24.862,69.184 Z M28.426,69.184 C28.426,69.917337 28.5396655,70.5883303 28.767,71.197 C28.9943345,71.8056697 29.3206645,72.3336644 29.746,72.781 C30.1713355,73.2283356 30.680997,73.5766654 31.275,73.826 C31.869003,74.0753346 32.532663,74.2 33.266,74.2 C33.999337,74.2 34.662997,74.0753346 35.257,73.826 C35.851003,73.5766654 36.3606645,73.2283356 36.786,72.781 C37.2113355,72.3336644 37.5376655,71.8056697 37.765,71.197 C37.9923345,70.5883303 38.106,69.917337 38.106,69.184 C38.106,68.4653297 37.9923345,67.7980031 37.765,67.182 C37.5376655,66.5659969 37.2113355,66.0343356 36.786,65.587 C36.3606645,65.1396644 35.851003,64.7913346 35.257,64.542 C34.662997,64.2926654 33.999337,64.168 33.266,64.168 C32.532663,64.168 31.869003,64.2926654 31.275,64.542 C30.680997,64.7913346 30.1713355,65.1396644 29.746,65.587 C29.3206645,66.0343356 28.9943345,66.5659969 28.767,67.182 C28.5396655,67.7980031 28.426,68.4653297 28.426,69.184 Z M54.188,65.444 C53.850665,65.0333313 53.4363358,64.7180011 52.945,64.498 C52.4536642,64.2779989 51.8853366,64.168 51.24,64.168 C50.5946634,64.168 49.9970027,64.2926654 49.447,64.542 C48.8969972,64.7913346 48.4203353,65.1396644 48.017,65.587 C47.6136646,66.0343356 47.2983345,66.5659969 47.071,67.182 C46.8436655,67.7980031 46.73,68.4653297 46.73,69.184 C46.73,69.917337 46.8436655,70.5883303 47.071,71.197 C47.2983345,71.8056697 47.609998,72.3336644 48.006,72.781 C48.402002,73.2283356 48.867664,73.5766654 49.403,73.826 C49.938336,74.0753346 50.5139969,74.2 51.13,74.2 C51.8340035,74.2 52.4573306,74.0533348 53,73.76 C53.5426694,73.4666652 53.9899982,73.0560026 54.342,72.528 L57.202,74.662 C56.5419967,75.5860046 55.7060051,76.2679978 54.694,76.708 C53.6819949,77.1480022 52.640672,77.368 51.57,77.368 C50.3526606,77.368 49.2306718,77.1773352 48.204,76.796 C47.1773282,76.4146648 46.2900037,75.8683369 45.542,75.157 C44.7939963,74.4456631 44.2110021,73.5840051 43.793,72.572 C43.3749979,71.5599949 43.166,70.4306729 43.166,69.184 C43.166,67.9373271 43.3749979,66.8080051 43.793,65.796 C44.2110021,64.7839949 44.7939963,63.9223369 45.542,63.211 C46.2900037,62.4996631 47.1773282,61.9533352 48.204,61.572 C49.2306718,61.1906648 50.3526606,61 51.57,61 C52.0100022,61 52.4683309,61.0403329 52.945,61.121 C53.421669,61.2016671 53.8909977,61.3299991 54.353,61.506 C54.8150023,61.6820009 55.2586645,61.9166652 55.684,62.21 C56.1093355,62.5033348 56.490665,62.8626645 56.828,63.288 L54.188,65.444 Z"/>
  </g>
</svg>
