<svg xmlns="http://www.w3.org/2000/svg" width="641" height="449" viewBox="0 0 641 449">
  <path fill="#FFF" d="M350.9,204.3 L284.8,204.3 L284.8,144.9 L350.9,144.9 L350.9,204.3 Z M350.9,0 L284.8,0 L284.8,60.7 L350.9,60.7 L350.9,0 Z M429.1,144.8 L363,144.8 L363,204.2 L429.1,204.2 L429.1,144.8 Z M272.8,72.7 L206.7,72.7 L206.7,132.8 L272.8,132.8 L272.8,72.7 Z M350.9,72.7 L284.8,72.7 L284.8,132.8 L350.9,132.8 L350.9,72.7 Z M627.7,172.7 C613.3,163 580.1,159.5 554.6,164.3 C551.3,140.3 537.9,119.4 513.5,100.6 L499.5,91.3 L490.2,105.3 C471.8,133.1 466.8,178.9 486.5,209.1 C477.8,213.8 460.7,220.2 438.1,219.8 L3.4,219.8 C-5.3,270.6 9.2,336.6 47.4,381.9 C84.5,425.8 140.1,448.1 212.8,448.1 C370.2,448.1 486.7,375.6 541.2,243.9 C562.6,244.3 608.8,244 632.5,198.7 C634,196.2 639.1,185.5 641,181.6 L627.7,172.7 Z M116.6,144.8 L50.6,144.8 L50.6,204.2 L116.7,204.2 L116.7,144.8 L116.6,144.8 Z M194.7,144.8 L128.6,144.8 L128.6,204.2 L194.7,204.2 L194.7,144.8 Z M272.8,144.8 L206.7,144.8 L206.7,204.2 L272.8,204.2 L272.8,144.8 Z M194.7,72.7 L128.6,72.7 L128.6,132.8 L194.7,132.8 L194.7,72.7 Z"/>
</svg>
