<svg xmlns="http://www.w3.org/2000/svg" width="71" height="93" viewBox="0 0 71 93">
  <g fill="none" fill-rule="evenodd">
    <path fill="#1D2F44" d="M3,0 L55.7339131,0 L71,18.640625 L71,90 C71,91.6568542 69.6568542,93 68,93 L3,93 C1.34314575,93 2.02906125e-16,91.6568542 0,90 L0,3 C-2.02906125e-16,1.34314575 1.34314575,3.04359188e-16 3,0 Z"/>
    <path fill="#3A6291" d="M56.1679688,0.083984375 L56.1679688,15.6293945 C56.1679688,17.2862488 57.5111145,18.6293945 59.1679688,18.6293945 L71.0048828,18.6293945 L56.1679688,0.083984375 Z"/>
    <path fill="#F5A623" d="M31.4131898,37 L34.538358,37 L42,56 L37.7362046,56 L36.2584118,51.9745763 L29.5962315,51.9745763 L28.166891,56 L24,56 L31.4131898,37 Z M32.4855491,43 L30,49 L35,49 L32.4855491,43 Z M44,37 L48,37 L48,56 L44,56 L44,37 Z"/>
  </g>
</svg>
