<svg xmlns="http://www.w3.org/2000/svg" width="81" height="93" viewBox="0 0 81 93">
  <g fill="none" fill-rule="evenodd">
    <path fill="#E6F2FF" d="M13,0 L65.7339131,0 L81,18.640625 L81,90 C81,91.6568542 79.6568542,93 78,93 L13,93 C11.3431458,93 10,91.6568542 10,90 L10,3 C10,1.34314575 11.3431458,3.04359188e-16 13,0 Z"/>
    <path fill="#AEC3DA" d="M66.1679688,0.083984375 L66.1679688,15.6293945 C66.1679688,17.2862488 67.5111145,18.6293945 69.1679688,18.6293945 L81.0048828,18.6293945 L66.1679688,0.083984375 Z"/>
    <rect width="66" height="32" y="53" fill="#210F33" rx="3"/>
    <path fill="#FFF" d="M13,61 L23.582,61 L23.582,64.168 L16.432,64.168 L16.432,67.072 L23.186,67.072 L23.186,70.24 L16.432,70.24 L16.432,73.408 L23.978,73.408 L23.978,76.576 L13,76.576 L13,61 Z M30.6,68.436 L25.452,61 L29.764,61 L33.086,66.456 L36.276,61 L40.434,61 L35.396,68.37 L41.028,76.576 L36.716,76.576 L32.91,70.306 L29.214,76.576 L25.144,76.576 L30.6,68.436 Z M42.744,61 L53.326,61 L53.326,64.168 L46.176,64.168 L46.176,67.072 L52.93,67.072 L52.93,70.24 L46.176,70.24 L46.176,73.408 L53.722,73.408 L53.722,76.576 L42.744,76.576 L42.744,61 Z"/>
  </g>
</svg>
