<svg xmlns="http://www.w3.org/2000/svg" width="81" height="93" viewBox="0 0 81 93">
  <g fill="none" fill-rule="evenodd">
    <path fill="#E6F2FF" d="M13,0 L65.7339131,0 L81,18.640625 L81,90 C81,91.6568542 79.6568542,93 78,93 L13,93 C11.3431458,93 10,91.6568542 10,90 L10,3 C10,1.34314575 11.3431458,3.04359188e-16 13,0 Z"/>
    <path fill="#AEC3DA" d="M66.1679688,0.083984375 L66.1679688,15.6293945 C66.1679688,17.2862488 67.5111145,18.6293945 69.1679688,18.6293945 L81.0048828,18.6293945 L66.1679688,0.083984375 Z"/>
    <rect width="66" height="32" y="53" fill="#F16529" rx="3"/>
    <path fill="#FFF" d="M6,62 L9.12,62 L9.12,67.28 L15.18,67.28 L15.18,62 L18.3,62 L18.3,76.16 L15.18,76.16 L15.18,70.04 L9.12,70.04 L9.12,76.16 L6,76.16 L6,62 Z M23.92,64.76 L19.88,64.76 L19.88,62 L31.08,62 L31.08,64.76 L27.04,64.76 L27.04,76.16 L23.92,76.16 L23.92,64.76 Z M32.66,62 L37.38,62 L40.64,71.24 L40.68,71.24 L43.96,62 L48.66,62 L48.66,76.16 L45.54,76.16 L45.54,65.3 L45.5,65.3 L41.78,76.16 L39.4,76.16 L35.82,65.3 L35.78,65.3 L35.78,76.16 L32.66,76.16 L32.66,62 Z M51.66,62 L54.78,62 L54.78,73.28 L60.56,73.28 L60.56,76.16 L51.66,76.16 L51.66,62 Z"/>
  </g>
</svg>
