<svg xmlns="http://www.w3.org/2000/svg" width="71" height="93" viewBox="0 0 71 93">
  <g fill="none" fill-rule="evenodd">
    <path fill="#1D2F44" d="M3,0 L55.7339131,0 L71,18.640625 L71,90 C71,91.6568542 69.6568542,93 68,93 L3,93 C1.34314575,93 2.02906125e-16,91.6568542 0,90 L0,3 C-2.02906125e-16,1.34314575 1.34314575,3.04359188e-16 3,0 Z"/>
    <path fill="#3A6291" d="M56.1679688,0.083984375 L56.1679688,15.6293945 C56.1679688,17.2862488 57.5111145,18.6293945 59.1679688,18.6293945 L71.0048828,18.6293945 L56.1679688,0.083984375 Z"/>
    <path fill="#FD63A5" d="M24,37 L28,37 L28,56 L24,56 L24,37 Z M31,37 L37.0918836,37 C38.5671335,37 39.9685998,37.1699606 41.2963247,37.509887 C42.6240495,37.8498134 43.7825372,38.3999491 44.7718224,39.1603107 C45.7611075,39.9206724 46.5464494,40.9091276 47.1278714,42.1257062 C47.7092934,43.3422848 48,44.8182587 48,46.5536723 C48,48.0922864 47.7179712,49.4474988 47.1539051,50.6193503 C46.5898389,51.7912017 45.8305306,52.7751843 44.8759571,53.5713277 C43.9213837,54.367471 42.8193018,54.9712785 41.5696784,55.3827684 C40.320055,55.7942582 39.0097057,56 37.6385911,56 L31,56 L31,37 Z M35,52 L37.1761194,52 C38.1432884,52 39.0432794,51.9039692 39.8761194,51.7119048 C40.7089594,51.5198403 41.4298477,51.2011927 42.038806,50.7559524 C42.6477642,50.3107121 43.1268639,49.7257973 43.4761194,49.0011905 C43.8253749,48.2765837 44,47.3904814 44,46.3428571 C44,45.4349161 43.8253749,44.6448446 43.4761194,43.972619 C43.1268639,43.3003935 42.6567194,42.7460339 42.0656716,42.3095238 C41.4746239,41.8730137 40.780601,41.545636 39.9835821,41.327381 C39.1865632,41.1091259 38.3492581,41 37.4716418,41 L35,41 L35,52 Z"/>
  </g>
</svg>
