<svg xmlns="http://www.w3.org/2000/svg" width="81" height="93" viewBox="0 0 81 93">
  <g fill="none" fill-rule="evenodd">
    <path fill="#E6F2FF" d="M13,0 L65.7339131,0 L81,18.640625 L81,90 C81,91.6568542 79.6568542,93 78,93 L13,93 C11.3431458,93 10,91.6568542 10,90 L10,3 C10,1.34314575 11.3431458,3.04359188e-16 13,0 Z"/>
    <path fill="#AEC3DA" d="M66.1679688,0.083984375 L66.1679688,15.6293945 C66.1679688,17.2862488 67.5111145,18.6293945 69.1679688,18.6293945 L81.0048828,18.6293945 L66.1679688,0.083984375 Z"/>
    <rect width="66" height="32" y="53" fill="#E60000" rx="3"/>
    <path fill="#FFF" d="M15.86,71.42 C15.86,72.0733366 15.8033339,72.7066636 15.69,73.32 C15.5766661,73.9333364 15.3600016,74.4766643 15.04,74.95 C14.7199984,75.4233357 14.2633363,75.8033319 13.67,76.09 C13.0766637,76.3766681 12.3000048,76.52 11.34,76.52 C10.2199944,76.52 9.2733372,76.253336 8.5,75.72 C7.7266628,75.186664 7.2266678,74.353339 7,73.22 L9.86,72.52 C9.9000002,72.8666684 10.0566653,73.1599988 10.33,73.4 C10.6033347,73.6400012 10.9133316,73.76 11.26,73.76 C11.6200018,73.76 11.899999,73.6700009 12.1,73.49 C12.300001,73.3099991 12.4466662,73.086668 12.54,72.82 C12.6333338,72.553332 12.6899999,72.2633349 12.71,71.95 C12.7300001,71.6366651 12.74,71.346668 12.74,71.08 L12.74,62 L15.86,62 L15.86,71.42 Z M23.2,62 L25.78,62 L31.94,76.16 L28.42,76.16 L27.2,73.16 L21.7,73.16 L20.52,76.16 L17.08,76.16 L23.2,62 Z M24.4,66.12 L22.68,70.52 L26.14,70.52 L24.4,66.12 Z M30.72,62 L34.28,62 L37.78,71.28 L37.82,71.28 L41.38,62 L44.72,62 L38.88,76.16 L36.38,76.16 L30.72,62 Z M49.76,62 L52.34,62 L58.5,76.16 L54.98,76.16 L53.76,73.16 L48.26,73.16 L47.08,76.16 L43.64,76.16 L49.76,62 Z M50.96,66.12 L49.24,70.52 L52.7,70.52 L50.96,66.12 Z"/>
  </g>
</svg>
