<svg xmlns="http://www.w3.org/2000/svg" width="71" height="93" viewBox="0 0 71 93">
  <g fill="none" fill-rule="evenodd">
    <path fill="#1D2F44" d="M3,0 L55.7339131,0 L71,18.640625 L71,90 C71,91.6568542 69.6568542,93 68,93 L3,93 C1.34314575,93 2.02906125e-16,91.6568542 0,90 L0,3 C-2.02906125e-16,1.34314575 1.34314575,3.04359188e-16 3,0 Z"/>
    <path fill="#3A6291" d="M56.1679688,0.083984375 L56.1679688,15.6293945 C56.1679688,17.2862488 57.5111145,18.6293945 59.1679688,18.6293945 L71.0048828,18.6293945 L56.1679688,0.083984375 Z"/>
    <g transform="translate(4 26)">
      <rect width="63" height="59" fill="#A5C5E9" rx="4.5"/>
      <g transform="translate(9 13.615)">
        <polygon fill="#BB7334" points="11.25 0 22.5 36.308 0 36.308"/>
        <path fill="#FFF" d="M11.25,0 L15.5629578,13.6153846 C15.5629578,13.6153846 15.1130078,15.3494982 13.782074,15.3347591 C13.076436,15.3269446 11.6660558,13.3122772 10.947876,13.6153846 C10.2440359,13.91244 9.76023254,16.7117544 9.22467041,16.7117544 C8.48959351,16.7117544 7.0194397,13.6153846 7.0194397,13.6153846 L11.25,0 Z"/>
      </g>
      <path fill="#70CF47" d="M0,40.8461538 C0,40.8461538 14.0462624,46.1461545 28.930794,45.7327507 C35.716949,45.5442716 43.9904975,38.8030037 48.8700727,39.2950675 C54.2877961,39.8413989 63,47.1991696 63,47.1991696 L63,54.5049479 C63,56.9874966 60.9928922,59 58.4944782,59 L4.50552184,59 C2.01719084,59 0,56.9878587 0,54.5008739 L0,40.8461538 Z"/>
      <ellipse cx="49.5" cy="13.615" fill="#F8E71C" rx="9" ry="9.077"/>
    </g>
    <path fill="#FFF" d="M12.884,14.734 C12.884,15.3220029 12.8330005,15.8919972 12.731,16.444 C12.6289995,16.9960028 12.4340014,17.4849979 12.146,17.911 C11.8579986,18.3370021 11.4470027,18.6789987 10.913,18.937 C10.3789973,19.1950013 9.68000432,19.324 8.816,19.324 C7.80799496,19.324 6.95600348,19.0840024 6.26,18.604 C5.56399652,18.1239976 5.11400102,17.3740051 4.91,16.354 L7.484,15.724 C7.52000018,16.0360016 7.66099877,16.2999989 7.907,16.516 C8.15300123,16.7320011 8.43199844,16.84 8.744,16.84 C9.06800162,16.84 9.3199991,16.7590008 9.5,16.597 C9.6800009,16.4349992 9.81199958,16.2340012 9.896,15.994 C9.98000042,15.7539988 10.0309999,15.4930014 10.049,15.211 C10.0670001,14.9289986 10.076,14.6680012 10.076,14.428 L10.076,6.256 L12.884,6.256 L12.884,14.734 Z M15.296,6.256 L20.03,6.256 C20.6900033,6.256 21.3139971,6.3159994 21.902,6.436 C22.4900029,6.5560006 23.0029978,6.76299853 23.441,7.057 C23.8790022,7.35100147 24.2269987,7.74699751 24.485,8.245 C24.7430013,8.74300249 24.872,9.36999622 24.872,10.126 C24.872,10.8700037 24.7520012,11.4939975 24.512,11.998 C24.2719988,12.5020025 23.9420021,12.9039985 23.522,13.204 C23.1019979,13.5040015 22.6040029,13.7169994 22.028,13.843 C21.4519971,13.9690006 20.8280034,14.032 20.156,14.032 L18.104,14.032 L18.104,19 L15.296,19 L15.296,6.256 Z M18.104,11.656 L19.976,11.656 C20.2280013,11.656 20.4709988,11.6320002 20.705,11.584 C20.9390012,11.5359998 21.1489991,11.4550006 21.335,11.341 C21.5210009,11.2269994 21.6709994,11.071001 21.785,10.873 C21.8990006,10.674999 21.956,10.4260015 21.956,10.126 C21.956,9.80199838 21.8810007,9.54100099 21.731,9.343 C21.5809993,9.14499901 21.3890012,8.99200054 21.155,8.884 C20.9209988,8.77599946 20.6600014,8.70700015 20.372,8.677 C20.0839986,8.64699985 19.8080013,8.632 19.544,8.632 L18.104,8.632 L18.104,11.656 Z M38.174,18.1 C37.3459959,18.5320022 36.4820045,18.843999 35.582,19.036 C34.6819955,19.228001 33.7640047,19.324 32.828,19.324 C31.831995,19.324 30.9140042,19.1680016 30.074,18.856 C29.2339958,18.5439984 28.5080031,18.0970029 27.896,17.515 C27.2839969,16.9329971 26.8070017,16.2280041 26.465,15.4 C26.1229983,14.5719959 25.952,13.6480051 25.952,12.628 C25.952,11.6079949 26.1229983,10.6840041 26.465,9.856 C26.8070017,9.02799586 27.2839969,8.32300291 27.896,7.741 C28.5080031,7.15899709 29.2339958,6.71200156 30.074,6.4 C30.9140042,6.08799844 31.831995,5.932 32.828,5.932 C33.8480051,5.932 34.7869957,6.05499877 35.645,6.301 C36.5030043,6.54700123 37.2559968,6.969997 37.904,7.57 L35.924,9.73 C35.5399981,9.33399802 35.1080024,9.03400102 34.628,8.83 C34.1479976,8.62599898 33.5480036,8.524 32.828,8.524 C32.227997,8.524 31.6850024,8.62599898 31.199,8.83 C30.7129976,9.03400102 30.2960017,9.31899817 29.948,9.685 C29.5999983,10.0510018 29.3330009,10.4859975 29.147,10.99 C28.9609991,11.4940025 28.868,12.0399971 28.868,12.628 C28.868,13.228003 28.9609991,13.7769975 29.147,14.275 C29.3330009,14.7730025 29.5999983,15.2049982 29.948,15.571 C30.2960017,15.9370018 30.7129976,16.221999 31.199,16.426 C31.6850024,16.630001 32.227997,16.732 32.828,16.732 C33.4400031,16.732 33.9679978,16.6630007 34.412,16.525 C34.8560022,16.3869993 35.2099987,16.2460007 35.474,16.102 L35.474,14.032 L33.188,14.032 L33.188,11.44 L38.174,11.44 L38.174,18.1 Z"/>
  </g>
</svg>
