<svg xmlns="http://www.w3.org/2000/svg" width="81" height="93" viewBox="0 0 81 93">
  <g fill="none" fill-rule="evenodd">
    <path fill="#E6F2FF" d="M13,0 L65.7339131,0 L81,18.640625 L81,90 C81,91.6568542 79.6568542,93 78,93 L13,93 C11.3431458,93 10,91.6568542 10,90 L10,3 C10,1.34314575 11.3431458,3.04359188e-16 13,0 Z"/>
    <path fill="#AEC3DA" d="M66.1679688,0.083984375 L66.1679688,15.6293945 C66.1679688,17.2862488 67.5111145,18.6293945 69.1679688,18.6293945 L81.0048828,18.6293945 L66.1679688,0.083984375 Z"/>
    <rect width="66" height="32" y="53" fill="#F7DF1E" rx="3"/>
    <path fill="#1F1F1F" d="M31.86,71.78 C31.86,72.4333366 31.8033339,73.0666636 31.69,73.68 C31.5766661,74.2933364 31.3600016,74.8366643 31.04,75.31 C30.7199984,75.7833357 30.2633363,76.1633319 29.67,76.45 C29.0766637,76.7366681 28.3000048,76.88 27.34,76.88 C26.2199944,76.88 25.2733372,76.613336 24.5,76.08 C23.7266628,75.546664 23.2266678,74.713339 23,73.58 L25.86,72.88 C25.9000002,73.2266684 26.0566653,73.5199988 26.33,73.76 C26.6033347,74.0000012 26.9133316,74.12 27.26,74.12 C27.6200018,74.12 27.899999,74.0300009 28.1,73.85 C28.300001,73.6699991 28.4466662,73.446668 28.54,73.18 C28.6333338,72.913332 28.6899999,72.6233349 28.71,72.31 C28.7300001,71.9966651 28.74,71.706668 28.74,71.44 L28.74,62.36 L31.86,62.36 L31.86,71.78 Z M41.54,65.82 C41.2866654,65.4999984 40.9433355,65.2633341 40.51,65.11 C40.0766645,64.9566659 39.6666686,64.88 39.28,64.88 C39.0533322,64.88 38.8200012,64.9066664 38.58,64.96 C38.3399988,65.0133336 38.1133344,65.0966661 37.9,65.21 C37.6866656,65.3233339 37.513334,65.4733324 37.38,65.66 C37.246666,65.8466676 37.18,66.073332 37.18,66.34 C37.18,66.7666688 37.3399984,67.0933322 37.66,67.32 C37.9800016,67.5466678 38.3833309,67.7399992 38.87,67.9 C39.3566691,68.0600008 39.8799972,68.2199992 40.44,68.38 C41.0000028,68.5400008 41.5233309,68.7666652 42.01,69.06 C42.4966691,69.3533348 42.8999984,69.7466642 43.22,70.24 C43.5400016,70.7333358 43.7,71.3933292 43.7,72.22 C43.7,73.0066706 43.5533348,73.6933304 43.26,74.28 C42.9666652,74.8666696 42.5700025,75.3533314 42.07,75.74 C41.5699975,76.1266686 40.9900033,76.4133324 40.33,76.6 C39.6699967,76.7866676 38.973337,76.88 38.24,76.88 C37.3199954,76.88 36.4666706,76.7400014 35.68,76.46 C34.8933294,76.1799986 34.1600034,75.7266698 33.48,75.1 L35.7,72.66 C36.0200016,73.0866688 36.4233309,73.4166655 36.91,73.65 C37.3966691,73.8833345 37.8999974,74 38.42,74 C38.6733346,74 38.9299987,73.9700003 39.19,73.91 C39.4500013,73.8499997 39.6833323,73.7600006 39.89,73.64 C40.0966677,73.5199994 40.2633327,73.3666676 40.39,73.18 C40.5166673,72.9933324 40.58,72.7733346 40.58,72.52 C40.58,72.0933312 40.4166683,71.7566679 40.09,71.51 C39.7633317,71.2633321 39.3533358,71.0533342 38.86,70.88 C38.3666642,70.7066658 37.8333362,70.5333342 37.26,70.36 C36.6866638,70.1866658 36.1533358,69.9533348 35.66,69.66 C35.1666642,69.3666652 34.7566683,68.9800024 34.43,68.5 C34.1033317,68.0199976 33.94,67.3866706 33.94,66.6 C33.94,65.8399962 34.0899985,65.1733362 34.39,64.6 C34.6900015,64.0266638 35.0899975,63.5466686 35.59,63.16 C36.0900025,62.7733314 36.6666634,62.4833343 37.32,62.29 C37.9733366,62.0966657 38.6466632,62 39.34,62 C40.140004,62 40.9133296,62.1133322 41.66,62.34 C42.4066704,62.5666678 43.079997,62.946664 43.68,63.48 L41.54,65.82 Z"/>
  </g>
</svg>
