<svg xmlns="http://www.w3.org/2000/svg" width="81" height="93" viewBox="0 0 81 93">
  <g fill="none" fill-rule="evenodd">
    <path fill="#E6F2FF" d="M13,0 L65.7339131,0 L81,18.640625 L81,90 C81,91.6568542 79.6568542,93 78,93 L13,93 C11.3431458,93 10,91.6568542 10,90 L10,3 C10,1.34314575 11.3431458,3.04359188e-16 13,0 Z"/>
    <path fill="#AEC3DA" d="M66.1679688,0.083984375 L66.1679688,15.6293945 C66.1679688,17.2862488 67.5111145,18.6293945 69.1679688,18.6293945 L81.0048828,18.6293945 L66.1679688,0.083984375 Z"/>
    <rect width="66" height="32" y="53" fill="#8A8A8A" rx="3"/>
    <path fill="#FFF" d="M4,67.78 L6.016,67.78 L6.016,68.704 L6.044,68.704 C6.10933366,68.5733327 6.20266606,68.4426673 6.324,68.312 C6.44533394,68.1813327 6.58999916,68.0646672 6.758,67.962 C6.92600084,67.8593328 7.11733226,67.7753337 7.332,67.71 C7.54666774,67.6446663 7.77999874,67.612 8.032,67.612 C8.50800238,67.612 8.93033149,67.709999 9.299,67.906 C9.66766851,68.102001 9.9453324,68.4099979 10.132,68.83 C10.3746679,68.3913311 10.6686649,68.0786676 11.014,67.892 C11.3593351,67.7053324 11.7839975,67.612 12.288,67.612 C12.7453356,67.612 13.1303318,67.6889992 13.443,67.843 C13.7556682,67.9970008 14.0029991,68.2069987 14.185,68.473 C14.3670009,68.7390013 14.4976663,69.0516649 14.577,69.411 C14.6563337,69.7703351 14.696,70.1553313 14.696,70.566 L14.696,74.584 L12.596,74.584 L12.596,70.622 C12.596,70.3046651 12.528334,70.0316678 12.393,69.803 C12.257666,69.5743322 12.0173351,69.46 11.672,69.46 C11.4293321,69.46 11.2263341,69.4996663 11.063,69.579 C10.8996658,69.6583337 10.7690005,69.7679993 10.671,69.908 C10.5729995,70.0480007 10.5030002,70.2113324 10.461,70.398 C10.4189998,70.5846676 10.398,70.7806656 10.398,70.986 L10.398,74.584 L8.298,74.584 L8.298,70.986 C8.298,70.8646661 8.29333338,70.7153342 8.284,70.538 C8.27466662,70.3606658 8.24200028,70.1926675 8.186,70.034 C8.12999972,69.8753325 8.03900063,69.7400006 7.913,69.628 C7.78699937,69.5159994 7.60266788,69.46 7.36,69.46 C7.08933198,69.46 6.87000084,69.5089995 6.702,69.607 C6.53399916,69.7050005 6.40566711,69.8356658 6.317,69.999 C6.22833289,70.1623342 6.17000014,70.3466656 6.142,70.552 C6.11399986,70.7573344 6.1,70.9719989 6.1,71.196 L6.1,74.584 L4,74.584 L4,67.78 Z M20.45,73.73 L20.422,73.73 C20.1886655,74.0940018 19.8783353,74.3553325 19.491,74.514 C19.1036647,74.6726675 18.6953355,74.752 18.266,74.752 C17.9486651,74.752 17.6430015,74.7076671 17.349,74.619 C17.0549985,74.5303329 16.7960011,74.3973342 16.572,74.22 C16.3479989,74.0426658 16.1706673,73.8233346 16.04,73.562 C15.9093327,73.3006654 15.844,72.9973351 15.844,72.652 C15.844,72.259998 15.9163326,71.928668 16.061,71.658 C16.2056674,71.387332 16.4016654,71.1633342 16.649,70.986 C16.8963346,70.8086658 17.1786651,70.6710005 17.496,70.573 C17.8133349,70.4749995 18.1423316,70.4026669 18.483,70.356 C18.8236684,70.3093331 19.1643316,70.2813334 19.505,70.272 C19.8456684,70.2626666 20.1606652,70.258 20.45,70.258 C20.45,69.8846648 20.3170013,69.5883344 20.051,69.369 C19.7849987,69.1496656 19.4700018,69.04 19.106,69.04 C18.7606649,69.04 18.4456681,69.1123326 18.161,69.257 C17.8763319,69.4016674 17.6220011,69.5999987 17.398,69.852 L16.278,68.704 C16.670002,68.3399982 17.1273307,68.0670009 17.65,67.885 C18.1726693,67.7029991 18.7139972,67.612 19.274,67.612 C19.8900031,67.612 20.3963313,67.6889992 20.793,67.843 C21.1896687,67.9970008 21.5069988,68.2233318 21.745,68.522 C21.9830012,68.8206682 22.1486662,69.1869978 22.242,69.621 C22.3353338,70.0550022 22.382,70.5566638 22.382,71.126 L22.382,74.584 L20.45,74.584 L20.45,73.73 Z M19.932,71.602 C19.7733325,71.602 19.5750012,71.6089999 19.337,71.623 C19.0989988,71.6370001 18.8703344,71.6766663 18.651,71.742 C18.4316656,71.8073337 18.2450008,71.9053327 18.091,72.036 C17.9369992,72.1666673 17.86,72.3486655 17.86,72.582 C17.86,72.8340013 17.9673323,73.0206661 18.182,73.142 C18.3966677,73.2633339 18.6206655,73.324 18.854,73.324 C19.0593344,73.324 19.2576657,73.2960003 19.449,73.24 C19.6403343,73.1839997 19.8106659,73.1046672 19.96,73.002 C20.1093341,72.8993328 20.2283329,72.7686675 20.317,72.61 C20.4056671,72.4513325 20.45,72.2646677 20.45,72.05 L20.45,71.602 L19.932,71.602 Z M23.698,64 L25.798,64 L25.798,70.468 L28.122,67.78 L30.698,67.78 L27.996,70.846 L30.768,74.584 L28.122,74.584 L25.826,71.14 L25.798,71.14 L25.798,74.584 L23.698,74.584 L23.698,64 Z M37.922,73.408 C37.5859983,73.8373355 37.1613359,74.1686655 36.648,74.402 C36.1346641,74.6353345 35.6026694,74.752 35.052,74.752 C34.5293307,74.752 34.0370023,74.6680008 33.575,74.5 C33.1129977,74.3319992 32.7116684,74.0916682 32.371,73.779 C32.0303316,73.4663318 31.762001,73.0906689 31.566,72.652 C31.369999,72.2133311 31.272,71.723336 31.272,71.182 C31.272,70.640664 31.369999,70.1506689 31.566,69.712 C31.762001,69.2733311 32.0303316,68.8976682 32.371,68.585 C32.7116684,68.2723318 33.1129977,68.0320008 33.575,67.864 C34.0370023,67.6959992 34.5293307,67.612 35.052,67.612 C35.5373358,67.612 35.9783313,67.6959992 36.375,67.864 C36.7716686,68.0320008 37.1076653,68.2723318 37.383,68.585 C37.6583347,68.8976682 37.8706659,69.2733311 38.02,69.712 C38.1693341,70.1506689 38.244,70.640664 38.244,71.182 L38.244,71.84 L33.372,71.84 C33.4560004,72.2413353 33.6379986,72.5609988 33.918,72.799 C34.1980014,73.0370012 34.5433313,73.156 34.954,73.156 C35.2993351,73.156 35.5909988,73.0790008 35.829,72.925 C36.0670012,72.7709992 36.2746658,72.5726679 36.452,72.33 L37.922,73.408 Z M36.144,70.412 C36.1533334,70.0573316 36.0366679,69.7540013 35.794,69.502 C35.5513321,69.2499987 35.2386686,69.124 34.856,69.124 C34.6226655,69.124 34.4173342,69.161333 34.24,69.236 C34.0626658,69.310667 33.9110006,69.4063328 33.785,69.523 C33.6589994,69.6396673 33.5610003,69.7749992 33.491,69.929 C33.4209996,70.0830008 33.3813334,70.2439992 33.372,70.412 L36.144,70.412 Z M39.868,64.672 L46.518,64.672 L46.518,66.688 L42.052,66.688 L42.052,68.704 L46.182,68.704 L46.182,70.72 L42.052,70.72 L42.052,74.584 L39.868,74.584 L39.868,64.672 Z M47.848,67.78 L49.948,67.78 L49.948,74.584 L47.848,74.584 L47.848,67.78 Z M47.68,65.638 C47.68,65.3019983 47.7989988,65.0150012 48.037,64.777 C48.2750012,64.5389988 48.5619983,64.42 48.898,64.42 C49.2340017,64.42 49.5209988,64.5389988 49.759,64.777 C49.9970012,65.0150012 50.116,65.3019983 50.116,65.638 C50.116,65.9740017 49.9970012,66.2609988 49.759,66.499 C49.5209988,66.7370012 49.2340017,66.856 48.898,66.856 C48.5619983,66.856 48.2750012,66.7370012 48.037,66.499 C47.7989988,66.2609988 47.68,65.9740017 47.68,65.638 Z M51.488,64 L53.588,64 L53.588,74.584 L51.488,74.584 L51.488,64 Z M61.54,73.408 C61.2039983,73.8373355 60.7793359,74.1686655 60.266,74.402 C59.7526641,74.6353345 59.2206694,74.752 58.67,74.752 C58.1473307,74.752 57.6550023,74.6680008 57.193,74.5 C56.7309977,74.3319992 56.3296684,74.0916682 55.989,73.779 C55.6483316,73.4663318 55.380001,73.0906689 55.184,72.652 C54.987999,72.2133311 54.89,71.723336 54.89,71.182 C54.89,70.640664 54.987999,70.1506689 55.184,69.712 C55.380001,69.2733311 55.6483316,68.8976682 55.989,68.585 C56.3296684,68.2723318 56.7309977,68.0320008 57.193,67.864 C57.6550023,67.6959992 58.1473307,67.612 58.67,67.612 C59.1553358,67.612 59.5963313,67.6959992 59.993,67.864 C60.3896687,68.0320008 60.7256653,68.2723318 61.001,68.585 C61.2763347,68.8976682 61.4886659,69.2733311 61.638,69.712 C61.7873341,70.1506689 61.862,70.640664 61.862,71.182 L61.862,71.84 L56.99,71.84 C57.0740004,72.2413353 57.2559986,72.5609988 57.536,72.799 C57.8160014,73.0370012 58.1613313,73.156 58.572,73.156 C58.9173351,73.156 59.2089988,73.0790008 59.447,72.925 C59.6850012,72.7709992 59.8926658,72.5726679 60.07,72.33 L61.54,73.408 Z M59.762,70.412 C59.7713334,70.0573316 59.6546679,69.7540013 59.412,69.502 C59.1693321,69.2499987 58.8566686,69.124 58.474,69.124 C58.2406655,69.124 58.0353342,69.161333 57.858,69.236 C57.6806658,69.310667 57.5290006,69.4063328 57.403,69.523 C57.2769994,69.6396673 57.1790004,69.7749992 57.109,69.929 C57.0389997,70.0830008 56.9993334,70.2439992 56.99,70.412 L59.762,70.412 Z"/>
  </g>
</svg>
