<svg xmlns="http://www.w3.org/2000/svg" width="81" height="93" viewBox="0 0 81 93">
  <g fill="none" fill-rule="evenodd">
    <path fill="#E6F2FF" d="M13,0 L65.7339131,0 L81,18.640625 L81,90 C81,91.6568542 79.6568542,93 78,93 L13,93 C11.3431458,93 10,91.6568542 10,90 L10,3 C10,1.34314575 11.3431458,3.04359188e-16 13,0 Z"/>
    <path fill="#AEC3DA" d="M66.1679688,0.083984375 L66.1679688,15.6293945 C66.1679688,17.2862488 67.5111145,18.6293945 69.1679688,18.6293945 L81.0048828,18.6293945 L66.1679688,0.083984375 Z"/>
    <rect width="66" height="32" y="53" fill="#F36321" rx="3"/>
    <path fill="#606060" d="M5,62.324 L9.734,62.324 C10.3940033,62.324 11.0179971,62.3839994 11.606,62.504 C12.1940029,62.6240006 12.7069978,62.8309985 13.145,63.125 C13.5830022,63.4190015 13.9309987,63.8149975 14.189,64.313 C14.4470013,64.8110025 14.576,65.4379962 14.576,66.194 C14.576,66.9380037 14.4560012,67.5619975 14.216,68.066 C13.9759988,68.5700025 13.6460021,68.9719985 13.226,69.272 C12.8059979,69.5720015 12.3080029,69.7849994 11.732,69.911 C11.1559971,70.0370006 10.5320034,70.1 9.86,70.1 L7.808,70.1 L7.808,75.068 L5,75.068 L5,62.324 Z M7.808,67.724 L9.68,67.724 C9.93200126,67.724 10.1749988,67.7000002 10.409,67.652 C10.6430012,67.6039998 10.8529991,67.5230006 11.039,67.409 C11.2250009,67.2949994 11.3749994,67.139001 11.489,66.941 C11.6030006,66.742999 11.66,66.4940015 11.66,66.194 C11.66,65.8699984 11.5850008,65.609001 11.435,65.411 C11.2849993,65.212999 11.0930012,65.0600005 10.859,64.952 C10.6249988,64.8439995 10.3640014,64.7750001 10.076,64.745 C9.78799856,64.7149998 9.51200132,64.7 9.248,64.7 L7.808,64.7 L7.808,67.724 Z M19.202,62.324 L21.524,62.324 L27.068,75.068 L23.9,75.068 L22.802,72.368 L17.852,72.368 L16.79,75.068 L13.694,75.068 L19.202,62.324 Z M20.282,66.032 L18.734,69.992 L21.848,69.992 L20.282,66.032 Z M39.884,74.168 C39.0559959,74.6000022 38.1920045,74.911999 37.292,75.104 C36.3919955,75.296001 35.4740047,75.392 34.538,75.392 C33.541995,75.392 32.6240042,75.2360016 31.784,74.924 C30.9439958,74.6119984 30.2180031,74.1650029 29.606,73.583 C28.9939969,73.0009971 28.5170017,72.2960041 28.175,71.468 C27.8329983,70.6399959 27.662,69.7160051 27.662,68.696 C27.662,67.6759949 27.8329983,66.7520041 28.175,65.924 C28.5170017,65.0959959 28.9939969,64.3910029 29.606,63.809 C30.2180031,63.2269971 30.9439958,62.7800016 31.784,62.468 C32.6240042,62.1559984 33.541995,62 34.538,62 C35.5580051,62 36.4969957,62.1229988 37.355,62.369 C38.2130043,62.6150012 38.9659968,63.037997 39.614,63.638 L37.634,65.798 C37.2499981,65.401998 36.8180024,65.102001 36.338,64.898 C35.8579976,64.693999 35.2580036,64.592 34.538,64.592 C33.937997,64.592 33.3950024,64.693999 32.909,64.898 C32.4229976,65.102001 32.0060017,65.3869982 31.658,65.753 C31.3099983,66.1190018 31.0430009,66.5539975 30.857,67.058 C30.6709991,67.5620025 30.578,68.1079971 30.578,68.696 C30.578,69.296003 30.6709991,69.8449975 30.857,70.343 C31.0430009,70.8410025 31.3099983,71.2729982 31.658,71.639 C32.0060017,72.0050018 32.4229976,72.289999 32.909,72.494 C33.3950024,72.698001 33.937997,72.8 34.538,72.8 C35.1500031,72.8 35.6779978,72.7310007 36.122,72.593 C36.5660022,72.4549993 36.9199987,72.3140007 37.184,72.17 L37.184,70.1 L34.898,70.1 L34.898,67.508 L39.884,67.508 L39.884,74.168 Z M42.458,62.324 L51.116,62.324 L51.116,64.916 L45.266,64.916 L45.266,67.292 L50.792,67.292 L50.792,69.884 L45.266,69.884 L45.266,72.476 L51.44,72.476 L51.44,75.068 L42.458,75.068 L42.458,62.324 Z M59.99,65.438 C59.7619989,65.1499986 59.4530019,64.9370007 59.063,64.799 C58.672998,64.6609993 58.3040017,64.592 57.956,64.592 C57.751999,64.592 57.5420011,64.6159998 57.326,64.664 C57.1099989,64.7120002 56.906001,64.7869995 56.714,64.889 C56.521999,64.9910005 56.3660006,65.1259992 56.246,65.294 C56.1259994,65.4620008 56.066,65.6659988 56.066,65.906 C56.066,66.2900019 56.2099986,66.583999 56.498,66.788 C56.7860014,66.992001 57.1489978,67.1659993 57.587,67.31 C58.0250022,67.4540007 58.4959975,67.5979993 59,67.742 C59.5040025,67.8860007 59.9749978,68.0899987 60.413,68.354 C60.8510022,68.6180013 61.2139986,68.9719978 61.502,69.416 C61.7900014,69.8600022 61.934,70.4539963 61.934,71.198 C61.934,71.9060035 61.8020013,72.5239974 61.538,73.052 C61.2739987,73.5800026 60.9170022,74.0179983 60.467,74.366 C60.0169977,74.7140017 59.495003,74.9719992 58.901,75.14 C58.306997,75.3080008 57.6800033,75.392 57.02,75.392 C56.1919959,75.392 55.4240035,75.2660013 54.716,75.014 C54.0079965,74.7619987 53.3480031,74.3540028 52.736,73.79 L54.734,71.594 C55.0220014,71.9780019 55.3849978,72.2749989 55.823,72.485 C56.2610022,72.6950011 56.7139977,72.8 57.182,72.8 C57.4100011,72.8 57.6409988,72.7730003 57.875,72.719 C58.1090012,72.6649997 58.3189991,72.5840005 58.505,72.476 C58.6910009,72.3679995 58.8409994,72.2300008 58.955,72.062 C59.0690006,71.8939992 59.126,71.6960011 59.126,71.468 C59.126,71.0839981 58.9790015,70.7810011 58.685,70.559 C58.3909985,70.3369989 58.0220022,70.1480008 57.578,69.992 C57.1339978,69.8359992 56.6540026,69.6800008 56.138,69.524 C55.6219974,69.3679992 55.1420022,69.1580013 54.698,68.894 C54.2539978,68.6299987 53.8850015,68.2820022 53.591,67.85 C53.2969985,67.4179978 53.15,66.8480035 53.15,66.14 C53.15,65.4559966 53.2849986,64.8560026 53.555,64.34 C53.8250013,63.8239974 54.1849977,63.3920017 54.635,63.044 C55.0850022,62.6959983 55.6039971,62.4350009 56.192,62.261 C56.7800029,62.0869991 57.3859969,62 58.01,62 C58.7300036,62 59.4259966,62.101999 60.098,62.306 C60.7700034,62.510001 61.3759973,62.8519976 61.916,63.332 L59.99,65.438 Z"/>
  </g>
</svg>
