<svg xmlns="http://www.w3.org/2000/svg" width="81" height="93" viewBox="0 0 81 93">
  <g fill="none" fill-rule="evenodd">
    <path fill="#E6F2FF" d="M13,0 L65.7339131,0 L81,18.640625 L81,90 C81,91.6568542 79.6568542,93 78,93 L13,93 C11.3431458,93 10,91.6568542 10,90 L10,3 C10,1.34314575 11.3431458,3.04359188e-16 13,0 Z"/>
    <path fill="#AEC3DA" d="M66.1679688,0.083984375 L66.1679688,15.6293945 C66.1679688,17.2862488 67.5111145,18.6293945 69.1679688,18.6293945 L81.0048828,18.6293945 L66.1679688,0.083984375 Z"/>
    <rect width="66" height="32" y="53" fill="#A42929" rx="3"/>
    <path fill="#FFF" d="M14,62 L19.26,62 C19.993337,62 20.6866634,62.066666 21.34,62.2 C21.9933366,62.333334 22.5633309,62.5633317 23.05,62.89 C23.5366691,63.2166683 23.9233319,63.6566639 24.21,64.21 C24.4966681,64.7633361 24.64,65.4599958 24.64,66.3 C24.64,67.1266708 24.506668,67.8199972 24.24,68.38 C23.973332,68.9400028 23.606669,69.386665 23.14,69.72 C22.673331,70.053335 22.1200032,70.2899993 21.48,70.43 C20.8399968,70.5700007 20.1466704,70.64 19.4,70.64 L17.12,70.64 L17.12,76.16 L14,76.16 L14,62 Z M17.12,68 L19.2,68 C19.4800014,68 19.7499987,67.9733336 20.01,67.92 C20.2700013,67.8666664 20.5033323,67.7766673 20.71,67.65 C20.9166677,67.5233327 21.0833327,67.3500011 21.21,67.13 C21.3366673,66.9099989 21.4,66.633335 21.4,66.3 C21.4,65.9399982 21.3166675,65.6500011 21.15,65.43 C20.9833325,65.2099989 20.7700013,65.0400006 20.51,64.92 C20.2499987,64.7999994 19.9600016,64.7233335 19.64,64.69 C19.3199984,64.6566665 19.0133348,64.64 18.72,64.64 L17.12,64.64 L17.12,68 Z M26.6,62 L31.28,62 C32.413339,62 33.4899949,62.1266654 34.51,62.38 C35.5300051,62.6333346 36.4199962,63.0433305 37.18,63.61 C37.9400038,64.1766695 38.5433311,64.9133288 38.99,65.82 C39.4366689,66.7266712 39.66,67.8266602 39.66,69.12 C39.66,70.2666724 39.4433355,71.2766623 39.01,72.15 C38.5766645,73.0233377 37.993337,73.7566637 37.26,74.35 C36.526663,74.9433363 35.6800048,75.3933318 34.72,75.7 C33.7599952,76.0066682 32.7533386,76.16 31.7,76.16 L26.6,76.16 L26.6,62 Z M29.72,73.28 L31.34,73.28 C32.0600036,73.28 32.7299969,73.2066674 33.35,73.06 C33.9700031,72.9133326 34.5066644,72.6700017 34.96,72.33 C35.4133356,71.9899983 35.7699987,71.5433361 36.03,70.99 C36.2900013,70.4366639 36.42,69.760004 36.42,68.96 C36.42,68.2666632 36.2900013,67.6633359 36.03,67.15 C35.7699987,66.6366641 35.4200022,66.213335 34.98,65.88 C34.5399978,65.546665 34.0233363,65.2966675 33.43,65.13 C32.8366637,64.9633325 32.2133366,64.88 31.56,64.88 L29.72,64.88 L29.72,73.28 Z M41.9,62 L51.4,62 L51.4,64.88 L45.02,64.88 L45.02,67.76 L50.92,67.76 L50.92,70.64 L45.02,70.64 L45.02,76.16 L41.9,76.16 L41.9,62 Z"/>
  </g>
</svg>
