<svg xmlns="http://www.w3.org/2000/svg" width="81" height="93" viewBox="0 0 81 93">
  <g fill="none" fill-rule="evenodd">
    <path fill="#E6F2FF" d="M13,0 L65.7339131,0 L81,18.640625 L81,90 C81,91.6568542 79.6568542,93 78,93 L13,93 C11.3431458,93 10,91.6568542 10,90 L10,3 C10,1.34314575 11.3431458,3.04359188e-16 13,0 Z"/>
    <path fill="#AEC3DA" d="M66.1679688,0.083984375 L66.1679688,15.6293945 C66.1679688,17.2862488 67.5111145,18.6293945 69.1679688,18.6293945 L81.0048828,18.6293945 L66.1679688,0.083984375 Z"/>
    <rect width="71" height="32" y="53" fill="#D4D4D4" rx="3"/>
    <path fill="#656565" d="M6.008,64.088 L9.844,64.088 C10.3480025,64.088 10.8263311,64.1369995 11.279,64.235 C11.7316689,64.3330005 12.1283316,64.4963322 12.469,64.725 C12.8096684,64.9536678 13.0803323,65.2616647 13.281,65.649 C13.4816677,66.0363353 13.582,66.5193304 13.582,67.098 C13.582,67.7980035 13.4000018,68.3929976 13.036,68.883 C12.6719982,69.3730024 12.1400035,69.6833327 11.44,69.814 L13.96,74 L11.342,74 L9.27,70.038 L8.192,70.038 L8.192,74 L6.008,74 L6.008,64.088 Z M8.192,68.19 L9.48,68.19 C9.67600098,68.19 9.88366557,68.1830001 10.103,68.169 C10.3223344,68.1549999 10.5206658,68.1130003 10.698,68.043 C10.8753342,67.9729997 11.0223328,67.8633341 11.139,67.714 C11.2556673,67.5646659 11.314,67.354668 11.314,67.084 C11.314,66.8319987 11.2626672,66.6313341 11.16,66.482 C11.0573328,66.3326659 10.9266675,66.2183337 10.768,66.139 C10.6093325,66.0596663 10.4273344,66.0060001 10.222,65.978 C10.0166656,65.9499999 9.81600098,65.936 9.62,65.936 L8.192,65.936 L8.192,68.19 Z M15.164,64.088 L21.898,64.088 L21.898,66.104 L17.348,66.104 L17.348,67.952 L21.646,67.952 L21.646,69.968 L17.348,69.968 L17.348,71.984 L22.15,71.984 L22.15,74 L15.164,74 L15.164,64.088 Z M27.162,64.088 L28.968,64.088 L33.28,74 L30.816,74 L29.962,71.9 L26.112,71.9 L25.286,74 L22.878,74 L27.162,64.088 Z M28.002,66.972 L26.798,70.052 L29.22,70.052 L28.002,66.972 Z M34.274,64.088 L37.55,64.088 C38.3433373,64.088 39.0969964,64.1766658 39.811,64.354 C40.5250036,64.5313342 41.1479973,64.8183313 41.68,65.215 C42.2120027,65.6116686 42.6343318,66.1273302 42.947,66.762 C43.2596682,67.3966698 43.416,68.1666621 43.416,69.072 C43.416,69.8746707 43.2643349,70.5816636 42.961,71.193 C42.6576652,71.8043364 42.2493359,72.3176646 41.736,72.733 C41.2226641,73.1483354 40.6300034,73.4633323 39.958,73.678 C39.2859966,73.8926677 38.581337,74 37.844,74 L34.274,74 L34.274,64.088 Z M36.458,71.984 L37.592,71.984 C38.0960025,71.984 38.5649978,71.9326672 38.999,71.83 C39.4330022,71.7273328 39.8086651,71.5570012 40.126,71.319 C40.4433349,71.0809988 40.6929991,70.7683353 40.875,70.381 C41.0570009,69.9936647 41.148,69.5200028 41.148,68.96 C41.148,68.4746642 41.0570009,68.0523351 40.875,67.693 C40.6929991,67.3336649 40.4480015,67.0373345 40.14,66.804 C39.8319985,66.5706655 39.4703354,66.3956672 39.055,66.279 C38.6396646,66.1623328 38.2033356,66.104 37.746,66.104 L36.458,66.104 L36.458,71.984 Z M44.9,64.088 L48.204,64.088 L50.486,70.556 L50.514,70.556 L52.81,64.088 L56.1,64.088 L56.1,74 L53.916,74 L53.916,66.398 L53.888,66.398 L51.284,74 L49.618,74 L47.112,66.398 L47.084,66.398 L47.084,74 L44.9,74 L44.9,64.088 Z M58.2,64.088 L64.934,64.088 L64.934,66.104 L60.384,66.104 L60.384,67.952 L64.682,67.952 L64.682,69.968 L60.384,69.968 L60.384,71.984 L65.186,71.984 L65.186,74 L58.2,74 L58.2,64.088 Z"/>
  </g>
</svg>
