<svg xmlns="http://www.w3.org/2000/svg" width="71" height="93" viewBox="0 0 71 93">
  <g fill="none" fill-rule="evenodd">
    <path fill="#1D2F44" d="M3,0 L55.7339131,0 L71,18.640625 L71,90 C71,91.6568542 69.6568542,93 68,93 L3,93 C1.34314575,93 2.02906125e-16,91.6568542 0,90 L0,3 C-2.02906125e-16,1.34314575 1.34314575,3.04359188e-16 3,0 Z"/>
    <path fill="#3A6291" d="M56.1679688,0.083984375 L56.1679688,15.6293945 C56.1679688,17.2862488 57.5111145,18.6293945 59.1679688,18.6293945 L71.0048828,18.6293945 L56.1679688,0.083984375 Z"/>
    <path fill="#FFC100" fill-rule="nonzero" d="M63.0183351,32.982766 L54.4339066,26.4211627 C54.2413969,26.2171637 54.0241513,26.0500582 53.7853962,25.9263568 L48.0025758,21.5056569 C47.5723865,21.1779565 47.0486309,21 46.5098188,21 L24.4905768,21 C23.9517647,21 23.4269337,21.1779565 22.9978198,21.5056569 L7.98098498,32.982766 C6.8893795,33.8172084 6.67643577,35.3884341 7.50562575,36.4887261 L33.531006,71.0144574 C34.521517,72.3285142 36.4778031,72.3285142 37.4683141,71.0144574 L63.4947699,36.4887261 C64.3239598,35.3884341 64.1099406,33.8172084 63.0183351,32.982766 Z M25.6808812,26 L46.177279,26 L49,28.2076906 L45.3468121,31 L27.5053096,30.8546837 L23,28.0959088 L25.6808812,26 Z M27.516269,36 L44.2895879,36.139501 L49,43 L23,43 L27.516269,36 Z M18.4606185,32 L23,34.5826788 L17.7839672,42 L13,35.9675486 L18.4606185,32 Z M35.5,65 L22,47 L49,47 L35.5,65 Z M53.9423839,41 L49,33.7459016 L52.5174649,31 L58,35.3772769 L53.9423839,41 Z"/>
  </g>
</svg>
