<svg xmlns="http://www.w3.org/2000/svg" width="71" height="93" viewBox="0 0 71 93">
  <g fill="none" fill-rule="evenodd">
    <path fill="#1D2F44" d="M3,0 L55.7339131,0 L71,18.640625 L71,90 C71,91.6568542 69.6568542,93 68,93 L3,93 C1.34314575,93 2.02906125e-16,91.6568542 0,90 L0,3 C-2.02906125e-16,1.34314575 1.34314575,3.04359188e-16 3,0 Z"/>
    <path fill="#3A6291" d="M56.1679688,0.083984375 L56.1679688,15.6293945 C56.1679688,17.2862488 57.5111145,18.6293945 59.1679688,18.6293945 L71.0048828,18.6293945 L56.1679688,0.083984375 Z"/>
    <g transform="translate(4 26)">
      <rect width="63" height="59" fill="#A5C5E9" rx="4.5"/>
      <g transform="translate(9 13.615)">
        <polygon fill="#BB7334" points="11.25 0 22.5 36.308 0 36.308"/>
        <path fill="#FFF" d="M11.25,0 L15.5629578,13.6153846 C15.5629578,13.6153846 15.1130078,15.3494982 13.782074,15.3347591 C13.076436,15.3269446 11.6660558,13.3122772 10.947876,13.6153846 C10.2440359,13.91244 9.76023254,16.7117544 9.22467041,16.7117544 C8.48959351,16.7117544 7.0194397,13.6153846 7.0194397,13.6153846 L11.25,0 Z"/>
      </g>
      <path fill="#70CF47" d="M0,40.8461538 C0,40.8461538 14.0462624,46.1461545 28.930794,45.7327507 C35.716949,45.5442716 43.9904975,38.8030037 48.8700727,39.2950675 C54.2877961,39.8413989 63,47.1991696 63,47.1991696 L63,54.5049479 C63,56.9874966 60.9928922,59 58.4944782,59 L4.50552184,59 C2.01719084,59 0,56.9878587 0,54.5008739 L0,40.8461538 Z"/>
      <ellipse cx="49.5" cy="13.615" fill="#F8E71C" rx="9" ry="9.077"/>
    </g>
    <path fill="#FFF" d="M12.596,9.37 C12.3679989,9.08199856 12.059002,8.86900069 11.669,8.731 C11.2789981,8.59299931 10.9100017,8.524 10.562,8.524 C10.357999,8.524 10.1480011,8.54799976 9.932,8.596 C9.71599892,8.64400024 9.51200096,8.71899949 9.32,8.821 C9.12799904,8.92300051 8.9720006,9.05799916 8.852,9.226 C8.7319994,9.39400084 8.672,9.5979988 8.672,9.838 C8.672,10.2220019 8.81599856,10.515999 9.104,10.72 C9.39200144,10.924001 9.75499781,11.0979993 10.193,11.242 C10.6310022,11.3860007 11.1019975,11.5299993 11.606,11.674 C12.1100025,11.8180007 12.5809978,12.0219987 13.019,12.286 C13.4570022,12.5500013 13.8199986,12.9039978 14.108,13.348 C14.3960014,13.7920022 14.54,14.3859963 14.54,15.13 C14.54,15.8380035 14.4080013,16.4559974 14.144,16.984 C13.8799987,17.5120026 13.5230023,17.9499983 13.073,18.298 C12.6229978,18.6460017 12.101003,18.9039992 11.507,19.072 C10.912997,19.2400008 10.2860033,19.324 9.626,19.324 C8.79799586,19.324 8.03000354,19.1980013 7.322,18.946 C6.61399646,18.6939987 5.95400306,18.2860028 5.342,17.722 L7.34,15.526 C7.62800144,15.9100019 7.99099781,16.206999 8.429,16.417 C8.86700219,16.627001 9.31999766,16.732 9.788,16.732 C10.0160011,16.732 10.2469988,16.7050003 10.481,16.651 C10.7150012,16.5969997 10.9249991,16.5160005 11.111,16.408 C11.2970009,16.2999995 11.4469994,16.1620008 11.561,15.994 C11.6750006,15.8259992 11.732,15.6280011 11.732,15.4 C11.732,15.0159981 11.5850015,14.7130011 11.291,14.491 C10.9969985,14.2689989 10.6280022,14.0800008 10.184,13.924 C9.73999778,13.7679992 9.26000258,13.6120008 8.744,13.456 C8.22799742,13.2999992 7.74800222,13.0900013 7.304,12.826 C6.85999778,12.5619987 6.49100147,12.2140022 6.197,11.782 C5.90299853,11.3499978 5.756,10.7800035 5.756,10.072 C5.756,9.38799658 5.89099865,8.78800258 6.161,8.272 C6.43100135,7.75599742 6.79099775,7.32400174 7.241,6.976 C7.69100225,6.62799826 8.20999706,6.36700087 8.798,6.193 C9.38600294,6.01899913 9.99199688,5.932 10.616,5.932 C11.3360036,5.932 12.0319966,6.03399898 12.704,6.238 C13.3760034,6.44200102 13.9819973,6.7839976 14.522,7.264 L12.596,9.37 Z M15.368,6.256 L18.572,6.256 L21.722,14.608 L21.758,14.608 L24.962,6.256 L27.968,6.256 L22.712,19 L20.462,19 L15.368,6.256 Z M40.838,18.1 C40.0099959,18.5320022 39.1460045,18.843999 38.246,19.036 C37.3459955,19.228001 36.4280047,19.324 35.492,19.324 C34.495995,19.324 33.5780042,19.1680016 32.738,18.856 C31.8979958,18.5439984 31.1720031,18.0970029 30.56,17.515 C29.9479969,16.9329971 29.4710017,16.2280041 29.129,15.4 C28.7869983,14.5719959 28.616,13.6480051 28.616,12.628 C28.616,11.6079949 28.7869983,10.6840041 29.129,9.856 C29.4710017,9.02799586 29.9479969,8.32300291 30.56,7.741 C31.1720031,7.15899709 31.8979958,6.71200156 32.738,6.4 C33.5780042,6.08799844 34.495995,5.932 35.492,5.932 C36.5120051,5.932 37.4509957,6.05499877 38.309,6.301 C39.1670043,6.54700123 39.9199968,6.969997 40.568,7.57 L38.588,9.73 C38.2039981,9.33399802 37.7720024,9.03400102 37.292,8.83 C36.8119976,8.62599898 36.2120036,8.524 35.492,8.524 C34.891997,8.524 34.3490024,8.62599898 33.863,8.83 C33.3769976,9.03400102 32.9600017,9.31899817 32.612,9.685 C32.2639983,10.0510018 31.9970009,10.4859975 31.811,10.99 C31.6249991,11.4940025 31.532,12.0399971 31.532,12.628 C31.532,13.228003 31.6249991,13.7769975 31.811,14.275 C31.9970009,14.7730025 32.2639983,15.2049982 32.612,15.571 C32.9600017,15.9370018 33.3769976,16.221999 33.863,16.426 C34.3490024,16.630001 34.891997,16.732 35.492,16.732 C36.1040031,16.732 36.6319978,16.6630007 37.076,16.525 C37.5200022,16.3869993 37.8739987,16.2460007 38.138,16.102 L38.138,14.032 L35.852,14.032 L35.852,11.44 L40.838,11.44 L40.838,18.1 Z"/>
  </g>
</svg>
