<svg xmlns="http://www.w3.org/2000/svg" width="81" height="93" viewBox="0 0 81 93">
  <g fill="none" fill-rule="evenodd">
    <path fill="#E6F2FF" d="M13,0 L65.7339131,0 L81,18.640625 L81,90 C81,91.6568542 79.6568542,93 78,93 L13,93 C11.3431458,93 10,91.6568542 10,90 L10,3 C10,1.34314575 11.3431458,3.04359188e-16 13,0 Z"/>
    <path fill="#AEC3DA" d="M66.1679688,0.083984375 L66.1679688,15.6293945 C66.1679688,17.2862488 67.5111145,18.6293945 69.1679688,18.6293945 L81.0048828,18.6293945 L66.1679688,0.083984375 Z"/>
    <rect width="66" height="32" y="53" fill="#8AB858" rx="3"/>
    <path fill="#273F4D" d="M16,63 L19.026,63 L22.001,70.888 L22.035,70.888 L25.061,63 L27.9,63 L22.936,75.036 L20.811,75.036 L16,63 Z M39.307,70.395 C39.307,71.1090036 39.1993344,71.7663303 38.984,72.367 C38.7686656,72.9676697 38.4485021,73.4889978 38.0235,73.931 C37.5984979,74.3730022 37.0686698,74.7186654 36.434,74.968 C35.7993302,75.2173346 35.0683375,75.342 34.241,75.342 C33.4023291,75.342 32.6656698,75.2173346 32.031,74.968 C31.3963302,74.7186654 30.8665021,74.3730022 30.4415,73.931 C30.0164979,73.4889978 29.6963344,72.9676697 29.481,72.367 C29.2656656,71.7663303 29.158,71.1090036 29.158,70.395 L29.158,63 L31.81,63 L31.81,70.293 C31.81,70.6670019 31.8694994,71.0126651 31.9885,71.33 C32.1075006,71.6473349 32.2746656,71.9221655 32.49,72.1545 C32.7053344,72.3868345 32.9631652,72.568166 33.2635,72.6985 C33.5638348,72.828834 33.8896649,72.894 34.241,72.894 C34.5923351,72.894 34.9153319,72.828834 35.21,72.6985 C35.5046681,72.568166 35.7596656,72.3868345 35.975,72.1545 C36.1903344,71.9221655 36.3574994,71.6473349 36.4765,71.33 C36.5955006,71.0126651 36.655,70.6670019 36.655,70.293 L36.655,63 L39.307,63 L39.307,70.395 Z M41.857,63 L50.034,63 L50.034,65.448 L44.509,65.448 L44.509,67.692 L49.728,67.692 L49.728,70.14 L44.509,70.14 L44.509,72.588 L50.34,72.588 L50.34,75.036 L41.857,75.036 L41.857,63 Z"/>
  </g>
</svg>
